{
.appVersion = "3134";
.formatVersion = 3;
DisplayStrings = (
"Aa Bb Cc Dd Ee Ff Gg Hh Ii Jj Kk Ll Mm Nn Oo Pp Qq Rr Ss Tt Uu Vv Ww Xx Yy Zz
!@&?.
1234567890

Amoeba
Grotesk

For one thing, time is the very thing that we are least willing to allow.

The shining
Positive &
Negative
Pros&Cons"
);
customParameters = (
{
name = vendorID;
value = AMMP;
},
{
name = panose;
value = (
0,
0,
10,
0,
0,
0,
0,
0,
0,
0
);
},
{
name = unicodeRanges;
value = (
0,
1,
2,
29
);
},
{
name = codePageRanges;
value = (
"1252",
"1250",
"1254",
"1257",
"1258",
"bit 29"
);
},
{
name = blueScale;
value = 0.037;
},
{
name = glyphOrder;
value = (
.notdef,
space,
A,
Aacute,
Abreve,
uni1EAE,
uni1EB6,
uni1EB0,
uni1EB2,
uni1EB4,
uni01CD,
Acircumflex,
uni1EA4,
uni1EAC,
uni1EA6,
uni1EA8,
uni1EAA,
Adieresis,
uni1EA0,
Agrave,
uni1EA2,
Amacron,
Aogonek,
Aring,
Atilde,
AE,
B,
C,
Cacute,
Ccaron,
Ccedilla,
Cdotaccent,
D,
Eth,
Dcaron,
Dcroat,
E,
Eacute,
Ecaron,
Ecircumflex,
uni1EBE,
uni1EC6,
uni1EC0,
uni1EC2,
uni1EC4,
Edieresis,
Edotaccent,
uni1EB8,
Egrave,
uni1EBA,
Emacron,
Eogonek,
uni1EBC,
F,
G,
Gbreve,
uni0122,
Gdotaccent,
H,
Hbar,
I,
Iacute,
uni01CF,
Icircumflex,
Idieresis,
Idotaccent,
uni1ECA,
Igrave,
uni1EC8,
Imacron,
Iogonek,
Itilde,
J,
K,
uni0136,
L,
Lacute,
Lcaron,
uni013B,
Lslash,
M,
N,
Nacute,
Ncaron,
uni0145,
Eng,
Ntilde,
O,
Oacute,
uni01D1,
Ocircumflex,
uni1ED0,
uni1ED8,
uni1ED2,
uni1ED4,
uni1ED6,
Odieresis,
uni1ECC,
Ograve,
uni1ECE,
Ohorn,
uni1EDA,
uni1EE2,
uni1EDC,
uni1EDE,
uni1EE0,
Ohungarumlaut,
Omacron,
Oslash,
Otilde,
OE,
P,
Thorn,
Q,
R,
Racute,
Rcaron,
uni0156,
S,
Sacute,
Scaron,
Scedilla,
uni0218,
uni1E9E,
T,
Tbar,
Tcaron,
uni0162,
uni021A,
U,
Uacute,
uni01D3,
Ucircumflex,
Udieresis,
uni01D7,
uni01D9,
uni01DB,
uni01D5,
uni1EE4,
Ugrave,
uni1EE6,
Uhorn,
uni1EE8,
uni1EF0,
uni1EEA,
uni1EEC,
uni1EEE,
Uhungarumlaut,
Umacron,
Uogonek,
Uring,
Utilde,
V,
W,
Wacute,
Wcircumflex,
Wdieresis,
Wgrave,
X,
Y,
Yacute,
Ycircumflex,
Ydieresis,
uni1EF4,
Ygrave,
uni1EF6,
uni1EF8,
Z,
Zacute,
Zcaron,

glyphs = (
{
glyphname = .notdef;
lastChange = "2022-12-26 08:52:30 +0000";
layers = (
{
hints = (
{
horizontal = 1;
place = (-123, -72);
place = (-123, -72);
type = Stem;
},
{
horizontal = 1;
place = (297, -72);
place = (297, -72);
type = Stem;
},
{
place = (-44, -73);
place = (-44, -73);
type = Stem;
},
{
place = (309, -72);
place = (309, -72);
type = Stem;
}
);
layerId = m01;
shapes = (
{
closed = 1;
nodes = (
(-44,0,l),
(360,0,l),
(443,471,l),
(39,471,l)
);
},
{
closed = 1;
nodes = (
(15,51,l),
(80,420,l),
(383,420,l),
(318,51,l)
);
}
);
width = 562;
}
);
note = ".notdef";
},
{
glyphname = A;
kernLeft = A;
kernRight = A;
lastChange = "2022-12-26 08:52:30 +0000";
layers = (
{
hints = (
{
horizontal = 1;
place = (-123, 21);
target = up;
type = BottomGhost;
},
{
horizontal = 1;
place = (-5, 21);
place = (-5, 21);
type = Stem;
},
{
horizontal = 1;
place = (574, -20);
target = down;
type = TopGhost;
},
{
place = (-138, 571);
place = (-138, 571);
type = Stem;
}
);
layerId = m01;
shapes = (
{
closed = 1;
nodes = (
(391,697,o),
(330,697,qs),
(275,697,l),
(-138,0,l),
(33,0,l),
(99,118,l),
(361,118,l),
(385,0,l),
(556,0,l),
(403,642,ls)
);
},
{
closed = 1;
nodes = (
(292,463,l),
(332,262,l),
(179,262,l)
);
}
);
width = 664;
}
);
note = A;
unicode = 65;
},
{
glyphname = Aacute;
kernLeft = A;
kernRight = A;
lastChange = "2022-12-26 08:52:30 +0000";
layers = (
{
hints = (
{
horizontal = 1;
place = (-123, 21);
target = up;
type = BottomGhost;
},
{
horizontal = 1;
place = (-5, 21);
place = (-5, 21);
type = Stem;
},
{
horizontal = 1;
place = (574, -20);
target = down;
type = TopGhost;
},
{
horizontal = 1;
place = (635, 20);
place = (635, 20);
type = Stem;
},
{
place = (-138, 571);
place = (-138, 571);
type = Stem;
}
);
layerId = m01;
shapes = (
{
closed = 1;
nodes = (
(589,901,l),
(427,901,l),
(289,758,l),
(398,758,l)
);
},
{
closed = 1;
nodes = (
(385,0,l),
(556,0,l),
(390,697,l),
(275,697,l),
(-138,0,l),
(33,0,l),
(99,118,l),
(361,118,l)
);
},
{
closed = 1;
nodes = (
(179,262,l),
(292,463,l),
(332,262,l)
);
}
);
width = 664;
}
);
note = Aacute;
unicode = 193;
},
{
glyphname = Abreve;
kernLeft = A;
kernRight = A;
lastChange = "2022-12-26 08:52:30 +0000";
layers = (
{
hints = (
{
horizontal = 1;
place = (-123, 21);
target = up;
type = BottomGhost;
},
{
horizontal = 1;
place = (-5, 21);
place = (-5, 21);
type = Stem;
},
{
horizontal = 1;
place = (574, -20);
target = down;
type = TopGhost;
},
{
horizontal = 1;
place = (644, 11);
place = (644, 11);
type = Stem;
},
{
place = (51, -17);
place = (51, -17);
type = Stem;
},
{
place = (263, -17);
place = (263, -17);
type = Stem;
},
{
horizontal = 1;
place = (644, -36);
place = (644, -36);
type = Stem;
}
);
layerId = m01;
shapes = (
{
closed = 1;
nodes = (
(451,767,o),
(512,809,o),
(528,901,c),
(422,901,l),
(417,870,o),
(389,854,o),
(361,854,cs),
(335,854,o),
(310,868,o),
(316,901,c),
(210,901,l),
(195,815,o),
(233,767,o),
(345,767,cs)
);
},
{
closed = 1;
nodes = (
(385,0,l),
(556,0,l),
(390,697,l),
(275,697,l),
(-138,0,l),
(33,0,l),
(99,118,l),
(361,118,l)
);
},
{
closed = 1;
nodes = (
(179,262,l),
(292,463,l),
(332,262,l)
);
}
);
width = 664;
}
);
note = Abreve;
unicode = 258;
},
{
glyphname = uni1EAE;
kernLeft = A;
kernRight = A;
lastChange = "2022-12-26 08:52:30 +0000";
layers = (
{
hints = (
{
horizontal = 1;
place = (-123, 21);
target = up;
type = BottomGhost;
},
{
horizontal = 1;
place = (-5, 21);
place = (-5, 21);
type = Stem;
},
{
horizontal = 1;
place = (574, -20);
target = down;
type = TopGhost;
},
{
horizontal = 1;
place = (644, 11);
place = (644, 11);
type = Stem;
},
{
horizontal = 1;
place = (839, 20);
place = (839, 20);
type = Stem;
},
{
place = (51, -17);
place = (51, -17);
type = Stem;
},
{
place = (263, -17);
place = (263, -17);
type = Stem;
},
{
horizontal = 1;
place = (644, -36);
place = (644, -36);
type = Stem;
}
);
layerId = m01;
shapes = (
{
closed = 1;
nodes = (
(625,1105,l),
(463,1105,l),
(325,962,l),
(434,962,l)
);
},
{
closed = 1;
nodes = (
(451,767,o),
(512,809,o),
(528,901,c),
(422,901,l),
(417,870,o),
(389,854,o),
(361,854,cs),
(335,854,o),
(310,868,o),
(316,901,c),
(210,901,l),
(195,815,o),
(233,767,o),
(345,767,cs)
);
},
{
closed = 1;
nodes = (
(385,0,l),
(556,0,l),
(390,697,l),
(275,697,l),
(-138,0,l),
(33,0,l),
(99,118,l),
(361,118,l)
);
},
{
closed = 1;
nodes = (
(179,262,l),
(292,463,l),
(332,262,l)
);
}
);
width = 664;
}
);
note = uni1EAE;
unicode = 7854;
},
{
glyphname = uni1EB6;
kernLeft = A;
kernRight = A;
lastChange = "2022-12-26 08:52:30 +0000";
layers = (
{
hints = (
{
horizontal = 1;
place = (-296, -6);
place = (-296, -6);
type = Stem;
},
{
horizontal = 1;
place = (-123, 21);
target = up;
type = BottomGhost;
},
{
horizontal = 1;
place = (-5, 21);
place = (-5, 21);
type = Stem;
},
{
horizontal = 1;
place = (574, -20);
target = down;
type = TopGhost;
},
{
horizontal = 1;
place = (644, 11);
place = (644, 11);
type = Stem;
},
{
place = (51, -17);
place = (51, -17);
type = Stem;
},
{
place = (263, -17);
place = (263, -17);
type = Stem;
},
{
horizontal = 1;
place = (644, -36);
place = (644, -36);
type = Stem;
},
{
place = (133, 31);
place = (133, 31);
type = Stem;
}
);
layerId = m01;
shapes = (
{
closed = 1;
nodes = (
(451,767,o),
(512,809,o),
(528,901,c),
(422,901,l),
(417,870,o),
(389,854,o),
(361,854,cs),
(335,854,o),
(310,868,o),
(316,901,c),
(210,901,l),
(195,815,o),
(233,767,o),
(345,767,cs)
);
},
{
closed = 1;
nodes = (
(556,0,l),
(390,697,l),
(275,697,l),
(-138,0,l),
(33,0,l),
(99,118,l),
(361,118,l),
(385,0,l)
);
},
{
closed = 1;
nodes = (
(179,262,l),
(292,463,l),
(332,262,l)
);
},
{
closed = 1;
nodes = (
(103,-173,l),
(257,-173,l),
(277,-56,l),
(123,-56,l)
);
}
);
width = 664;
}
);
note = uni1EB6;
unicode = 7862;
},
{
glyphname = uni1EB0;
kernLeft = A;
kernRight = A;
lastChange = "2022-12-26 08:52:30 +0000";
layers = (
{
hints = (
{
horizontal = 1;
place = (-123, 21);
target = up;
type = BottomGhost;
},
{
horizontal = 1;
place = (-5, 21);
place = (-5, 21);
type = Stem;
},
{
horizontal = 1;
place = (574, -20);
target = down;
type = TopGhost;
},
{
horizontal = 1;
place = (644, 11);
place = (644, 11);
type = Stem;
},
{
horizontal = 1;
place = (839, 20);
place = (839, 20);
type = Stem;
},
{
place = (51, -17);
place = (51, -17);
type = Stem;
},
{
place = (263, -17);
place = (263, -17);
type = Stem;
},
{
horizontal = 1;
place = (644, -36);
place = (644, -36);
type = Stem;
}
);
layerId = m01;
shapes = (
{
closed = 1;
nodes = (
(435,962,l),
(356,1105,l),
(196,1105,l),
(324,962,l)
);
},
{
closed = 1;
nodes = (
(335,854,o),
(310,868,o),
(316,901,c),
(210,901,l),
(195,815,o),
(233,767,o),
(345,767,cs),
(451,767,o),
(512,809,o),
(528,901,c),
(422,901,l),
(417,870,o),
(389,854,o),
(361,854,cs)
);
},
{
closed = 1;
nodes = (
(385,0,l),
(556,0,l),
(390,697,l),
(275,697,l),
(-138,0,l),
(33,0,l),
(99,118,l),
(361,118,l)
);
},
{
closed = 1;
nodes = (
(179,262,l),
(292,463,l),
(332,262,l)
);
}
);
width = 664;
}
);
note = uni1EB0;
unicode = 7856;
},
{
glyphname = uni1EB2;
kernLeft = A;
kernRight = A;
lastChange = "2022-12-26 08:52:30 +0000";
layers = (
{
hints = (
{
horizontal = 1;
place = (-123, 21);
target = up;
type = BottomGhost;
},
{
horizontal = 1;
place = (-5, 21);
place = (-5, 21);
type = Stem;
},
{
horizontal = 1;
place = (574, -20);
target = down;
type = TopGhost;
},
{
horizontal = 1;
place = (644, 11);
place = (644, 11);
type = Stem;
},
{
horizontal = 1;
place = (795, -62);
place = (795, -62);
type = Stem;
},
{
horizontal = 1;
place = (911, -31);
place = (911, -31);
type = Stem;
},
{
place = (51, -17);
place = (51, -17);
type = Stem;
},
{
place = (221, -18);
place = (221, -18);
type = Stem;
},
{
place = (263, -17);
place = (263, -17);
type = Stem;
},
{
horizontal = 1;
place = (644, -36);
place = (644, -36);
type = Stem;
}
);
layerId = m01;
shapes = (
{
closed = 1;
nodes = (
(395,984,o),
(367,983,o),
(339,979,c),
(345,918,l),
(404,926,o),
(492,940,o),
(506,1019,cs),
(518,1088,o),
(455,1126,o),
(349,1126,cs),
(333,1126,l),
(316,1034,l),
(332,1034,ls),
(369,1034,o),
(403,1034,o),
(399,1008,cs)
);
},
{
closed = 1;
nodes = (
(451,767,o),
(512,809,o),
(528,901,c),
(422,901,l),
(417,870,o),
(389,854,o),
(361,854,cs),
(335,854,o),
(310,868,o),
(316,901,c),
(210,901,l),
(195,815,o),
(233,767,o),
(345,767,cs)
);
},
{
closed = 1;
nodes = (
(385,0,l),
(556,0,l),
(390,697,l),
(275,697,l),
(-138,0,l),
(33,0,l),
(99,118,l),
(361,118,l)
);
},
{
closed = 1;
nodes = (
(179,262,l),
(292,463,l),
(332,262,l)
);
}
);
width = 664;
}
);
note = uni1EB2;
unicode = 7858;
},
{
glyphname = uni1EB4;
kernLeft = A;
kernRight = A;
lastChange = "2022-12-26 08:52:30 +0000";
layers = (
{
hints = (
{
horizontal = 1;
place = (-123, 21);
target = up;
type = BottomGhost;
},
{
horizontal = 1;
place = (-5, 21);
place = (-5, 21);
type = Stem;
},
{
horizontal = 1;
place = (574, -20);
target = down;
type = TopGhost;
},
{
horizontal = 1;
place = (644, 11);
place = (644, 11);
type = Stem;
},
{
horizontal = 1;
place = (892, -31);
place = (892, -31);
type = Stem;
},
{
place = (38, -37);
place = (38, -37);
type = Stem;
},
{
place = (291, -33);
place = (291, -33);
type = Stem;
},
{
horizontal = 1;
place = (833, 26);
place = (833, 26);
type = Stem;
},
{
horizontal = 1;
place = (833, -32);
place = (833, -32);
type = Stem;
},
{
horizontal = 1;
place = (832, 29);
place = (832, 29);
type = Stem;
},
{
horizontal = 1;
place = (644, -36);
place = (644, -36);
type = Stem;
},
{
place = (51, -17);
place = (51, -17);
type = Stem;
},
{
place = (263, -17);
place = (263, -17);
type = Stem;
}
);
layerId = m01;
shapes = (
{
closed = 1;
nodes = (
(351,1015,o),
(363,956,o),
(438,956,cs),
(507,956,o),
(559,1007,o),
(576,1105,c),
(486,1105,l),
(479,1066,o),
(467,1047,o),
(456,1047,cs),
(432,1047,o),
(412,1107,o),
(347,1107,cs),
(277,1107,o),
(224,1052,o),
(206,955,c),
(292,955,l),
(300,995,o),
(311,1015,o),
(324,1015,cs)
);
},
{
closed = 1;
nodes = (
(335,854,o),
(310,868,o),
(316,901,c),
(210,901,l),
(195,815,o),
(233,767,o),
(345,767,cs),
(451,767,o),
(512,809,o),
(528,901,c),
(422,901,l),
(417,870,o),
(389,854,o),
(361,854,cs)
);
},
{
closed = 1;
nodes = (
(385,0,l),
(556,0,l),
(390,697,l),
(275,697,l),
(-138,0,l),
(33,0,l),
(99,118,l),
(361,118,l)
);
},
{
closed = 1;
nodes = (
(179,262,l),
(292,463,l),
(332,262,l)
);
}
);
width = 664;
}
);
note = uni1EB4;
unicode = 7860;
},
{
glyphname = uni01CD;
kernLeft = A;
kernRight = A;
lastChange = "2022-12-26 08:52:30 +0000";
layers = (
{
hints = (
{
horizontal = 1;
place = (-123, 21);
target = up;
type = BottomGhost;
},
{
horizontal = 1;
place = (-5, 21);
place = (-5, 21);
type = Stem;
},
{
horizontal = 1;
place = (574, -20);
target = down;
type = TopGhost;
},
{
place = (-138, 571);
place = (-138, 571);
type = Stem;
}
);
layerId = m01;
shapes = (
{
closed = 1;
nodes = (
(529,901,l),
(415,901,l),
(360,851,l),
(324,901,l),
(209,901,l),
(339,730,l)
);
},
{
closed = 1;
nodes = (
(385,0,l),
(556,0,l),
(390,697,l),
(275,697,l),
(-138,0,l),
(33,0,l),
(99,118,l),
(361,118,l)
);
},
{
closed = 1;
nodes = (
(179,262,l),
(292,463,l),
(332,262,l)
);
}
);
width = 664;
}
);
note = uni01CD;
unicode = 461;
},
{
glyphname = Acircumflex;
kernLeft = A;
kernRight = A;
lastChange = "2022-12-26 08:52:30 +0000";
layers = (
{
hints = (
{
horizontal = 1;
place = (-123, 21);
target = up;
type = BottomGhost;
},
{
horizontal = 1;
place = (-5, 21);
place = (-5, 21);
type = Stem;
},
{
horizontal = 1;
place = (574, -20);
target = down;
type = TopGhost;
},
{
place = (-138, 571);
place = (-138, 571);
type = Stem;
}
);
layerId = m01;
shapes = (
{
closed = 1;
nodes = (
(351,797,l),
(387,741,l),
(501,741,l),
(373,924,l),
(181,741,l),
(295,741,l)
);
},
{
closed = 1;
nodes = (
(385,0,l),
(556,0,l),
(390,697,l),
(275,697,l),
(-138,0,l),
(33,0,l),
(99,118,l),
(361,118,l)
);
},
{
closed = 1;
nodes = (
(179,262,l),
(292,463,l),
(332,262,l)
);
}
);
width = 664;
}
);
note = Acircumflex;
unicode = 194;
},
{
glyphname = uni1EA4;
kernLeft = A;
kernRight = A;
lastChange = "2022-12-26 08:52:30 +0000";
layers = (
{
hints = (
{
horizontal = 1;
place = (-123, 21);
target = up;
type = BottomGhost;
},
{
horizontal = 1;
place = (-5, 21);
place = (-5, 21);
type = Stem;
},
{
horizontal = 1;
place = (574, -20);
target = down;
type = TopGhost;
},
{
horizontal = 1;
place = (822, 20);
place = (822, 20);
type = Stem;
},
{
place = (-138, 571);
place = (-138, 571);
type = Stem;
}
);
layerId = m01;
shapes = (
{
closed = 1;
nodes = (
(622,1088,l),
(460,1088,l),
(322,945,l),
(431,945,l)
);
},
{
closed = 1;
nodes = (
(351,797,l),
(387,741,l),
(501,741,l),
(373,924,l),
(181,741,l),
(295,741,l)
);
},
{
closed = 1;
nodes = (
(385,0,l),
(556,0,l),
(390,697,l),
(275,697,l),
(-138,0,l),
(33,0,l),
(99,118,l),
(361,118,l)
);
},
{
closed = 1;
nodes = (
(179,262,l),
(292,463,l),
(332,262,l)
);
}
);
width = 664;
}
);
note = uni1EA4;
unicode = 7844;
},
{
glyphname = uni1EAC;
kernLeft = A;
kernRight = A;
lastChange = "2022-12-26 08:52:30 +0000";
layers = (
{
hints = (
{
horizontal = 1;
place = (-296, -6);
place = (-296, -6);
type = Stem;
},
{
horizontal = 1;
place = (-123, 21);
target = up;
type = BottomGhost;
},
{
horizontal = 1;
place = (-5, 21);
place = (-5, 21);
type = Stem;
},
{
horizontal = 1;
place = (574, -20);
target = down;
type = TopGhost;
},
{
place = (133, 31);
place = (133, 31);
type = Stem;
}
);
layerId = m01;
shapes = (
{
closed = 1;
nodes = (
(351,797,l),
(387,741,l),
(501,741,l),
(373,924,l),
(181,741,l),
(295,741,l)
);
},
{
closed = 1;
nodes = (
(556,0,l),
(390,697,l),
(275,697,l),
(-138,0,l),
(33,0,l),
(99,118,l),
(361,118,l),
(385,0,l)
);
},
{
closed = 1;
nodes = (
(179,262,l),
(292,463,l),
(332,262,l)
);
},
{
closed = 1;
nodes = (
(103,-173,l),
(257,-173,l),
(277,-56,l),
(123,-56,l)
);
}
);
width = 664;
}
);
note = uni1EAC;
unicode = 7852;
},
{
glyphname = uni1EA6;
kernLeft = A;
kernRight = A;
lastChange = "2022-12-26 08:52:30 +0000";
layers = (
{
hints = (
{
horizontal = 1;
place = (-123, 21);
target = up;
type = BottomGhost;
},
{
horizontal = 1;
place = (-5, 21);
place = (-5, 21);
type = Stem;
},
{
horizontal = 1;
place = (574, -20);
target = down;
type = TopGhost;
},
{
horizontal = 1;
place = (822, 20);
place = (822, 20);
type = Stem;
},
{
place = (-138, 571);
place = (-138, 571);
type = Stem;
}
);
layerId = m01;
shapes = (
{
closed = 1;
nodes = (
(432,945,l),
(353,1088,l),
(193,1088,l),
(321,945,l)
);
},
{
closed = 1;
nodes = (
(181,741,l),
(295,741,l),
(351,797,l),
(387,741,l),
(501,741,l),
(373,924,l)
);
},
{
closed = 1;
nodes = (
(385,0,l),
(556,0,l),
(390,697,l),
(275,697,l),
(-138,0,l),
(33,0,l),
(99,118,l),
(361,118,l)
);
},
{
closed = 1;
nodes = (
(179,262,l),
(292,463,l),
(332,262,l)
);
}
);
width = 664;
}
);
note = uni1EA6;
unicode = 7846;
},
{
glyphname = uni1EA8;
kernLeft = A;
kernRight = A;
lastChange = "2022-12-26 08:52:30 +0000";
layers = (
{
hints = (
{
horizontal = 1;
place = (-123, 21);
target = up;
type = BottomGhost;
},
{
horizontal = 1;
place = (-5, 21);
place = (-5, 21);
type = Stem;
},
{
horizontal = 1;
place = (574, -20);
target = down;
type = TopGhost;
},
{
horizontal = 1;
place = (618, 98);
place = (618, 98);
type = Stem;
},
{
horizontal = 1;
place = (894, -31);
place = (894, -31);
type = Stem;
},
{
place = (221, -18);
place = (221, -18);
type = Stem;
},
{
horizontal = 1;
place = (779, -62);
place = (779, -62);
type = Stem;
}
);
layerId = m01;
shapes = (
{
closed = 1;
nodes = (
(295,741,l),
(351,797,l),
(387,741,l),
(501,741,l),
(384,908,l),
(436,918,o),
(492,940,o),
(503,1002,cs),
(515,1071,o),
(452,1109,o),
(346,1109,cs),
(330,1109,l),
(313,1017,l),
(329,1017,ls),
(366,1017,o),
(400,1017,o),
(396,991,cs),
(392,967,o),
(364,966,o),
(336,962,c),
(342,901,l),
(345,901,o),
(347,902,o),
(350,902,c),
(181,741,l)
);
},
{
closed = 1;
nodes = (
(385,0,l),
(556,0,l),
(390,697,l),
(275,697,l),
(-138,0,l),
(33,0,l),
(99,118,l),
(361,118,l)
);
},
{
closed = 1;
nodes = (
(179,262,l),
(292,463,l),
(332,262,l)
);
}
);
width = 664;
}
);
note = uni1EA8;
unicode = 7848;
},
{
glyphname = uni1EAA;
kernLeft = A;
kernRight = A;
lastChange = "2022-12-26 08:52:30 +0000";
layers = (
{
hints = (
{
horizontal = 1;
place = (-123, 21);
target = up;
type = BottomGhost;
},
{
horizontal = 1;
place = (-5, 21);
place = (-5, 21);
type = Stem;
},
{
horizontal = 1;
place = (574, -20);
target = down;
type = TopGhost;
},
{
horizontal = 1;
place = (875, -31);
place = (875, -31);
type = Stem;
},
{
place = (38, -37);
place = (38, -37);
type = Stem;
},
{
place = (291, -33);
place = (291, -33);
type = Stem;
},
{
horizontal = 1;
place = (816, 26);
place = (816, 26);
type = Stem;
},
{
horizontal = 1;
place = (816, -32);
place = (816, -32);
type = Stem;
},
{
horizontal = 1;
place = (815, 29);
place = (815, 29);
type = Stem;
}
);
layerId = m01;
shapes = (
{
closed = 1;
nodes = (
(348,998,o),
(360,939,o),
(435,939,cs),
(504,939,o),
(556,990,o),
(573,1088,c),
(483,1088,l),
(476,1049,o),
(464,1030,o),
(453,1030,cs),
(429,1030,o),
(409,1090,o),
(344,1090,cs),
(274,1090,o),
(221,1035,o),
(203,938,c),
(289,938,l),
(297,978,o),
(308,998,o),
(321,998,cs)
);
},
{
closed = 1;
nodes = (
(181,741,l),
(295,741,l),
(351,797,l),
(387,741,l),
(501,741,l),
(373,924,l)
);
},
{
closed = 1;
nodes = (
(385,0,l),
(556,0,l),
(390,697,l),
(275,697,l),
(-138,0,l),
(33,0,l),
(99,118,l),
(361,118,l)
);
},
{
closed = 1;
nodes = (
(179,262,l),
(292,463,l),
(332,262,l)
);
}
);
width = 664;
}
);
note = uni1EAA;
unicode = 7850;
},
{
glyphname = Adieresis;
kernLeft = A;
kernRight = A;
lastChange = "2022-12-26 08:52:30 +0000";
layers = (
{
hints = (
{
horizontal = 1;
place = (-123, 21);
target = up;
type = BottomGhost;
},
{
horizontal = 1;
place = (-5, 21);
place = (-5, 21);
type = Stem;
},
{
horizontal = 1;
place = (574, -20);
target = down;
type = TopGhost;
},
{
horizontal = 1;
place = (642, 13);
place = (642, 13);
type = Stem;
},
{
place = (51, -9);
place = (51, -9);
type = Stem;
},
{
place = (255, -9);
place = (255, -9);
type = Stem;
}
);
layerId = m01;
shapes = (
{
closed = 1;
nodes = (
(324,901,l),
(210,901,l),
(186,765,l),
(300,765,l)
);
},
{
closed = 1;
nodes = (
(528,901,l),
(414,901,l),
(390,765,l),
(504,765,l)
);
},
{
closed = 1;
nodes = (
(385,0,l),
(556,0,l),
(390,697,l),
(275,697,l),
(-138,0,l),
(33,0,l),
(99,118,l),
(361,118,l)
);
},
{
closed = 1;
nodes = (
(179,262,l),
(292,463,l),
(332,262,l)
);
}
);
width = 664;
}
);
note = Adieresis;
unicode = 196;
},
{
glyphname = uni1EA0;
kernLeft = A;
kernRight = A;
lastChange = "2022-12-26 08:52:30 +0000";
layers = (
{
hints = (
{
horizontal = 1;
place = (-296, -6);
place = (-296, -6);
type = Stem;
},
{
horizontal = 1;
place = (-123, 21);
target = up;
type = BottomGhost;
},
{
horizontal = 1;
place = (-5, 21);
place = (-5, 21);
type = Stem;
},
{
horizontal = 1;
place = (574, -20);
target = down;
type = TopGhost;
},
{
place = (133, 31);
place = (133, 31);
type = Stem;
}
);
layerId = m01;
shapes = (
{
closed = 1;
nodes = (
(556,0,l),
(390,697,l),
(275,697,l),
(-138,0,l),
(33,0,l),
(99,118,l),
(361,118,l),
(385,0,l)
);
},
{
closed = 1;
nodes = (
(179,262,l),
(292,463,l),
(332,262,l)
);
},
{
closed = 1;
nodes = (
(103,-173,l),
(257,-173,l),
(277,-56,l),
(123,-56,l)
);
}
);
width = 664;
}
);
note = uni1EA0;
unicode = 7840;
},
{
glyphname = Agrave;
kernLeft = A;
kernRight = A;
lastChange = "2022-12-26 08:52:30 +0000";
layers = (
{
hints = (
{
horizontal = 1;
place = (-123, 21);
target = up;
type = BottomGhost;
},
{
horizontal = 1;
place = (-5, 21);
place = (-5, 21);
type = Stem;
},
{
horizontal = 1;
place = (574, -20);
target = down;
type = TopGhost;
},
{
horizontal = 1;
place = (635, 20);
place = (635, 20);
type = Stem;
},
{
place = (-138, 571);
place = (-138, 571);
type = Stem;
}
);
layerId = m01;
shapes = (
{
closed = 1;
nodes = (
(399,758,l),
(320,901,l),
(160,901,l),
(288,758,l)
);
},
{
closed = 1;
nodes = (
(385,0,l),
(556,0,l),
(390,697,l),
(275,697,l),
(-138,0,l),
(33,0,l),
(99,118,l),
(361,118,l)
);
},
{
closed = 1;
nodes = (
(179,262,l),
(292,463,l),
(332,262,l)
);
}
);
width = 664;
}
);
note = Agrave;
unicode = 192;
},
{
glyphname = uni1EA2;
kernLeft = A;
kernRight = A;
lastChange = "2022-12-26 08:52:30 +0000";
layers = (
{
hints = (
{
horizontal = 1;
place = (-123, 21);
target = up;
type = BottomGhost;
},
{
horizontal = 1;
place = (-5, 21);
place = (-5, 21);
type = Stem;
},
{
horizontal = 1;
place = (574, -20);
target = down;
type = TopGhost;
},
{
horizontal = 1;
place = (591, -62);
place = (591, -62);
type = Stem;
},
{
horizontal = 1;
place = (707, -31);
place = (707, -31);
type = Stem;
},
{
place = (221, -18);
place = (221, -18);
type = Stem;
}
);
layerId = m01;
shapes = (
{
closed = 1;
nodes = (
(359,780,o),
(331,779,o),
(303,775,c),
(309,714,l),
(368,722,o),
(456,736,o),
(470,815,cs),
(482,884,o),
(419,922,o),
(313,922,cs),
(297,922,l),
(280,830,l),
(296,830,ls),
(333,830,o),
(367,830,o),
(363,804,cs)
);
},
{
closed = 1;
nodes = (
(385,0,l),
(556,0,l),
(390,697,l),
(275,697,l),
(-138,0,l),
(33,0,l),
(99,118,l),
(361,118,l)
);
},
{
closed = 1;
nodes = (
(179,262,l),
(292,463,l),
(332,262,l)
);
}
);
width = 664;
}
);
note = uni1EA2;
unicode = 7842;
},
{
glyphname = Amacron;
kernLeft = A;
kernRight = A;
lastChange = "2022-12-26 08:52:30 +0000";
layers = (
{
hints = (
{
horizontal = 1;
place = (-123, 21);
target = up;
type = BottomGhost;
},
{
horizontal = 1;
place = (-5, 21);
place = (-5, 21);
type = Stem;
},
{
horizontal = 1;
place = (574, -20);
target = down;
type = TopGhost;
},
{
horizontal = 1;
place = (627, -36);
place = (627, -36);
type = Stem;
},
{
place = (71, 155);
place = (71, 155);
type = Stem;
}
);
layerId = m01;
shapes = (
{
closed = 1;
nodes = (
(497,837,l),
(219,837,l),
(203,750,l),
(481,750,l)
);
},
{
closed = 1;
nodes = (
(385,0,l),
(556,0,l),
(390,697,l),
(275,697,l),
(-138,0,l),
(33,0,l),
(99,118,l),
(361,118,l)
);
},
{
closed = 1;
nodes = (
(179,262,l),
(292,463,l),
(332,262,l)
);
}
);
width = 664;
}
);
note = Amacron;
unicode = 256;
},
{
glyphname = Aogonek;
kernLeft = A;
kernRight = A;
lastChange = "2022-12-26 08:52:30 +0000";
layers = (
{
hints = (
{
horizontal = 1;
place = (-350, -31);
place = (-350, -31);
type = Stem;
},
{
horizontal = 1;
place = (-123, 21);
target = up;
type = BottomGhost;
},
{
horizontal = 1;
place = (-5, 21);
place = (-5, 21);
type = Stem;
},
{
horizontal = 1;
place = (574, -20);
target = down;
type = TopGhost;
},
{
place = (362, -34);
place = (362, -34);
type = Stem;
}
);
layerId = m01;
shapes = (
{
closed = 1;
nodes = (
(507,-107,l),
(495,-124,o),
(480,-135,o),
(459,-135,cs),
(442,-135,o),
(429,-128,o),
(433,-100,cs),
(443,-46,o),
(536,-5,o),
(556,0,c),
(390,697,l),
(275,697,l),
(-138,0,l),
(33,0,l),
(99,118,l),
(361,118,l),
(385,0,l),
(438,0,l),
(410,-14,o),
(353,-49,o),
(342,-116,cs),
(330,-182,o),
(375,-227,o),
(447,-227,cs),
(507,-227,o),
(547,-195,o),
(576,-158,c)
);
},
{
closed = 1;
nodes = (
(179,262,l),
(292,463,l),
(332,262,l)
);
}
);
width = 664;
}
);
note = Aogonek;
unicode = 260;
},
{
glyphname = Aring;
kernLeft = A;
kernRight = A;
lastChange = "2022-12-26 08:52:30 +0000";
layers = (
{
hints = (
{
horizontal = 1;
place = (-123, 21);
target = up;
type = BottomGhost;
},
{
horizontal = 1;
place = (-5, 21);
place = (-5, 21);
type = Stem;
},
{
horizontal = 1;
place = (719, -43);
place = (719, -43);
type = Stem;
},
{
place = (86, -42);
place = (86, -42);
type = Stem;
},
{
place = (254, -43);
place = (254, -43);
type = Stem;
}
);
layerId = m01;
shapes = (
{
closed = 1;
nodes = (
(385,0,l),
(556,0,l),
(392,690,l),
(433,711,o),
(467,751,o),
(475,798,cs),
(487,868,o),
(439,922,o),
(373,922,cs),
(304,922,o),
(239,866,o),
(227,798,cs),
(219,754,o),
(237,712,o),
(271,690,c),
(-138,0,l),
(33,0,l),
(99,118,l),
(361,118,l)
);
},
{
closed = 1;
nodes = (
(388,842,o),
(400,825,o),
(395,800,cs),
(390,773,o),
(370,754,o),
(343,754,cs),
(318,754,o),
(303,773,o),
(308,800,cs),
(312,824,o),
(331,842,o),
(359,842,cs)
);
},
{
closed = 1;
nodes = (
(179,262,l),
(292,463,l),
(332,262,l)
);
}
);
width = 664;
}
);
note = Aring;
unicode = 197;
},
{
glyphname = Atilde;
kernLeft = A;
kernRight = A;
lastChange = "2022-12-26 08:52:30 +0000";
layers = (
{
hints = (
{
horizontal = 1;
place = (-123, 21);
target = up;
type = BottomGhost;
},
{
horizontal = 1;
place = (-5, 21);
place = (-5, 21);
type = Stem;
},
{
horizontal = 1;
place = (574, -20);
target = down;
type = TopGhost;
},
{
horizontal = 1;
place = (688, -31);
place = (688, -31);
type = Stem;
},
{
place = (38, -37);
place = (38, -37);
type = Stem;
},
{
place = (291, -33);
place = (291, -33);
type = Stem;
},
{
horizontal = 1;
place = (629, 26);
place = (629, 26);
type = Stem;
},
{
horizontal = 1;
place = (629, -32);
place = (629, -32);
type = Stem;
},
{
horizontal = 1;
place = (628, 29);
place = (628, 29);
type = Stem;
}
);
layerId = m01;
shapes = (
{
closed = 1;
nodes = (
(315,811,o),
(327,752,o),
(402,752,cs),
(471,752,o),
(523,803,o),
(540,901,c),
(450,901,l),
(443,862,o),
(431,843,o),
(420,843,cs),
(396,843,o),
(376,903,o),
(311,903,cs),
(241,903,o),
(188,848,o),
(171,751,c),
(257,751,l),
(264,791,o),
(275,811,o),
(288,811,cs)
);
},
{
closed = 1;
nodes = (
(385,0,l),
(556,0,l),
(390,697,l),
(275,697,l),
(-138,0,l),
(33,0,l),
(99,118,l),
(361,118,l)
);
},
{
closed = 1;
nodes = (
(179,262,l),
(292,463,l),
(332,262,l)
);
}
);
width = 664;
}
);
note = Atilde;
unicode = 195;
},
{
glyphname = AE;
kernLeft = A;
lastChange = "2022-12-26 08:52:30 +0000";
layers = (
{
hints = (
{
horizontal = 1;
place = (-123, 19);
place = (-123, 19);
type = Stem;
},
{
horizontal = 1;
place = (159, 9);
place = (159, 9);
type = Stem;
},
{
horizontal = 1;
place = (436, 15);
place = (436, 15);
type = Stem;
},
{
place = (273, 35);
place = (273, 35);
type = Stem;
},
{
horizontal = 1;
place = (20, 27);
place = (20, 27);
type = Stem;
}
);
layerId = m01;
shapes = (
{
closed = 1;
nodes = (
(-138,0,l),
(33,0,l),
(112,143,l),
(298,143,l),
(273,0,l),
(763,0,l),
(788,142,l),
(456,142,l),
(481,282,l),
(774,282,l),
(797,414,l),
(504,414,l),
(530,559,l),
(862,559,l),
(886,697,l),
(274,697,l)
);
},
{
closed = 1;
nodes = (
(193,293,l),
(344,559,l),
(372,559,l),
(325,293,l)
);
}
);
width = 929;
}
);
note = AE;
unicode = 198;
},
{
glyphname = B;
kernLeft = B;
kernRight = B;
lastChange = "2022-12-26 08:52:30 +0000";
layers = (
{
hints = (
{
horizontal = 1;
place = (-123, 21);
place = (-123, 21);
type = Stem;
},
{
horizontal = 1;
place = (166, 24);
place = (166, 24);
type = Stem;
},
{
horizontal = 1;
place = (430, 21);
place = (430, 21);
type = Stem;
},
{
place = (-52, 34);
place = (-52, 34);
type = Stem;
},
{
place = (318, 34);
place = (318, 34);
type = Stem;
},
{
place = (280, 34);
place = (280, 34);
type = Stem;
}
);
layerId = m01;
shapes = (
{
closed = 1;
nodes = (
(-52,0,l),
(245,0,ls),
(387,0,o),
(489,80,o),
(512,209,cs),
(526,290,o),
(503,347,o),
(436,379,c),
(484,409,o),
(518,459,o),
(529,520,cs),
(548,630,o),
(474,697,o),
(331,697,cs),
(86,697,ls),
(78,697,o),
(70,690,o),
(68,682,cs)
);
},
{
closed = 1;
nodes = (
(182,436,l),
(203,553,l),
(306,553,ls),
(350,553,o),
(375,537,o),
(368,498,cs),
(360,455,o),
(329,436,o),
(285,436,cs)
);
},
{
closed = 1;
nodes = (
(130,144,l),
(156,289,l),
(283,289,ls),
(307,289,o),
(369,289,o),
(356,216,cs),
(348,172,o),
(320,144,o),
(257,144,cs)
);
}
);
width = 619;
}
);
note = B;
unicode = 66;
},
{
glyphname = C;
kernLeft = C;
kernRight = C;
lastChange = "2022-12-26 08:52:30 +0000";
layers = (
{
hints = (
{
horizontal = 1;
place = (-141, 27);
place = (-141, 27);
type = Stem;
},
{
horizontal = 1;
place = (444, 27);
place = (444, 27);
type = Stem;
},
{
place = (-102, 34);
place = (-102, 34);
type = Stem;
}
);
layerId = m01;
shapes = (
{
closed = 1;
nodes = (
(470,253,o),
(452,226,qs),
(422,179,o),
(329,132,o),
(272,132,qs),
(181,132,o),
(98,245,o),
(117,350,qs),
(135,455,o),
(255,567,o),
(346,567,qs),
(402,567,o),
(479,522,o),
(495,476,qs),
(504,449,o),
(532,459,qs),
(657,505,l),
(637,605,o),
(491,717,o),
(373,717,qs),
(295,717,o),
(156,664,o),
(48,568,o),
(-26,432,o),
(-41,348,qs),
(-55,265,o),
(-29,130,o),
(46,34,o),
(167,-18,o),
(246,-18,qs),
(363,-18,o),
(549,93,o),
(605,198,q),
(494,243,ls)
);
}
);
width = 697;
}
);
note = C;
unicode = 67;
},
{
glyphname = Cacute;
kernLeft = C;
kernRight = C;
lastChange = "2022-12-26 08:52:30 +0000";
layers = (
{
hints = (
{
horizontal = 1;
place = (-141, 27);
place = (-141, 27);
type = Stem;
},
{
horizontal = 1;
place = (444, 27);
place = (444, 27);
type = Stem;
},
{
horizontal = 1;
place = (635, 20);
place = (635, 20);
type = Stem;
},
{
place = (-102, 34);
place = (-102, 34);
type = Stem;
}
);
layerId = m01;
shapes = (
{
closed = 1;
nodes = (
(331,758,l),
(440,758,l),
(631,901,l),
(469,901,l)
);
},
{
closed = 1;
nodes = (
(401,-18,o),
(532,59,o),
(605,198,c),
(468,254,l),
(430,173,o),
(359,132,o),
(272,132,cs),
(151,132,o),
(92,211,o),
(117,350,cs),
(141,489,o),
(226,567,o),
(346,567,cs),
(431,567,o),
(489,527,o),
(502,448,c),
(657,505,l),
(629,637,o),
(529,717,o),
(373,717,cs),
(164,717,o),
(-1,571,o),
(-41,348,cs),
(-80,127,o),
(35,-18,o),
(246,-18,cs)
);
}
);
width = 697;
}
);
note = Cacute;
unicode = 262;
},
{
glyphname = Ccaron;
kernLeft = C;
kernRight = C;
lastChange = "2022-12-26 08:52:30 +0000";
layers = (
{
hints = (
{
horizontal = 1;
place = (-141, 27);
place = (-141, 27);
type = Stem;
},
{
horizontal = 1;
place = (444, 27);
place = (444, 27);
type = Stem;
},
{
place = (-102, 34);
place = (-102, 34);
type = Stem;
}
);
layerId = m01;
shapes = (
{
closed = 1;
nodes = (
(381,730,l),
(571,901,l),
(457,901,l),
(402,851,l),
(366,901,l),
(251,901,l)
);
},
{
closed = 1;
nodes = (
(401,-18,o),
(532,59,o),
(605,198,c),
(468,254,l),
(430,173,o),
(359,132,o),
(272,132,cs),
(151,132,o),
(92,211,o),
(117,350,cs),
(141,489,o),
(226,567,o),
(346,567,cs),
(431,567,o),
(489,527,o),
(502,448,c),
(657,505,l),
(629,637,o),
(529,717,o),
(373,717,cs),
(164,717,o),
(-1,571,o),
(-41,348,cs),
(-80,127,o),
(35,-18,o),
(246,-18,cs)
);
}
);
width = 697;
}
);
note = Ccaron;
unicode = 268;
},
{
glyphname = Ccedilla;
kernLeft = C;
kernRight = C;
lastChange = "2022-12-26 08:52:30 +0000";
layers = (
{
hints = (
{
horizontal = 1;
place = (-383, -38);
place = (-383, -38);
type = Stem;
},
{
horizontal = 1;
place = (-138, 21);
target = up;
type = BottomGhost;
},
{
horizontal = 1;
place = (444, 27);
place = (444, 27);
type = Stem;
},
{
place = (-102, 34);
place = (-102, 34);
type = Stem;
},
{
place = (252, -36);
place = (252, -36);
type = Stem;
}
);
layerId = m01;
shapes = (
{
closed = 1;
nodes = (
(468,254,l),
(430,173,o),
(359,132,o),
(272,132,cs),
(151,132,o),
(92,211,o),
(117,350,cs),
(141,489,o),
(226,567,o),
(346,567,cs),
(431,567,o),
(489,527,o),
(502,448,c),
(657,505,l),
(629,637,o),
(529,717,o),
(373,717,cs),
(164,717,o),
(-1,571,o),
(-41,348,cs),
(-76,146,o),
(16,7,o),
(194,-15,c),
(127,-97,l),
(154,-97,o),
(177,-97,o),
(197,-103,cs),
(218,-109,o),
(231,-121,o),
(227,-144,cs),
(223,-165,o),
(207,-175,o),
(188,-175,cs),
(177,-175,o),
(165,-171,o),
(153,-164,c),
(94,-237,l),
(124,-258,o),
(155,-260,o),
(169,-260,cs),
(243,-260,o),
(303,-206,o),
(315,-138,cs),
(320,-108,o),
(315,-80,o),
(294,-61,cs),
(284,-52,o),
(269,-44,o),
(251,-40,c),
(276,-17,l),
(418,-8,o),
(536,68,o),
(605,198,c)
);
}
);
width = 697;
}
);
note = Ccedilla;
unicode = 199;
},
{
glyphname = Cdotaccent;
kernLeft = C;
kernRight = C;
lastChange = "2022-12-26 08:52:30 +0000";
layers = (
{
hints = (
{
horizontal = 1;
place = (-141, 27);
place = (-141, 27);
type = Stem;
},
{
horizontal = 1;
place = (444, 27);
place = (444, 27);
type = Stem;
},
{
horizontal = 1;
place = (642, 13);
place = (642, 13);
type = Stem;
},
{
place = (-102, 34);
place = (-102, 34);
type = Stem;
},
{
place = (175, 31);
place = (175, 31);
type = Stem;
}
);
layerId = m01;
shapes = (
{
closed = 1;
nodes = (
(310,765,l),
(464,765,l),
(488,901,l),
(334,901,l)
);
},
{
closed = 1;
nodes = (
(401,-18,o),
(532,59,o),
(605,198,c),
(468,254,l),
(430,173,o),
(359,132,o),
(272,132,cs),
(151,132,o),
(92,211,o),
(117,350,cs),
(141,489,o),
(226,567,o),
(346,567,cs),
(431,567,o),
(489,527,o),
(502,448,c),
(657,505,l),
(629,637,o),
(529,717,o),
(373,717,cs),
(164,717,o),
(-1,571,o),
(-41,348,cs),
(-80,127,o),
(35,-18,o),
(246,-18,cs)
);
}
);
width = 697;
}
);
note = Cdotaccent;
unicode = 266;
},
{
glyphname = D;
kernLeft = B;
kernRight = D;
lastChange = "2022-12-26 08:52:30 +0000";
layers = (
{
hints = (
{
horizontal = 1;
place = (-123, 21);
place = (-123, 21);
type = Stem;
},
{
horizontal = 1;
place = (430, 21);
place = (430, 21);
type = Stem;
},
{
place = (-52, 34);
place = (-52, 34);
type = Stem;
},
{
place = (367, 35);
place = (367, 35);
type = Stem;
}
);
layerId = m01;
shapes = (
{
closed = 1;
nodes = (
(71,697,o),
(66,667,qs),
(-52,0,l),
(157,0,ls),
(337,0,o),
(556,175,o),
(586,343,qs),
(616,513,o),
(456,697,o),
(281,697,qs),
(101,697,ls)
);
},
{
closed = 1;
nodes = (
(203,553,l),
(253,553,ls),
(302,553,o),
(377,535,o),
(424,489,o),
(439,410,o),
(429,349,qs),
(418,286,o),
(372,206,o),
(306,161,o),
(219,144,o),
(166,144,qs),
(130,144,l)
);
}
);
width = 668;
}
);
note = D;
unicode = 68;
},
{
glyphname = Eth;
kernLeft = B;
kernRight = D;
lastChange = "2022-12-26 08:52:30 +0000";
layers = (
{
hints = (
{
horizontal = 1;
place = (-123, 21);
place = (-123, 21);
type = Stem;
},
{
horizontal = 1;
place = (176, -23);
place = (176, -23);
type = Stem;
},
{
horizontal = 1;
place = (430, 21);
place = (430, 21);
type = Stem;
},
{
place = (-52, 34);
place = (-52, 34);
type = Stem;
},
{
place = (367, 35);
place = (367, 35);
type = Stem;
}
);
layerId = m01;
shapes = (
{
closed = 1;
nodes = (
(71,697,l),
(18,399,l),
(-64,399,l),
(-81,299,l),
(1,299,l),
(-52,0,l),
(157,0,ls),
(395,0,o),
(546,121,o),
(586,343,cs),
(625,569,o),
(514,697,o),
(281,697,cs)
);
},
{
closed = 1;
nodes = (
(130,144,l),
(158,299,l),
(274,299,l),
(291,399,l),
(175,399,l),
(203,553,l),
(253,553,ls),
(384,553,o),
(457,511,o),
(429,349,cs),
(399,181,o),
(308,144,o),
(166,144,cs)
);
}
);
width = 668;
}
);
note = Eth;
unicode = 208;
},
{
glyphname = Dcaron;
kernLeft = B;
kernRight = D;
lastChange = "2022-12-26 08:52:30 +0000";
layers = (
{
hints = (
{
horizontal = 1;
place = (-123, 21);
place = (-123, 21);
type = Stem;
},
{
horizontal = 1;
place = (430, 21);
place = (430, 21);
type = Stem;
},
{
place = (-52, 34);
place = (-52, 34);
type = Stem;
},
{
place = (367, 35);
place = (367, 35);
type = Stem;
}
);
layerId = m01;
shapes = (
{
closed = 1;
nodes = (
(340,730,l),
(530,901,l),
(416,901,l),
(361,851,l),
(325,901,l),
(210,901,l)
);
},
{
closed = 1;
nodes = (
(-52,0,l),
(157,0,ls),
(395,0,o),
(546,121,o),
(586,343,cs),
(625,569,o),
(514,697,o),
(281,697,cs),
(71,697,l)
);
},
{
closed = 1;
nodes = (
(130,144,l),
(203,553,l),
(253,553,ls),
(384,553,o),
(457,511,o),
(429,349,cs),
(399,181,o),
(308,144,o),
(166,144,cs)
);
}
);
width = 668;
}
);
note = Dcaron;
unicode = 270;
},
{
glyphname = Dcroat;
kernLeft = B;
kernRight = D;
lastChange = "2022-12-26 08:52:30 +0000";
layers = (
{
hints = (
{
horizontal = 1;
place = (-123, 21);
place = (-123, 21);
type = Stem;
},
{
horizontal = 1;
place = (176, -23);
place = (176, -23);
type = Stem;
},
{
horizontal = 1;
place = (430, 21);
place = (430, 21);
type = Stem;
},
{
place = (-52, 34);
place = (-52, 34);
type = Stem;
},
{
place = (367, 35);
place = (367, 35);
type = Stem;
}
);
layerId = m01;
shapes = (
{
closed = 1;
nodes = (
(71,697,l),
(18,399,l),
(-64,399,l),
(-81,299,l),
(1,299,l),
(-52,0,l),
(157,0,ls),
(395,0,o),
(546,121,o),
(586,343,cs),
(625,569,o),
(514,697,o),
(281,697,cs)
);
},
{
closed = 1;
nodes = (
(130,144,l),
(158,299,l),
(274,299,l),
(291,399,l),
(175,399,l),
(203,553,l),
(253,553,ls),
(384,553,o),
(457,511,o),
(429,349,cs),
(399,181,o),
(308,144,o),
(166,144,cs)
);
}
);
width = 668;
}
);
note = Dcroat;
unicode = 272;
},
{
glyphname = E;
kernLeft = B;
lastChange = "2022-12-26 08:52:30 +0000";
layers = (
{
hints = (
{
horizontal = 1;
place = (-123, 21);
place = (-123, 21);
type = Stem;
},
{
horizontal = 1;
place = (165, 22);
place = (165, 22);
type = Stem;
},
{
horizontal = 1;
place = (430, 21);
place = (430, 21);
type = Stem;
},
{
place = (-52, 34);
place = (-52, 34);
type = Stem;
}
);
layerId = m01;
shapes = (
{
closed = 1;
nodes = (
(477,433,o),
(447,433,qs),
(181,433,l),
(203,553,l),
(514,553,l),
(539,697,l),
(71,697,l),
(-52,0,l),
(416,0,l),
(441,144,l),
(130,144,l),
(156,288,l),
(452,288,l),
(472,403,ls)
);
}
);
width = 592;
}
);
note = E;
unicode = 69;
},
{
glyphname = Eacute;
kernLeft = B;
lastChange = "2022-12-26 08:52:30 +0000";
layers = (
{
hints = (
{
horizontal = 1;
place = (-123, 21);
place = (-123, 21);
type = Stem;
},
{
horizontal = 1;
place = (165, 22);
place = (165, 22);
type = Stem;
},
{
horizontal = 1;
place = (430, 21);
place = (430, 21);
type = Stem;
},
{
horizontal = 1;
place = (635, 20);
place = (635, 20);
type = Stem;
},
{
place = (-52, 34);
place = (-52, 34);
type = Stem;
}
);
layerId = m01;
shapes = (
{
closed = 1;
nodes = (
(261,758,l),
(370,758,l),
(561,901,l),
(399,901,l)
);
},
{
closed = 1;
nodes = (
(-52,0,l),
(416,0,l),
(441,144,l),
(130,144,l),
(156,288,l),
(452,288,l),
(477,433,l),
(181,433,l),
(203,553,l),
(514,553,l),
(539,697,l),
(71,697,l)
);
}
);
width = 592;
}
);
note = Eacute;
unicode = 201;
},
{
glyphname = Ecaron;
kernLeft = B;
lastChange = "2022-12-26 08:52:30 +0000";
layers = (
{
hints = (
{
horizontal = 1;
place = (-123, 21);
place = (-123, 21);
type = Stem;
},
{
horizontal = 1;
place = (165, 22);
place = (165, 22);
type = Stem;
},
{
horizontal = 1;
place = (430, 21);
place = (430, 21);
type = Stem;
},
{
place = (-52, 34);
place = (-52, 34);
type = Stem;
}
);
layerId = m01;
shapes = (
{
closed = 1;
nodes = (
(311,730,l),
(501,901,l),
(387,901,l),
(332,851,l),
(296,901,l),
(181,901,l)
);
},
{
closed = 1;
nodes = (
(-52,0,l),
(416,0,l),
(441,144,l),
(130,144,l),
(156,288,l),
(452,288,l),
(477,433,l),
(181,433,l),
(203,553,l),
(514,553,l),
(539,697,l),
(71,697,l)
);
}
);
width = 592;
}
);
note = Ecaron;
unicode = 282;
},
{
glyphname = Ecircumflex;
kernLeft = B;
lastChange = "2022-12-26 08:52:30 +0000";
layers = (
{
hints = (
{
horizontal = 1;
place = (-123, 21);
place = (-123, 21);
type = Stem;
},
{
horizontal = 1;
place = (165, 22);
place = (165, 22);
type = Stem;
},
{
horizontal = 1;
place = (430, 21);
place = (430, 21);
type = Stem;
},
{
place = (-52, 34);
place = (-52, 34);
type = Stem;
}
);
layerId = m01;
shapes = (
{
closed = 1;
nodes = (
(153,741,l),
(267,741,l),
(323,797,l),
(359,741,l),
(473,741,l),
(345,924,l)
);
},
{
closed = 1;
nodes = (
(-52,0,l),
(416,0,l),
(441,144,l),
(130,144,l),
(156,288,l),
(452,288,l),
(477,433,l),
(181,433,l),
(203,553,l),
(514,553,l),
(539,697,l),
(71,697,l)
);
}
);
width = 592;
}
);
note = Ecircumflex;
unicode = 202;
},
{
glyphname = uni1EBE;
kernLeft = B;
lastChange = "2022-12-26 08:52:30 +0000";
layers = (
{
hints = (
{
horizontal = 1;
place = (-123, 21);
place = (-123, 21);
type = Stem;
},
{
horizontal = 1;
place = (165, 22);
place = (165, 22);
type = Stem;
},
{
horizontal = 1;
place = (430, 21);
place = (430, 21);
type = Stem;
},
{
horizontal = 1;
place = (822, 20);
place = (822, 20);
type = Stem;
},
{
place = (-52, 34);
place = (-52, 34);
type = Stem;
}
);
layerId = m01;
shapes = (
{
closed = 1;
nodes = (
(294,945,l),
(403,945,l),
(594,1088,l),
(432,1088,l)
);
},
{
closed = 1;
nodes = (
(153,741,l),
(267,741,l),
(323,797,l),
(359,741,l),
(473,741,l),
(345,924,l)
);
},
{
closed = 1;
nodes = (
(-52,0,l),
(416,0,l),
(441,144,l),
(130,144,l),
(156,288,l),
(452,288,l),
(477,433,l),
(181,433,l),
(203,553,l),
(514,553,l),
(539,697,l),
(71,697,l)
);
}
);
width = 592;
}
);
note = uni1EBE;
unicode = 7870;
},
{
glyphname = uni1EC6;
kernLeft = B;
lastChange = "2022-12-26 08:52:30 +0000";
layers = (
{
hints = (
{
horizontal = 1;
place = (-296, -6);
place = (-296, -6);
type = Stem;
},
{
horizontal = 1;
place = (-123, 21);
place = (-123, 21);
type = Stem;
},
{
horizontal = 1;
place = (165, 22);
place = (165, 22);
type = Stem;
},
{
horizontal = 1;
place = (430, 21);
place = (430, 21);
type = Stem;
},
{
place = (-52, 34);
place = (-52, 34);
type = Stem;
},
{
place = (105, 31);
place = (105, 31);
type = Stem;
}
);
layerId = m01;
shapes = (
{
closed = 1;
nodes = (
(153,741,l),
(267,741,l),
(323,797,l),
(359,741,l),
(473,741,l),
(345,924,l)
);
},
{
closed = 1;
nodes = (
(-52,0,l),
(416,0,l),
(441,144,l),
(130,144,l),
(156,288,l),
(452,288,l),
(477,433,l),
(181,433,l),
(203,553,l),
(514,553,l),
(539,697,l),
(71,697,l)
);
},
{
closed = 1;
nodes = (
(75,-173,l),
(229,-173,l),
(249,-56,l),
(95,-56,l)
);
}
);
width = 592;
}
);
note = uni1EC6;
unicode = 7878;
},
{
glyphname = uni1EC0;
kernLeft = B;
lastChange = "2022-12-26 08:52:30 +0000";
layers = (
{
hints = (
{
horizontal = 1;
place = (-123, 21);
place = (-123, 21);
type = Stem;
},
{
horizontal = 1;
place = (165, 22);
place = (165, 22);
type = Stem;
},
{
horizontal = 1;
place = (430, 21);
place = (430, 21);
type = Stem;
},
{
horizontal = 1;
place = (822, 20);
place = (822, 20);
type = Stem;
},
{
place = (-52, 34);
place = (-52, 34);
type = Stem;
}
);
layerId = m01;
shapes = (
{
closed = 1;
nodes = (
(293,945,l),
(404,945,l),
(325,1088,l),
(165,1088,l)
);
},
{
closed = 1;
nodes = (
(153,741,l),
(267,741,l),
(323,797,l),
(359,741,l),
(473,741,l),
(345,924,l)
);
},
{
closed = 1;
nodes = (
(-52,0,l),
(416,0,l),
(441,144,l),
(130,144,l),
(156,288,l),
(452,288,l),
(477,433,l),
(181,433,l),
(203,553,l),
(514,553,l),
(539,697,l),
(71,697,l)
);
}
);
width = 592;
}
);
note = uni1EC0;
unicode = 7872;
},
{
glyphname = uni1EC2;
kernLeft = B;
lastChange = "2022-12-26 08:52:30 +0000";
layers = (
{
hints = (
{
horizontal = 1;
place = (-123, 21);
place = (-123, 21);
type = Stem;
},
{
horizontal = 1;
place = (165, 22);
place = (165, 22);
type = Stem;
},
{
horizontal = 1;
place = (430, 21);
place = (430, 21);
type = Stem;
},
{
horizontal = 1;
place = (618, 98);
place = (618, 98);
type = Stem;
},
{
horizontal = 1;
place = (894, -31);
place = (894, -31);
type = Stem;
},
{
place = (-52, 34);
place = (-52, 34);
type = Stem;
},
{
place = (193, -18);
place = (193, -18);
type = Stem;
},
{
horizontal = 1;
place = (779, -62);
place = (779, -62);
type = Stem;
}
);
layerId = m01;
shapes = (
{
closed = 1;
nodes = (
(267,741,l),
(323,797,l),
(359,741,l),
(473,741,l),
(356,908,l),
(408,918,o),
(464,940,o),
(475,1002,cs),
(487,1071,o),
(424,1109,o),
(318,1109,cs),
(302,1109,l),
(285,1017,l),
(301,1017,ls),
(338,1017,o),
(372,1017,o),
(368,991,cs),
(364,967,o),
(336,966,o),
(308,962,c),
(314,901,l),
(317,901,o),
(319,902,o),
(322,902,c),
(153,741,l)
);
},
{
closed = 1;
nodes = (
(514,553,l),
(539,697,l),
(71,697,l),
(-52,0,l),
(416,0,l),
(441,144,l),
(130,144,l),
(156,288,l),
(452,288,l),
(477,433,l),
(181,433,l),
(203,553,l)
);
}
);
width = 592;
}
);
note = uni1EC2;
unicode = 7874;
},
{
glyphname = uni1EC4;
kernLeft = B;
lastChange = "2022-12-26 08:52:30 +0000";
layers = (
{
hints = (
{
horizontal = 1;
place = (-123, 21);
place = (-123, 21);
type = Stem;
},
{
horizontal = 1;
place = (165, 22);
place = (165, 22);
type = Stem;
},
{
horizontal = 1;
place = (430, 21);
place = (430, 21);
type = Stem;
},
{
horizontal = 1;
place = (816, 26);
place = (816, 26);
type = Stem;
},
{
place = (-52, 34);
place = (-52, 34);
type = Stem;
},
{
place = (263, -33);
place = (263, -33);
type = Stem;
},
{
horizontal = 1;
place = (816, -32);
place = (816, -32);
type = Stem;
},
{
horizontal = 1;
place = (815, 29);
place = (815, 29);
type = Stem;
},
{
place = (10, -37);
place = (10, -37);
type = Stem;
},
{
horizontal = 1;
place = (875, -31);
place = (875, -31);
type = Stem;
}
);
layerId = m01;
shapes = (
{
closed = 1;
nodes = (
(476,939,o),
(528,990,o),
(545,1088,c),
(455,1088,l),
(448,1049,o),
(436,1030,o),
(425,1030,cs),
(401,1030,o),
(381,1090,o),
(316,1090,cs),
(246,1090,o),
(193,1035,o),
(175,938,c),
(261,938,l),
(269,978,o),
(280,998,o),
(293,998,cs),
(320,998,o),
(332,939,o),
(407,939,cs)
);
},
{
closed = 1;
nodes = (
(153,741,l),
(267,741,l),
(323,797,l),
(359,741,l),
(473,741,l),
(345,924,l)
);
},
{
closed = 1;
nodes = (
(-52,0,l),
(416,0,l),
(441,144,l),
(130,144,l),
(156,288,l),
(452,288,l),
(477,433,l),
(181,433,l),
(203,553,l),
(514,553,l),
(539,697,l),
(71,697,l)
);
}
);
width = 592;
}
);
note = uni1EC4;
unicode = 7876;
},
{
glyphname = Edieresis;
kernLeft = B;
lastChange = "2022-12-26 08:52:30 +0000";
layers = (
{
hints = (
{
horizontal = 1;
place = (-123, 21);
place = (-123, 21);
type = Stem;
},
{
horizontal = 1;
place = (165, 22);
place = (165, 22);
type = Stem;
},
{
horizontal = 1;
place = (430, 21);
place = (430, 21);
type = Stem;
},
{
horizontal = 1;
place = (642, 13);
place = (642, 13);
type = Stem;
},
{
place = (23, -9);
place = (23, -9);
type = Stem;
},
{
place = (227, -9);
place = (227, -9);
type = Stem;
},
{
place = (-52, 34);
place = (-52, 34);
type = Stem;
}
);
layerId = m01;
shapes = (
{
closed = 1;
nodes = (
(158,765,l),
(272,765,l),
(296,901,l),
(182,901,l)
);
},
{
closed = 1;
nodes = (
(362,765,l),
(476,765,l),
(500,901,l),
(386,901,l)
);
},
{
closed = 1;
nodes = (
(-52,0,l),
(416,0,l),
(441,144,l),
(130,144,l),
(156,288,l),
(452,288,l),
(477,433,l),
(181,433,l),
(203,553,l),
(514,553,l),
(539,697,l),
(71,697,l)
);
}
);
width = 592;
}
);
note = Edieresis;
unicode = 203;
},
{
glyphname = Edotaccent;
kernLeft = B;
lastChange = "2022-12-26 08:52:30 +0000";
layers = (
{
hints = (
{
horizontal = 1;
place = (-123, 21);
place = (-123, 21);
type = Stem;
},
{
horizontal = 1;
place = (165, 22);
place = (165, 22);
type = Stem;
},
{
horizontal = 1;
place = (430, 21);
place = (430, 21);
type = Stem;
},
{
horizontal = 1;
place = (642, 13);
place = (642, 13);
type = Stem;
},
{
place = (105, 31);
place = (105, 31);
type = Stem;
},
{
place = (-52, 34);
place = (-52, 34);
type = Stem;
}
);
layerId = m01;
shapes = (
{
closed = 1;
nodes = (
(240,765,l),
(394,765,l),
(418,901,l),
(264,901,l)
);
},
{
closed = 1;
nodes = (
(-52,0,l),
(416,0,l),
(441,144,l),
(130,144,l),
(156,288,l),
(452,288,l),
(477,433,l),
(181,433,l),
(203,553,l),
(514,553,l),
(539,697,l),
(71,697,l)
);
}
);
width = 592;
}
);
note = Edotaccent;
unicode = 278;
},
{
glyphname = uni1EB8;
kernLeft = B;
lastChange = "2022-12-26 08:52:30 +0000";
layers = (
{
hints = (
{
horizontal = 1;
place = (-296, -6);
place = (-296, -6);
type = Stem;
},
{
horizontal = 1;
place = (-123, 21);
place = (-123, 21);
type = Stem;
},
{
horizontal = 1;
place = (165, 22);
place = (165, 22);
type = Stem;
},
{
horizontal = 1;
place = (430, 21);
place = (430, 21);
type = Stem;
},
{
place = (-52, 34);
place = (-52, 34);
type = Stem;
},
{
place = (105, 31);
place = (105, 31);
type = Stem;
}
);
layerId = m01;
shapes = (
{
closed = 1;
nodes = (
(-52,0,l),
(416,0,l),
(441,144,l),
(130,144,l),
(156,288,l),
(452,288,l),
(477,433,l),
(181,433,l),
(203,553,l),
(514,553,l),
(539,697,l),
(71,697,l)
);
},
{
closed = 1;
nodes = (
(75,-173,l),
(229,-173,l),
(249,-56,l),
(95,-56,l)
);
}
);
width = 592;
}
);
note = uni1EB8;
unicode = 7864;
},
{
glyphname = Egrave;
kernLeft = B;
lastChange = "2022-12-26 08:52:30 +0000";
layers = (
{
hints = (
{
horizontal = 1;
place = (-123, 21);
place = (-123, 21);
type = Stem;
},
{
horizontal = 1;
place = (165, 22);
place = (165, 22);
type = Stem;
},
{
horizontal = 1;
place = (430, 21);
place = (430, 21);
type = Stem;
},
{
horizontal = 1;
place = (635, 20);
place = (635, 20);
type = Stem;
},
{
place = (-52, 34);
place = (-52, 34);
type = Stem;
}
);
layerId = m01;
shapes = (
{
closed = 1;
nodes = (
(260,758,l),
(371,758,l),
(292,901,l),
(132,901,l)
);
},
{
closed = 1;
nodes = (
(-52,0,l),
(416,0,l),
(441,144,l),
(130,144,l),
(156,288,l),
(452,288,l),
(477,433,l),
(181,433,l),
(203,553,l),
(514,553,l),
(539,697,l),
(71,697,l)
);
}
);
width = 592;
}
);
note = Egrave;
unicode = 200;
},
{
glyphname = uni1EBA;
kernLeft = B;
lastChange = "2022-12-26 08:52:30 +0000";
layers = (
{
hints = (
{
horizontal = 1;
place = (-123, 21);
place = (-123, 21);
type = Stem;
},
{
horizontal = 1;
place = (165, 22);
place = (165, 22);
type = Stem;
},
{
horizontal = 1;
place = (430, 21);
place = (430, 21);
type = Stem;
},
{
horizontal = 1;
place = (591, -62);
place = (591, -62);
type = Stem;
},
{
horizontal = 1;
place = (707, -31);
place = (707, -31);
type = Stem;
},
{
place = (-52, 34);
place = (-52, 34);
type = Stem;
},
{
place = (193, -18);
place = (193, -18);
type = Stem;
}
);
layerId = m01;
shapes = (
{
closed = 1;
nodes = (
(281,714,l),
(340,722,o),
(428,736,o),
(442,815,cs),
(454,884,o),
(391,922,o),
(285,922,cs),
(269,922,l),
(252,830,l),
(268,830,ls),
(305,830,o),
(339,830,o),
(335,804,cs),
(331,780,o),
(303,779,o),
(275,775,c)
);
},
{
closed = 1;
nodes = (
(-52,0,l),
(416,0,l),
(441,144,l),
(130,144,l),
(156,288,l),
(452,288,l),
(477,433,l),
(181,433,l),
(203,553,l),
(514,553,l),
(539,697,l),
(71,697,l)
);
}
);
width = 592;
}
);
note = uni1EBA;
unicode = 7866;
},
{
glyphname = Emacron;
kernLeft = B;
lastChange = "2022-12-26 08:52:30 +0000";
layers = (
{
hints = (
{
horizontal = 1;
place = (-123, 21);
place = (-123, 21);
type = Stem;
},
{
horizontal = 1;
place = (165, 22);
place = (165, 22);
type = Stem;
},
{
horizontal = 1;
place = (430, 21);
place = (430, 21);
type = Stem;
},
{
horizontal = 1;
place = (627, -36);
place = (627, -36);
type = Stem;
},
{
place = (43, 155);
place = (43, 155);
type = Stem;
},
{
place = (-52, 34);
place = (-52, 34);
type = Stem;
}
);
layerId = m01;
shapes = (
{
closed = 1;
nodes = (
(175,750,l),
(453,750,l),
(469,837,l),
(191,837,l)
);
},
{
closed = 1;
nodes = (
(-52,0,l),
(416,0,l),
(441,144,l),
(130,144,l),
(156,288,l),
(452,288,l),
(477,433,l),
(181,433,l),
(203,553,l),
(514,553,l),
(539,697,l),
(71,697,l)
);
}
);
width = 592;
}
);
note = Emacron;
unicode = 274;
},
{
glyphname = Eogonek;
kernLeft = B;
lastChange = "2022-12-26 08:52:30 +0000";
layers = (
{
hints = (
{
horizontal = 1;
place = (-350, -31);
place = (-350, -31);
type = Stem;
},
{
horizontal = 1;
place = (-123, 21);
place = (-123, 21);
type = Stem;
},
{
horizontal = 1;
place = (165, 22);
place = (165, 22);
type = Stem;
},
{
horizontal = 1;
place = (430, 21);
place = (430, 21);
type = Stem;
},
{
place = (-52, 34);
place = (-52, 34);
type = Stem;
},
{
place = (222, -34);
place = (222, -34);
type = Stem;
}
);
layerId = m01;
shapes = (
{
closed = 1;
nodes = (
(367,-107,l),
(355,-124,o),
(340,-135,o),
(319,-135,cs),
(302,-135,o),
(289,-128,o),
(293,-100,cs),
(303,-46,o),
(396,-5,o),
(416,0,c),
(441,144,l),
(130,144,l),
(156,288,l),
(452,288,l),
(477,433,l),
(181,433,l),
(203,553,l),
(514,553,l),
(539,697,l),
(71,697,l),
(-52,0,l),
(298,0,l),
(270,-14,o),
(213,-49,o),
(202,-116,cs),
(190,-182,o),
(235,-227,o),
(307,-227,cs),
(367,-227,o),
(407,-195,o),
(436,-158,c)
);
}
);
width = 592;
}
);
note = Eogonek;
unicode = 280;
},
{
glyphname = uni1EBC;
kernLeft = B;
lastChange = "2022-12-26 08:52:30 +0000";
layers = (
{
hints = (
{
horizontal = 1;
place = (-123, 21);
place = (-123, 21);
type = Stem;
},
{
horizontal = 1;
place = (165, 22);
place = (165, 22);
type = Stem;
},
{
horizontal = 1;
place = (430, 21);
place = (430, 21);
type = Stem;
},
{
horizontal = 1;
place = (629, 26);
place = (629, 26);
type = Stem;
},
{
place = (-52, 34);
place = (-52, 34);
type = Stem;
},
{
place = (263, -33);
place = (263, -33);
type = Stem;
},
{
horizontal = 1;
place = (629, -32);
place = (629, -32);
type = Stem;
},
{
horizontal = 1;
place = (628, 29);
place = (628, 29);
type = Stem;
},
{
place = (10, -37);
place = (10, -37);
type = Stem;
},
{
horizontal = 1;
place = (688, -31);
place = (688, -31);
type = Stem;
}
);
layerId = m01;
shapes = (
{
closed = 1;
nodes = (
(443,752,o),
(495,803,o),
(512,901,c),
(422,901,l),
(415,862,o),
(403,843,o),
(392,843,cs),
(368,843,o),
(348,903,o),
(283,903,cs),
(213,903,o),
(160,848,o),
(143,751,c),
(229,751,l),
(236,791,o),
(247,811,o),
(260,811,cs),
(287,811,o),
(299,752,o),
(374,752,cs)
);
},
{
closed = 1;
nodes = (
(-52,0,l),
(416,0,l),
(441,144,l),
(130,144,l),
(156,288,l),
(452,288,l),
(477,433,l),
(181,433,l),
(203,553,l),
(514,553,l),
(539,697,l),
(71,697,l)
);
}
);
width = 592;
}
);
note = uni1EBC;
unicode = 7868;
},
{
glyphname = F;
kernLeft = B;
kernRight = F;
lastChange = "2022-12-26 08:52:30 +0000";
layers = (
{
hints = (
{
horizontal = 1;
place = (-123, 21);
target = up;
type = BottomGhost;
},
{
horizontal = 1;
place = (165, 22);
place = (165, 22);
type = Stem;
},
{
horizontal = 1;
place = (430, 21);
place = (430, 21);
type = Stem;
},
{
place = (-52, 34);
place = (-52, 34);
type = Stem;
}
);
layerId = m01;
shapes = (
{
closed = 1;
nodes = (
(27,0,l),
(123,100,l),
(156,288,l),
(465,288,l),
(490,433,l),
(181,433,l),
(203,553,l),
(538,553,ls),
(546,553,o),
(554,560,o),
(555,568,cs),
(578,697,l),
(71,697,l),
(-52,0,l)
);
}
);
width = 591;
}
);
note = F;
unicode = 70;
},
{
glyphname = G;
kernLeft = C;
kernRight = G;
lastChange = "2022-12-26 08:52:30 +0000";
layers = (
{
hints = (
{
horizontal = 1;
place = (-141, 27);
place = (-141, 27);
type = Stem;
},
{
horizontal = 1;
place = (124, 17);
place = (124, 17);
type = Stem;
},
{
horizontal = 1;
place = (444, 27);
place = (444, 27);
type = Stem;
},
{
place = (-103, 34);
place = (-103, 34);
type = Stem;
},
{
place = (410, 35);
place = (410, 35);
type = Stem;
},
{
horizontal = 1;
place = (-123, 21);
target = up;
type = BottomGhost;
}
);
layerId = m01;
shapes = (
{
closed = 1;
nodes = (
(657,506,o),
(649,532,qs),
(620,623,o),
(472,717,o),
(374,717,qs),
(297,717,o),
(159,661,o),
(48,561,o),
(-28,423,o),
(-43,342,qs),
(-56,264,o),
(-32,132,o),
(41,36,o),
(160,-18,o),
(239,-18,qs),
(304,-18,o),
(414,22,o),
(454,67,q),
(460,0,l),
(505,0,l),
(586,100,l),
(636,387,l),
(344,387,ls),
(336,387,o),
(328,380,o),
(327,372,cs),
(305,247,l),
(454,247,l),
(452,237,ls),
(448,216,o),
(422,178,o),
(378,149,o),
(317,132,o),
(278,132,qs),
(234,132,o),
(165,157,o),
(121,209,o),
(105,290,o),
(115,347,qs),
(125,401,o),
(167,483,o),
(227,539,o),
(302,567,o),
(345,567,qs),
(405,567,o),
(491,508,o),
(501,448,q),
(626,494,ls)
);
}
);
width = 738;
}
);
note = G;
unicode = 71;
},
{
glyphname = Gbreve;
kernLeft = C;
kernRight = G;
lastChange = "2022-12-26 08:52:30 +0000";
layers = (
{
hints = (
{
horizontal = 1;
place = (-141, 27);
place = (-141, 27);
type = Stem;
},
{
horizontal = 1;
place = (124, 17);
place = (124, 17);
type = Stem;
},
{
horizontal = 1;
place = (444, 27);
place = (444, 27);
type = Stem;
},
{
horizontal = 1;
place = (644, 11);
place = (644, 11);
type = Stem;
},
{
place = (-103, 34);
place = (-103, 34);
type = Stem;
},
{
place = (89, -17);
place = (89, -17);
type = Stem;
},
{
place = (410, 35);
place = (410, 35);
type = Stem;
},
{
place = (301, -17);
place = (301, -17);
type = Stem;
},
{
horizontal = 1;
place = (644, -36);
place = (644, -36);
type = Stem;
},
{
horizontal = 1;
place = (-123, 21);
target = up;
type = BottomGhost;
}
);
layerId = m01;
shapes = (
{
closed = 1;
nodes = (
(489,767,o),
(550,809,o),
(566,901,c),
(460,901,l),
(455,870,o),
(427,854,o),
(399,854,cs),
(373,854,o),
(348,868,o),
(354,901,c),
(248,901,l),
(233,815,o),
(271,767,o),
(383,767,cs)
);
},
{
closed = 1;
nodes = (
(329,387,l),
(305,247,l),
(454,247,l),
(452,237,ls),
(442,182,o),
(382,132,o),
(278,132,cs),
(161,132,o),
(89,196,o),
(115,347,cs),
(141,491,o),
(231,567,o),
(345,567,cs),
(425,567,o),
(487,528,o),
(501,448,c),
(656,505,l),
(627,644,o),
(513,717,o),
(374,717,cs),
(169,717,o),
(-4,559,o),
(-43,342,cs),
(-79,134,o),
(27,-18,o),
(239,-18,cs),
(325,-18,o),
(400,7,o),
(454,67,c),
(460,0,l),
(568,0,l),
(636,387,l)
);
}
);
width = 738;
}
);
note = Gbreve;
unicode = 286;
},
{
glyphname = uni0122;
kernLeft = C;
kernRight = G;
lastChange = "2022-12-26 08:52:30 +0000";
layers = (
{
hints = (
{
horizontal = 1;
place = (-352, 55);
place = (-352, 55);
type = Stem;
},
{
horizontal = 1;
place = (-141, 27);
place = (-141, 27);
type = Stem;
},
{
horizontal = 1;
place = (124, 17);
place = (124, 17);
type = Stem;
},
{
horizontal = 1;
place = (444, 27);
place = (444, 27);
type = Stem;
},
{
place = (-103, 34);
place = (-103, 34);
type = Stem;
},
{
place = (410, 35);
place = (410, 35);
type = Stem;
},
{
horizontal = 1;
place = (-123, 21);
target = up;
type = BottomGhost;
}
);
layerId = m01;
shapes = (
{
closed = 1;
nodes = (
(329,387,l),
(305,247,l),
(454,247,l),
(452,237,ls),
(442,182,o),
(382,132,o),
(278,132,cs),
(161,132,o),
(89,196,o),
(115,347,cs),
(141,491,o),
(231,567,o),
(345,567,cs),
(425,567,o),
(487,528,o),
(501,448,c),
(656,505,l),
(627,644,o),
(513,717,o),
(374,717,cs),
(169,717,o),
(-4,559,o),
(-43,342,cs),
(-79,134,o),
(27,-18,o),
(239,-18,cs),
(325,-18,o),
(400,7,o),
(454,67,c),
(460,0,l),
(568,0,l),
(636,387,l)
);
},
{
closed = 1;
nodes = (
(73,-229,l),
(159,-229,l),
(315,-51,l),
(158,-51,l)
);
}
);
width = 738;
}
);
note = uni0122;
unicode = 290;
},
{
glyphname = Gdotaccent;
kernLeft = C;
kernRight = G;
lastChange = "2022-12-26 08:52:30 +0000";
layers = (
{
hints = (
{
horizontal = 1;
place = (-141, 27);
place = (-141, 27);
type = Stem;
},
{
horizontal = 1;
place = (124, 17);
place = (124, 17);
type = Stem;
},
{
horizontal = 1;
place = (444, 27);
place = (444, 27);
type = Stem;
},
{
horizontal = 1;
place = (642, 13);
place = (642, 13);
type = Stem;
},
{
place = (-103, 34);
place = (-103, 34);
type = Stem;
},
{
place = (171, 31);
place = (171, 31);
type = Stem;
},
{
place = (410, 35);
place = (410, 35);
type = Stem;
},
{
horizontal = 1;
place = (-123, 21);
target = up;
type = BottomGhost;
}
);
layerId = m01;
shapes = (
{
closed = 1;
nodes = (
(484,901,l),
(330,901,l),
(306,765,l),
(460,765,l)
);
},
{
closed = 1;
nodes = (
(329,387,l),
(305,247,l),
(454,247,l),
(452,237,ls),
(442,182,o),
(382,132,o),
(278,132,cs),
(161,132,o),
(89,196,o),
(115,347,cs),
(141,491,o),
(231,567,o),
(345,567,cs),
(425,567,o),
(487,528,o),
(501,448,c),
(656,505,l),
(627,644,o),
(513,717,o),
(374,717,cs),
(169,717,o),
(-4,559,o),
(-43,342,cs),
(-79,134,o),
(27,-18,o),
(239,-18,cs),
(325,-18,o),
(400,7,o),
(454,67,c),
(460,0,l),
(568,0,l),
(636,387,l)
);
}
);
width = 738;
}
);
note = Gdotaccent;
unicode = 288;
},
{
glyphname = H;
kernLeft = B;
kernRight = H;
lastChange = "2022-12-26 08:52:30 +0000";
layers = (
{
hints = (
{
horizontal = 1;
place = (-123, 21);
target = up;
type = BottomGhost;
},
{
horizontal = 1;
place = (165, 21);
place = (165, 21);
type = Stem;
},
{
horizontal = 1;
place = (574, -20);
target = down;
type = TopGhost;
},
{
place = (-52, 34);
place = (-52, 34);
type = Stem;
},
{
place = (376, 34);
place = (376, 34);
type = Stem;
}
);
layerId = m01;
shapes = (
{
closed = 1;
nodes = (
(-52,0,l),
(105,0,l),
(156,288,l),
(427,288,l),
(376,0,l),
(533,0,l),
(656,697,l),
(499,697,l),
(452,432,l),
(181,432,l),
(228,697,l),
(71,697,l)
);
}
);
width = 727;
}
);
note = H;
unicode = 72;
},
{
glyphname = Hbar;
kernLeft = B;
kernRight = H;
lastChange = "2022-12-26 08:52:30 +0000";
layers = (
{
hints = (
{
horizontal = 1;
place = (-123, 21);
target = up;
type = BottomGhost;
},
{
horizontal = 1;
place = (165, 21);
place = (165, 21);
type = Stem;
},
{
horizontal = 1;
place = (389, -35);
place = (389, -35);
type = Stem;
},
{
place = (-52, 34);
place = (-52, 34);
type = Stem;
},
{
place = (376, 34);
place = (376, 34);
type = Stem;
},
{
horizontal = 1;
place = (389, 62);
place = (389, 62);
type = Stem;
}
);
layerId = m01;
shapes = (
{
closed = 1;
nodes = (
(682,600,l),
(639,600,l),
(656,697,l),
(499,697,l),
(482,600,l),
(211,600,l),
(228,697,l),
(71,697,l),
(54,600,l),
(13,600,l),
(-3,512,l),
(38,512,l),
(-52,0,l),
(105,0,l),
(156,288,l),
(427,288,l),
(376,0,l),
(533,0,l),
(623,512,l),
(666,512,l)
);
},
{
closed = 1;
nodes = (
(452,432,l),
(181,432,l),
(195,512,l),
(466,512,l)
);
}
);
width = 727;
}
);
note = Hbar;
unicode = 294;
},
{
glyphname = I;
kernLeft = B;
kernRight = H;
lastChange = "2022-12-26 08:52:30 +0000";
layers = (
{
hints = (
{
horizontal = 1;
place = (-123, 21);
target = up;
type = BottomGhost;
},
{
horizontal = 1;
place = (574, -20);
target = down;
type = TopGhost;
},
{
place = (-52, 34);
place = (-52, 34);
type = Stem;
}
);
layerId = m01;
shapes = (
{
closed = 1;
nodes = (
(-52,0,l),
(105,0,l),
(228,697,l),
(71,697,l)
);
}
);
width = 299;
}
);
note = I;
unicode = 73;
},
{
glyphname = Iacute;
kernLeft = B;
kernRight = H;
lastChange = "2022-12-26 08:52:30 +0000";
layers = (
{
hints = (
{
horizontal = 1;
place = (-123, 21);
target = up;
type = BottomGhost;
},
{
horizontal = 1;
place = (574, -20);
target = down;
type = TopGhost;
},
{
horizontal = 1;
place = (635, 20);
place = (635, 20);
type = Stem;
},
{
place = (-52, 34);
place = (-52, 34);
type = Stem;
}
);
layerId = m01;
shapes = (
{
closed = 1;
nodes = (
(106,758,l),
(215,758,l),
(406,901,l),
(244,901,l)
);
},
{
closed = 1;
nodes = (
(-52,0,l),
(105,0,l),
(228,697,l),
(71,697,l)
);
}
);
width = 299;
}
);
note = Iacute;
unicode = 205;
},
{
glyphname = uni01CF;
lastChange = "2022-12-26 08:52:30 +0000";
layers = (
{
hints = (
{
horizontal = 1;
place = (-123, 21);
target = up;
type = BottomGhost;
},
{
horizontal = 1;
place = (574, -20);
target = down;
type = TopGhost;
},
{
place = (-52, 34);
place = (-52, 34);
type = Stem;
}
);
layerId = m01;
shapes = (
{
closed = 1;
nodes = (
(156,730,l),
(346,901,l),
(232,901,l),
(177,851,l),
(141,901,l),
(26,901,l)
);
},
{
closed = 1;
nodes = (
(-52,0,l),
(105,0,l),
(228,697,l),
(71,697,l)
);
}
);
width = 299;
}
);
note = uni01CF;
unicode = 463;
},
{
glyphname = Icircumflex;
kernLeft = B;
kernRight = H;
lastChange = "2022-12-26 08:52:30 +0000";
layers = (
{
hints = (
{
horizontal = 1;
place = (-123, 21);
target = up;
type = BottomGhost;
},
{
horizontal = 1;
place = (574, -20);
target = down;
type = TopGhost;
},
{
place = (-52, 34);
place = (-52, 34);
type = Stem;
}
);
layerId = m01;
shapes = (
{
closed = 1;
nodes = (
(-2,741,l),
(112,741,l),
(168,797,l),
(204,741,l),
(318,741,l),
(190,924,l)
);
},
{
closed = 1;
nodes = (
(-52,0,l),
(105,0,l),
(228,697,l),
(71,697,l)
);
}
);
width = 299;
}
);
note = Icircumflex;
unicode = 206;
},
{
glyphname = Idieresis;
kernLeft = B;
kernRight = H;
lastChange = "2022-12-26 08:52:30 +0000";
layers = (
{
hints = (
{
horizontal = 1;
place = (-123, 21);
target = up;
type = BottomGhost;
},
{
horizontal = 1;
place = (574, -20);
target = down;
type = TopGhost;
},
{
horizontal = 1;
place = (642, 13);
place = (642, 13);
type = Stem;
},
{
place = (-132, -9);
place = (-132, -9);
type = Stem;
},
{
place = (-52, -89);
place = (-52, -89);
type = Stem;
},
{
place = (72, -9);
place = (72, -9);
type = Stem;
},
{
place = (-52, 34);
place = (-52, 34);
type = Stem;
}
);
layerId = m01;
shapes = (
{
closed = 1;
nodes = (
(3,765,l),
(117,765,l),
(141,901,l),
(27,901,l)
);
},
{
closed = 1;
nodes = (
(207,765,l),
(321,765,l),
(345,901,l),
(231,901,l)
);
},
{
closed = 1;
nodes = (
(-52,0,l),
(105,0,l),
(228,697,l),
(71,697,l)
);
}
);
width = 299;
}
);
note = Idieresis;
unicode = 207;
},
{
glyphname = Idotaccent;
kernLeft = B;
kernRight = H;
lastChange = "2022-12-26 08:52:30 +0000";
layers = (
{
hints = (
{
horizontal = 1;
place = (-123, 21);
target = up;
type = BottomGhost;
},
{
horizontal = 1;
place = (574, -20);
target = down;
type = TopGhost;
},
{
horizontal = 1;
place = (642, 13);
place = (642, 13);
type = Stem;
},
{
place = (-50, 32);
place = (-50, 32);
type = Stem;
},
{
place = (-52, 33);
place = (-52, 33);
type = Stem;
},
{
place = (-52, 34);
place = (-52, 34);
type = Stem;
}
);
layerId = m01;
shapes = (
{
closed = 1;
nodes = (
(85,765,l),
(239,765,l),
(263,901,l),
(109,901,l)
);
},
{
closed = 1;
nodes = (
(-52,0,l),
(105,0,l),
(228,697,l),
(71,697,l)
);
}
);
width = 299;
}
);
note = Idotaccent;
unicode = 304;
},
{
glyphname = uni1ECA;
lastChange = "2022-12-26 08:52:30 +0000";
layers = (
{
hints = (
{
horizontal = 1;
place = (-296, -6);
place = (-296, -6);
type = Stem;
},
{
horizontal = 1;
place = (-123, 21);
target = up;
type = BottomGhost;
},
{
horizontal = 1;
place = (574, -20);
target = down;
type = TopGhost;
},
{
place = (-52, 34);
place = (-52, 34);
type = Stem;
},
{
place = (-50, 32);
place = (-50, 32);
type = Stem;
},
{
place = (-52, 33);
place = (-52, 33);
type = Stem;
}
);
layerId = m01;
shapes = (
{
closed = 1;
nodes = (
(-52,0,l),
(105,0,l),
(228,697,l),
(71,697,l)
);
},
{
closed = 1;
nodes = (
(-80,-173,l),
(74,-173,l),
(94,-56,l),
(-60,-56,l)
);
}
);
width = 299;
}
);
note = uni1ECA;
unicode = 7882;
},
{
glyphname = Igrave;
kernLeft = B;
kernRight = H;
lastChange = "2022-12-26 08:52:30 +0000";
layers = (
{
hints = (
{
horizontal = 1;
place = (-123, 21);
target = up;
type = BottomGhost;
},
{
horizontal = 1;
place = (574, -20);
target = down;
type = TopGhost;
},
{
horizontal = 1;
place = (635, 20);
place = (635, 20);
type = Stem;
},
{
place = (-52, 34);
place = (-52, 34);
type = Stem;
}
);
layerId = m01;
shapes = (
{
closed = 1;
nodes = (
(105,758,l),
(216,758,l),
(137,901,l),
(-23,901,l)
);
},
{
closed = 1;
nodes = (
(-52,0,l),
(105,0,l),
(228,697,l),
(71,697,l)
);
}
);
width = 299;
}
);
note = Igrave;
unicode = 204;
},
{
glyphname = uni1EC8;
lastChange = "2022-12-26 08:52:30 +0000";
layers = (
{
hints = (
{
horizontal = 1;
place = (-123, 21);
target = up;
type = BottomGhost;
},
{
horizontal = 1;
place = (574, -20);
target = down;
type = TopGhost;
},
{
horizontal = 1;
place = (591, -62);
place = (591, -62);
type = Stem;
},
{
horizontal = 1;
place = (707, -31);
place = (707, -31);
type = Stem;
},
{
place = (-52, 34);
place = (-52, 34);
type = Stem;
},
{
place = (38, -18);
place = (38, -18);
type = Stem;
},
{
place = (38, -56);
place = (38, -56);
type = Stem;
}
);
layerId = m01;
shapes = (
{
closed = 1;
nodes = (
(126,714,l),
(185,722,o),
(273,736,o),
(287,815,cs),
(299,884,o),
(236,922,o),
(130,922,cs),
(114,922,l),
(97,830,l),
(113,830,ls),
(150,830,o),
(184,830,o),
(180,804,cs),
(176,780,o),
(148,779,o),
(120,775,c)
);
},
{
closed = 1;
nodes = (
(-52,0,l),
(105,0,l),
(228,697,l),
(71,697,l)
);
}
);
width = 299;
}
);
note = uni1EC8;
unicode = 7880;
},
{
glyphname = Imacron;
kernLeft = B;
kernRight = H;
lastChange = "2022-12-26 08:52:30 +0000";
layers = (
{
hints = (
{
horizontal = 1;
place = (-123, 21);
target = up;
type = BottomGhost;
},
{
horizontal = 1;
place = (574, -20);
target = down;
type = TopGhost;
},
{
horizontal = 1;
place = (627, -36);
place = (627, -36);
type = Stem;
},
{
place = (-52, 34);
place = (-52, 34);
type = Stem;
}
);
layerId = m01;
shapes = (
{
closed = 1;
nodes = (
(20,750,l),
(298,750,l),
(314,837,l),
(36,837,l)
);
},
{
closed = 1;
nodes = (
(-52,0,l),
(105,0,l),
(228,697,l),
(71,697,l)
);
}
);
width = 299;
}
);
note = Imacron;
unicode = 298;
},
{
glyphname = Iogonek;
kernLeft = B;
kernRight = H;
lastChange = "2022-12-26 08:52:30 +0000";
layers = (
{
hints = (
{
horizontal = 1;
place = (-350, -31);
place = (-350, -31);
type = Stem;
},
{
horizontal = 1;
place = (-123, 21);
target = up;
type = BottomGhost;
},
{
horizontal = 1;
place = (574, -20);
target = down;
type = TopGhost;
},
{
place = (-52, -71);
place = (-52, -71);
type = Stem;
},
{
place = (-52, 34);
place = (-52, 34);
type = Stem;
},
{
place = (-89, -34);
place = (-89, -34);
type = Stem;
}
);
layerId = m01;
shapes = (
{
closed = 1;
nodes = (
(56,-107,l),
(44,-124,o),
(29,-135,o),
(8,-135,cs),
(-9,-135,o),
(-22,-128,o),
(-18,-100,cs),
(-8,-46,o),
(85,-5,o),
(105,0,c),
(228,697,l),
(71,697,l),
(-52,0,l),
(-13,0,l),
(-41,-14,o),
(-98,-49,o),
(-109,-116,cs),
(-121,-182,o),
(-76,-227,o),
(-4,-227,cs),
(56,-227,o),
(96,-195,o),
(125,-158,c)
);
}
);
width = 299;
}
);
note = Iogonek;
unicode = 302;
},
{
glyphname = Itilde;
lastChange = "2022-12-26 08:52:30 +0000";
layers = (
{
hints = (
{
horizontal = 1;
place = (-123, 21);
target = up;
type = BottomGhost;
},
{
horizontal = 1;
place = (574, -20);
target = down;
type = TopGhost;
},
{
horizontal = 1;
place = (629, 26);
place = (629, 26);
type = Stem;
},
{
place = (-52, 34);
place = (-52, 34);
type = Stem;
},
{
place = (108, -33);
place = (108, -33);
type = Stem;
},
{
horizontal = 1;
place = (629, -32);
place = (629, -32);
type = Stem;
},
{
horizontal = 1;
place = (628, 29);
place = (628, 29);
type = Stem;
},
{
place = (-145, -37);
place = (-145, -37);
type = Stem;
},
{
horizontal = 1;
place = (688, -31);
place = (688, -31);
type = Stem;
}
);
layerId = m01;
shapes = (
{
closed = 1;
nodes = (
(288,752,o),
(340,803,o),
(357,901,c),
(267,901,l),
(260,862,o),
(248,843,o),
(237,843,cs),
(213,843,o),
(193,903,o),
(128,903,cs),
(58,903,o),
(5,848,o),
(-12,751,c),
(74,751,l),
(81,791,o),
(92,811,o),
(105,811,cs),
(132,811,o),
(144,752,o),
(219,752,cs)
);
},
{
closed = 1;
nodes = (
(-52,0,l),
(105,0,l),
(228,697,l),
(71,697,l)
);
}
);
width = 299;
}
);
note = Itilde;
unicode = 296;
},
{
glyphname = J;
kernLeft = J;
kernRight = J;
lastChange = "2022-12-26 08:52:30 +0000";
layers = (
{
hints = (
{
horizontal = 1;
place = (-141, 22);
place = (-141, 22);
type = Stem;
},
{
horizontal = 1;
place = (430, 21);
place = (430, 21);
type = Stem;
},
{
place = (-124, 32);
place = (-124, 32);
type = Stem;
},
{
place = (206, 35);
place = (206, 35);
type = Stem;
}
);
layerId = m01;
shapes = (
{
closed = 1;
nodes = (
(-85,225,o),
(-87,195,qs),
(-90,93,o),
(18,-18,o),
(117,-18,qs),
(173,-18,o),
(269,18,o),
(344,84,o),
(396,179,o),
(406,238,qs),
(487,697,l),
(202,697,l),
(66,629,l),
(53,553,l),
(304,553,l),
(250,247,ls),
(240,192,o),
(193,127,o),
(142,127,qs),
(98,127,o),
(67,179,o),
(74,242,q),
(-54,228,ls)
);
}
);
width = 543;
}
);
note = J;
unicode = 74;
},
{
glyphname = K;
kernLeft = B;
kernRight = K;
lastChange = "2022-12-26 08:52:30 +0000";
layers = (
{
hints = (
{
horizontal = 1;
place = (-123, 21);
target = up;
type = BottomGhost;
},
{
horizontal = 1;
place = (574, -20);
target = down;
type = TopGhost;
},
{
place = (-52, 34);
place = (-52, 34);
type = Stem;
}
);
layerId = m01;
shapes = (
{
closed = 1;
nodes = (
(537,0,o),
(528,27,qs),
(393,428,l),
(707,697,l),
(501,697,l),
(177,410,l),
(228,697,l),
(150,697,l),
(53,597,l),
(-52,0,l),
(105,0,l),
(143,213,l),
(268,320,l),
(355,0,l),
(507,0,ls)
);
}
);
width = 699;
}
);
note = K;
unicode = 75;
},
{
glyphname = uni0136;
kernLeft = B;
kernRight = K;
lastChange = "2022-12-26 08:52:30 +0000";
layers = (
{
hints = (
{
horizontal = 1;
place = (-352, 55);
place = (-352, 55);
type = Stem;
},
{
horizontal = 1;
place = (-123, 21);
target = up;
type = BottomGhost;
},
{
horizontal = 1;
place = (574, -20);
target = down;
type = TopGhost;
},
{
place = (-52, 34);
place = (-52, 34);
type = Stem;
}
);
layerId = m01;
shapes = (
{
closed = 1;
nodes = (
(393,428,l),
(707,697,l),
(501,697,l),
(177,410,l),
(228,697,l),
(71,697,l),
(-52,0,l),
(105,0,l),
(143,213,l),
(268,320,l),
(404,0,l),
(586,0,l)
);
},
{
closed = 1;
nodes = (
(52,-229,l),
(138,-229,l),
(294,-51,l),
(137,-51,l)
);
}
);
width = 699;
}
);
note = uni0136;
unicode = 310;
},
{
glyphname = L;
kernLeft = B;
kernRight = L;
lastChange = "2022-12-26 08:52:30 +0000";
layers = (
{
hints = (
{
horizontal = 1;
place = (-123, 21);
place = (-123, 21);
type = Stem;
},
{
horizontal = 1;
place = (574, -20);
target = down;
type = TopGhost;
},
{
place = (-52, 34);
place = (-52, 34);
type = Stem;
}
);
layerId = m01;
shapes = (
{
closed = 1;
nodes = (
(-52,0,l),
(391,0,l),
(416,144,l),
(130,144,l),
(228,697,l),
(71,697,l)
);
}
);
width = 509;
}
);
note = L;
unicode = 76;
},
{
glyphname = Lacute;
kernLeft = B;
kernRight = L;
lastChange = "2022-12-26 08:52:30 +0000";
layers = (
{
hints = (
{
horizontal = 1;
place = (-123, 21);
place = (-123, 21);
type = Stem;
},
{
horizontal = 1;
place = (574, -20);
target = down;
type = TopGhost;
},
{
horizontal = 1;
place = (635, 20);
place = (635, 20);
type = Stem;
},
{
place = (-52, 34);
place = (-52, 34);
type = Stem;
}
);
layerId = m01;
shapes = (
{
closed = 1;
nodes = (
(106,758,l),
(215,758,l),
(406,901,l),
(244,901,l)
);
},
{
closed = 1;
nodes = (
(-52,0,l),
(391,0,l),
(416,144,l),
(130,144,l),
(228,697,l),
(71,697,l)
);
}
);
width = 509;
}
);
note = Lacute;
unicode = 313;
},
{
glyphname = Lcaron;
kernLeft = B;
kernRight = L;
lastChange = "2022-12-26 08:52:30 +0000";
layers = (
{
hints = (
{
horizontal = 1;
place = (-123, 21);
place = (-123, 21);
type = Stem;
},
{
horizontal = 1;
place = (340, 111);
place = (340, 111);
type = Stem;
},
{
place = (-52, 34);
place = (-52, 34);
type = Stem;
}
);
layerId = m01;
shapes = (
{
closed = 1;
nodes = (
(-52,0,l),
(391,0,l),
(416,144,l),
(130,144,l),
(228,697,l),
(71,697,l)
);
},
{
closed = 1;
nodes = (
(296,463,l),
(383,463,l),
(550,697,l),
(392,697,l)
);
}
);
width = 509;
}
);
note = Lcaron;
unicode = 317;
},
{
glyphname = uni013B;
kernLeft = B;
kernRight = L;
lastChange = "2022-12-26 08:52:30 +0000";
layers = (
{
hints = (
{
horizontal = 1;
place = (-352, 55);
place = (-352, 55);
type = Stem;
},
{
horizontal = 1;
place = (-123, 21);
place = (-123, 21);
type = Stem;
},
{
horizontal = 1;
place = (574, -20);
target = down;
type = TopGhost;
},
{
place = (-52, 34);
place = (-52, 34);
type = Stem;
}
);
layerId = m01;
shapes = (
{
closed = 1;
nodes = (
(-52,0,l),
(391,0,l),
(416,144,l),
(130,144,l),
(228,697,l),
(71,697,l)
);
},
{
closed = 1;
nodes = (
(-3,-229,l),
(83,-229,l),
(239,-51,l),
(82,-51,l)
);
}
);
width = 509;
}
);
note = uni013B;
unicode = 315;
},
{
glyphname = Lslash;
lastChange = "2022-12-26 08:52:30 +0000";
layers = (
{
hints = (
{
horizontal = 1;
place = (-123, 21);
place = (-123, 21);
type = Stem;
},
{
horizontal = 1;
place = (574, -20);
target = down;
type = TopGhost;
},
{
place = (-52, 34);
place = (-52, 34);
type = Stem;
}
);
layerId = m01;
shapes = (
{
closed = 1;
nodes = (
(130,144,l),
(157,295,l),
(256,364,l),
(283,517,l),
(184,448,l),
(228,697,l),
(71,697,l),
(5,324,l),
(-52,285,l),
(-79,130,l),
(-22,170,l),
(-52,0,l),
(391,0,l),
(416,144,l)
);
}
);
width = 509;
}
);
note = Lslash;
unicode = 321;
},
{
glyphname = M;
kernLeft = B;
kernRight = H;
lastChange = "2022-12-26 08:52:30 +0000";
layers = (
{
hints = (
{
horizontal = 1;
place = (-123, 21);
target = up;
type = BottomGhost;
},
{
horizontal = 1;
place = (574, -20);
target = down;
type = TopGhost;
},
{
place = (-52, 34);
place = (-52, 34);
type = Stem;
},
{
place = (540, 34);
place = (540, 34);
type = Stem;
}
);
layerId = m01;
shapes = (
{
closed = 1;
nodes = (
(105,0,o),
(110,30,qs),
(188,469,l),
(258,63,l),
(409,63,l),
(623,471,l),
(545,30,ls),
(540,0,o),
(570,0,qs),
(697,0,l),
(820,697,l),
(596,697,l),
(365,251,l),
(295,697,l),
(71,697,l),
(-52,0,l),
(75,0,ls)
);
}
);
width = 891;
}
);
note = M;
unicode = 77;
},
{
glyphname = N;
kernLeft = B;
kernRight = H;
lastChange = "2022-12-26 08:52:30 +0000";
layers = (
{
hints = (
{
horizontal = 1;
place = (-123, 21);
target = up;
type = BottomGhost;
},
{
horizontal = 1;
place = (574, -20);
target = down;
type = TopGhost;
},
{
place = (-52, 34);
place = (-52, 34);
type = Stem;
},
{
place = (371, 34);
place = (371, 34);
type = Stem;
}
);
layerId = m01;
shapes = (
{
closed = 1;
nodes = (
(419,272,l),
(231,697,l),
(71,697,l),
(-52,0,l),
(27,0,l),
(123,100,l),
(180,427,l),
(367,0,l),
(528,0,l),
(651,697,l),
(494,697,l)
);
}
);
width = 722;
}
);
note = N;
unicode = 78;
},
{
glyphname = Nacute;
kernLeft = B;
kernRight = H;
lastChange = "2022-12-26 08:52:30 +0000";
layers = (
{
hints = (
{
horizontal = 1;
place = (-123, 21);
target = up;
type = BottomGhost;
},
{
horizontal = 1;
place = (574, -20);
target = down;
type = TopGhost;
},
{
horizontal = 1;
place = (635, 20);
place = (635, 20);
type = Stem;
},
{
place = (-52, 34);
place = (-52, 34);
type = Stem;
},
{
place = (371, 34);
place = (371, 34);
type = Stem;
}
);
layerId = m01;
shapes = (
{
closed = 1;
nodes = (
(618,901,l),
(456,901,l),
(318,758,l),
(427,758,l)
);
},
{
closed = 1;
nodes = (
(494,697,l),
(419,272,l),
(231,697,l),
(71,697,l),
(-52,0,l),
(105,0,l),
(180,427,l),
(367,0,l),
(528,0,l),
(651,697,l)
);
}
);
width = 722;
}
);
note = Nacute;
unicode = 323;
},
{
glyphname = Ncaron;
kernLeft = B;
kernRight = H;
lastChange = "2022-12-26 08:52:30 +0000";
layers = (
{
hints = (
{
horizontal = 1;
place = (-123, 21);
target = up;
type = BottomGhost;
},
{
horizontal = 1;
place = (574, -20);
target = down;
type = TopGhost;
},
{
place = (-52, 34);
place = (-52, 34);
type = Stem;
},
{
place = (371, 34);
place = (371, 34);
type = Stem;
}
);
layerId = m01;
shapes = (
{
closed = 1;
nodes = (
(558,901,l),
(444,901,l),
(389,851,l),
(353,901,l),
(238,901,l),
(368,730,l)
);
},
{
closed = 1;
nodes = (
(494,697,l),
(419,272,l),
(231,697,l),
(71,697,l),
(-52,0,l),
(105,0,l),
(180,427,l),
(367,0,l),
(528,0,l),
(651,697,l)
);
}
);
width = 722;
}
);
note = Ncaron;
unicode = 327;
},
{
glyphname = uni0145;
kernLeft = B;
kernRight = H;
lastChange = "2022-12-26 08:52:30 +0000";
layers = (
{
hints = (
{
horizontal = 1;
place = (-352, 55);
place = (-352, 55);
type = Stem;
},
{
horizontal = 1;
place = (-123, 21);
target = up;
type = BottomGhost;
},
{
horizontal = 1;
place = (574, -20);
target = down;
type = TopGhost;
},
{
place = (-52, 34);
place = (-52, 34);
type = Stem;
},
{
place = (371, 34);
place = (371, 34);
type = Stem;
}
);
layerId = m01;
shapes = (
{
closed = 1;
nodes = (
(494,697,l),
(419,272,l),
(231,697,l),
(71,697,l),
(-52,0,l),
(105,0,l),
(180,427,l),
(367,0,l),
(528,0,l),
(651,697,l)
);
},
{
closed = 1;
nodes = (
(66,-229,l),
(152,-229,l),
(308,-51,l),
(151,-51,l)
);
}
);
width = 722;
}
);
note = uni0145;
unicode = 325;
},
{
glyphname = Eng;
kernLeft = B;
kernRight = H;
lastChange = "2022-12-26 08:52:30 +0000";
layers = (
{
hints = (
{
horizontal = 1;
place = (-312, -21);
place = (-312, -21);
type = Stem;
},
{
horizontal = 1;
place = (-123, 21);
target = up;
type = BottomGhost;
},
{
horizontal = 1;
place = (574, -20);
target = down;
type = TopGhost;
},
{
place = (-52, 34);
place = (-52, 34);
type = Stem;
},
{
place = (371, 34);
place = (371, 34);
type = Stem;
},
{
place = (378, 27);
place = (378, 27);
type = Stem;
}
);
layerId = m01;
shapes = (
{
closed = 1;
nodes = (
(494,697,l),
(421,282,l),
(231,697,l),
(71,697,l),
(-52,0,l),
(105,0,l),
(179,418,l),
(367,0,ls),
(374,-16,o),
(373,-31,o),
(371,-39,cs),
(367,-65,o),
(336,-87,o),
(284,-87,cs),
(256,-87,l),
(240,-186,l),
(267,-189,o),
(287,-189,o),
(309,-189,cs),
(449,-189,o),
(512,-89,o),
(530,8,cs),
(651,697,l)
);
}
);
width = 722;
}
);
note = Eng;
unicode = 330;
},
{
glyphname = Ntilde;
kernLeft = B;
kernRight = H;
lastChange = "2022-12-26 08:52:30 +0000";
layers = (
{
hints = (
{
horizontal = 1;
place = (-123, 21);
target = up;
type = BottomGhost;
},
{
horizontal = 1;
place = (574, -20);
target = down;
type = TopGhost;
},
{
horizontal = 1;
place = (688, -31);
place = (688, -31);
type = Stem;
},
{
place = (67, -37);
place = (67, -37);
type = Stem;
},
{
place = (371, 34);
place = (371, 34);
type = Stem;
},
{
horizontal = 1;
place = (629, 26);
place = (629, 26);
type = Stem;
},
{
place = (-52, 34);
place = (-52, 34);
type = Stem;
},
{
place = (320, -33);
place = (320, -33);
type = Stem;
},
{
horizontal = 1;
place = (629, -32);
place = (629, -32);
type = Stem;
},
{
horizontal = 1;
place = (628, 29);
place = (628, 29);
type = Stem;
}
);
layerId = m01;
shapes = (
{
closed = 1;
nodes = (
(344,811,o),
(356,752,o),
(431,752,cs),
(500,752,o),
(552,803,o),
(569,901,c),
(479,901,l),
(472,862,o),
(460,843,o),
(449,843,cs),
(425,843,o),
(405,903,o),
(340,903,cs),
(270,903,o),
(217,848,o),
(200,751,c),
(286,751,l),
(293,791,o),
(304,811,o),
(317,811,cs)
);
},
{
closed = 1;
nodes = (
(494,697,l),
(419,272,l),
(231,697,l),
(71,697,l),
(-52,0,l),
(105,0,l),
(180,427,l),
(367,0,l),
(528,0,l),
(651,697,l)
);
}
);
width = 722;
}
);
note = Ntilde;
unicode = 209;
},
{
glyphname = O;
kernLeft = C;
kernRight = D;
lastChange = "2022-12-26 08:52:30 +0000";
layers = (
{
hints = (
{
horizontal = 1;
place = (-141, 27);
place = (-141, 27);
type = Stem;
},
{
horizontal = 1;
place = (442, 27);
place = (442, 27);
type = Stem;
},
{
place = (-102, 34);
place = (-102, 34);
type = Stem;
},
{
place = (423, 35);
place = (423, 35);
type = Stem;
}
);
layerId = m01;
shapes = (
{
closed = 1;
nodes = (
(438,-18,o),
(604,128,o),
(642,348,cs),
(681,569,o),
(569,715,o),
(365,715,cs),
(163,715,o),
(-2,568,o),
(-41,348,cs),
(-79,129,o),
(34,-18,o),
(236,-18,cs)
);
},
{
closed = 1;
nodes = (
(146,105,o),
(93,213,o),
(116,348,cs),
(140,484,o),
(231,592,o),
(343,592,cs),
(456,592,o),
(508,482,o),
(484,348,cs),
(461,215,o),
(371,105,o),
(258,105,cs)
);
}
);
width = 725;
}
);
note = O;
unicode = 79;
},
{
glyphname = Oacute;
kernLeft = C;
kernRight = D;
lastChange = "2022-12-26 08:52:30 +0000";
layers = (
{
hints = (
{
horizontal = 1;
place = (-141, 27);
place = (-141, 27);
type = Stem;
},
{
horizontal = 1;
place = (442, 27);
place = (442, 27);
type = Stem;
},
{
horizontal = 1;
place = (635, 20);
place = (635, 20);
type = Stem;
},
{
place = (-102, 34);
place = (-102, 34);
type = Stem;
},
{
place = (423, 35);
place = (423, 35);
type = Stem;
}
);
layerId = m01;
shapes = (
{
closed = 1;
nodes = (
(318,758,l),
(427,758,l),
(618,901,l),
(456,901,l)
);
},
{
closed = 1;
nodes = (
(438,-18,o),
(604,128,o),
(642,348,cs),
(681,569,o),
(569,715,o),
(365,715,cs),
(163,715,o),
(-2,568,o),
(-41,348,cs),
(-79,129,o),
(34,-18,o),
(236,-18,cs)
);
},
{
closed = 1;
nodes = (
(150,132,o),
(93,213,o),
(116,348,cs),
(140,484,o),
(227,565,o),
(339,565,cs),
(452,565,o),
(508,482,o),
(484,348,cs),
(461,215,o),
(375,132,o),
(262,132,cs)
);
}
);
width = 725;
}
);
note = Oacute;
unicode = 211;
},
{
glyphname = uni01D1;
kernLeft = C;
kernRight = D;
lastChange = "2022-12-26 08:52:30 +0000";
layers = (
{
hints = (
{
horizontal = 1;
place = (-141, 27);
place = (-141, 27);
type = Stem;
},
{
horizontal = 1;
place = (442, 27);
place = (442, 27);
type = Stem;
},
{
place = (-102, 34);
place = (-102, 34);
type = Stem;
},
{
place = (423, 35);
place = (423, 35);
type = Stem;
}
);
layerId = m01;
shapes = (
{
closed = 1;
nodes = (
(368,730,l),
(558,901,l),
(444,901,l),
(389,851,l),
(353,901,l),
(238,901,l)
);
},
{
closed = 1;
nodes = (
(438,-18,o),
(604,128,o),
(642,348,cs),
(681,569,o),
(569,715,o),
(365,715,cs),
(163,715,o),
(-2,568,o),
(-41,348,cs),
(-79,129,o),
(34,-18,o),
(236,-18,cs)
);
},
{
closed = 1;
nodes = (
(150,132,o),
(93,213,o),
(116,348,cs),
(140,484,o),
(227,565,o),
(339,565,cs),
(452,565,o),
(508,482,o),
(484,348,cs),
(461,215,o),
(375,132,o),
(262,132,cs)
);
}
);
width = 725;
}
);
note = uni01D1;
unicode = 465;
},
{
glyphname = Ocircumflex;
kernLeft = C;
kernRight = D;
lastChange = "2022-12-26 08:52:30 +0000";
layers = (
{
hints = (
{
horizontal = 1;
place = (-141, 27);
place = (-141, 27);
type = Stem;
},
{
horizontal = 1;
place = (442, 27);
place = (442, 27);
type = Stem;
},
{
place = (-102, 34);
place = (-102, 34);
type = Stem;
},
{
place = (423, 35);
place = (423, 35);
type = Stem;
}
);
layerId = m01;
shapes = (
{
closed = 1;
nodes = (
(210,741,l),
(324,741,l),
(380,797,l),
(416,741,l),
(530,741,l),
(402,924,l)
);
},
{
closed = 1;
nodes = (
(438,-18,o),
(604,128,o),
(642,348,cs),
(681,569,o),
(569,715,o),
(365,715,cs),
(163,715,o),
(-2,568,o),
(-41,348,cs),
(-79,129,o),
(34,-18,o),
(236,-18,cs)
);
},
{
closed = 1;
nodes = (
(150,132,o),
(93,213,o),
(116,348,cs),
(140,484,o),
(227,565,o),
(339,565,cs),
(452,565,o),
(508,482,o),
(484,348,cs),
(461,215,o),
(375,132,o),
(262,132,cs)
);
}
);
width = 725;
}
);
note = Ocircumflex;
unicode = 212;
},
{
glyphname = uni1ED0;
kernLeft = C;
kernRight = D;
lastChange = "2022-12-26 08:52:30 +0000";
layers = (
{
hints = (
{
horizontal = 1;
place = (-141, 27);
place = (-141, 27);
type = Stem;
},
{
horizontal = 1;
place = (442, 27);
place = (442, 27);
type = Stem;
},
{
horizontal = 1;
place = (822, 20);
place = (822, 20);
type = Stem;
},
{
place = (-102, 34);
place = (-102, 34);
type = Stem;
},
{
place = (423, 35);
place = (423, 35);
type = Stem;
}
);
layerId = m01;
shapes = (
{
closed = 1;
nodes = (
(351,945,l),
(460,945,l),
(651,1088,l),
(489,1088,l)
);
},
{
closed = 1;
nodes = (
(210,741,l),
(324,741,l),
(380,797,l),
(416,741,l),
(530,741,l),
(402,924,l)
);
},
{
closed = 1;
nodes = (
(438,-18,o),
(604,128,o),
(642,348,cs),
(681,569,o),
(569,715,o),
(365,715,cs),
(163,715,o),
(-2,568,o),
(-41,348,cs),
(-79,129,o),
(34,-18,o),
(236,-18,cs)
);
},
{
closed = 1;
nodes = (
(150,132,o),
(93,213,o),
(116,348,cs),
(140,484,o),
(227,565,o),
(339,565,cs),
(452,565,o),
(508,482,o),
(484,348,cs),
(461,215,o),
(375,132,o),
(262,132,cs)
);
}
);
width = 725;
}
);
note = uni1ED0;
unicode = 7888;
},
{
glyphname = uni1ED8;
kernLeft = C;
kernRight = D;
lastChange = "2022-12-26 08:52:30 +0000";
layers = (
{
hints = (
{
horizontal = 1;
place = (-296, -6);
place = (-296, -6);
type = Stem;
},
{
horizontal = 1;
place = (-141, 27);
place = (-141, 27);
type = Stem;
},
{
horizontal = 1;
place = (442, 27);
place = (442, 27);
type = Stem;
},
{
place = (-102, 34);
place = (-102, 34);
type = Stem;
},
{
place = (163, 31);
place = (163, 31);
type = Stem;
},
{
place = (423, 35);
place = (423, 35);
type = Stem;
}
);
layerId = m01;
shapes = (
{
closed = 1;
nodes = (
(210,741,l),
(324,741,l),
(380,797,l),
(416,741,l),
(530,741,l),
(402,924,l)
);
},
{
closed = 1;
nodes = (
(438,-18,o),
(604,128,o),
(642,348,cs),
(681,569,o),
(569,715,o),
(365,715,cs),
(163,715,o),
(-2,568,o),
(-41,348,cs),
(-79,129,o),
(34,-18,o),
(236,-18,cs)
);
},
{
closed = 1;
nodes = (
(150,132,o),
(93,213,o),
(116,348,cs),
(140,484,o),
(227,565,o),
(339,565,cs),
(452,565,o),
(508,482,o),
(484,348,cs),
(461,215,o),
(375,132,o),
(262,132,cs)
);
},
{
closed = 1;
nodes = (
(133,-173,l),
(287,-173,l),
(307,-56,l),
(153,-56,l)
);
}
);
width = 725;
}
);
note = uni1ED8;
unicode = 7896;
},
{
glyphname = uni1ED2;
kernLeft = C;
kernRight = D;
lastChange = "2022-12-26 08:52:30 +0000";
layers = (
{
hints = (
{
horizontal = 1;
place = (-141, 27);
place = (-141, 27);
type = Stem;
},
{
horizontal = 1;
place = (442, 27);
place = (442, 27);
type = Stem;
},
{
horizontal = 1;
place = (822, 20);
place = (822, 20);
type = Stem;
},
{
place = (-102, 34);
place = (-102, 34);
type = Stem;
},
{
place = (423, 35);
place = (423, 35);
type = Stem;
}
);
layerId = m01;
shapes = (
{
closed = 1;
nodes = (
(350,945,l),
(461,945,l),
(382,1088,l),
(222,1088,l)
);
},
{
closed = 1;
nodes = (
(210,741,l),
(324,741,l),
(380,797,l),
(416,741,l),
(530,741,l),
(402,924,l)
);
},
{
closed = 1;
nodes = (
(438,-18,o),
(604,128,o),
(642,348,cs),
(681,569,o),
(569,715,o),
(365,715,cs),
(163,715,o),
(-2,568,o),
(-41,348,cs),
(-79,129,o),
(34,-18,o),
(236,-18,cs)
);
},
{
closed = 1;
nodes = (
(150,132,o),
(93,213,o),
(116,348,cs),
(140,484,o),
(227,565,o),
(339,565,cs),
(452,565,o),
(508,482,o),
(484,348,cs),
(461,215,o),
(375,132,o),
(262,132,cs)
);
}
);
width = 725;
}
);
note = uni1ED2;
unicode = 7890;
},
{
glyphname = uni1ED4;
kernLeft = C;
kernRight = D;
lastChange = "2022-12-26 08:52:30 +0000";
layers = (
{
hints = (
{
horizontal = 1;
place = (-141, 27);
place = (-141, 27);
type = Stem;
},
{
horizontal = 1;
place = (442, 27);
place = (442, 27);
type = Stem;
},
{
horizontal = 1;
place = (618, 98);
place = (618, 98);
type = Stem;
},
{
horizontal = 1;
place = (894, -31);
place = (894, -31);
type = Stem;
},
{
place = (-102, 34);
place = (-102, 34);
type = Stem;
},
{
place = (250, -18);
place = (250, -18);
type = Stem;
},
{
place = (423, 35);
place = (423, 35);
type = Stem;
},
{
horizontal = 1;
place = (779, -62);
place = (779, -62);
type = Stem;
}
);
layerId = m01;
shapes = (
{
closed = 1;
nodes = (
(324,741,l),
(380,797,l),
(416,741,l),
(530,741,l),
(413,908,l),
(465,918,o),
(521,940,o),
(532,1002,cs),
(544,1071,o),
(481,1109,o),
(375,1109,cs),
(359,1109,l),
(342,1017,l),
(358,1017,ls),
(395,1017,o),
(429,1017,o),
(425,991,cs),
(421,967,o),
(393,966,o),
(365,962,c),
(371,901,l),
(374,901,o),
(376,902,o),
(379,902,c),
(210,741,l)
);
},
{
closed = 1;
nodes = (
(163,715,o),
(-2,568,o),
(-41,348,cs),
(-79,129,o),
(34,-18,o),
(236,-18,cs),
(438,-18,o),
(604,128,o),
(642,348,cs),
(681,569,o),
(569,715,o),
(365,715,cs)
);
},
{
closed = 1;
nodes = (
(150,132,o),
(93,213,o),
(116,348,cs),
(140,484,o),
(227,565,o),
(339,565,cs),
(452,565,o),
(508,482,o),
(484,348,cs),
(461,215,o),
(375,132,o),
(262,132,cs)
);
}
);
width = 725;
}
);
note = uni1ED4;
unicode = 7892;
},
{
glyphname = uni1ED6;
kernLeft = C;
kernRight = D;
lastChange = "2022-12-26 08:52:30 +0000";
layers = (
{
hints = (
{
horizontal = 1;
place = (-141, 27);
place = (-141, 27);
type = Stem;
},
{
horizontal = 1;
place = (442, 27);
place = (442, 27);
type = Stem;
},
{
horizontal = 1;
place = (816, 26);
place = (816, 26);
type = Stem;
},
{
place = (-102, 34);
place = (-102, 34);
type = Stem;
},
{
place = (423, 35);
place = (423, 35);
type = Stem;
},
{
place = (320, -33);
place = (320, -33);
type = Stem;
},
{
horizontal = 1;
place = (816, -32);
place = (816, -32);
type = Stem;
},
{
horizontal = 1;
place = (815, 29);
place = (815, 29);
type = Stem;
},
{
place = (67, -37);
place = (67, -37);
type = Stem;
},
{
horizontal = 1;
place = (875, -31);
place = (875, -31);
type = Stem;
}
);
layerId = m01;
shapes = (
{
closed = 1;
nodes = (
(533,939,o),
(585,990,o),
(602,1088,c),
(512,1088,l),
(505,1049,o),
(493,1030,o),
(482,1030,cs),
(458,1030,o),
(438,1090,o),
(373,1090,cs),
(303,1090,o),
(250,1035,o),
(232,938,c),
(318,938,l),
(326,978,o),
(337,998,o),
(350,998,cs),
(377,998,o),
(389,939,o),
(464,939,cs)
);
},
{
closed = 1;
nodes = (
(210,741,l),
(324,741,l),
(380,797,l),
(416,741,l),
(530,741,l),
(402,924,l)
);
},
{
closed = 1;
nodes = (
(438,-18,o),
(604,128,o),
(642,348,cs),
(681,569,o),
(569,715,o),
(365,715,cs),
(163,715,o),
(-2,568,o),
(-41,348,cs),
(-79,129,o),
(34,-18,o),
(236,-18,cs)
);
},
{
closed = 1;
nodes = (
(150,132,o),
(93,213,o),
(116,348,cs),
(140,484,o),
(227,565,o),
(339,565,cs),
(452,565,o),
(508,482,o),
(484,348,cs),
(461,215,o),
(375,132,o),
(262,132,cs)
);
}
);
width = 725;
}
);
note = uni1ED6;
unicode = 7894;
},
{
glyphname = Odieresis;
kernLeft = C;
kernRight = D;
lastChange = "2022-12-26 08:52:30 +0000";
layers = (
{
hints = (
{
horizontal = 1;
place = (-141, 27);
place = (-141, 27);
type = Stem;
},
{
horizontal = 1;
place = (442, 27);
place = (442, 27);
type = Stem;
},
{
horizontal = 1;
place = (642, 13);
place = (642, 13);
type = Stem;
},
{
place = (80, -9);
place = (80, -9);
type = Stem;
},
{
place = (284, -9);
place = (284, -9);
type = Stem;
},
{
place = (-102, 34);
place = (-102, 34);
type = Stem;
},
{
place = (423, 35);
place = (423, 35);
type = Stem;
}
);
layerId = m01;
shapes = (
{
closed = 1;
nodes = (
(215,765,l),
(329,765,l),
(353,901,l),
(239,901,l)
);
},
{
closed = 1;
nodes = (
(419,765,l),
(533,765,l),
(557,901,l),
(443,901,l)
);
},
{
closed = 1;
nodes = (
(438,-18,o),
(604,128,o),
(642,348,cs),
(681,569,o),
(569,715,o),
(365,715,cs),
(163,715,o),
(-2,568,o),
(-41,348,cs),
(-79,129,o),
(34,-18,o),
(236,-18,cs)
);
},
{
closed = 1;
nodes = (
(150,132,o),
(93,213,o),
(116,348,cs),
(140,484,o),
(227,565,o),
(339,565,cs),
(452,565,o),
(508,482,o),
(484,348,cs),
(461,215,o),
(375,132,o),
(262,132,cs)
);
}
);
width = 725;
}
);
note = Odieresis;
unicode = 214;
},
{
glyphname = uni1ECC;
kernLeft = C;
kernRight = D;
lastChange = "2022-12-26 08:52:30 +0000";
layers = (
{
hints = (
{
horizontal = 1;
place = (-296, -6);
place = (-296, -6);
type = Stem;
},
{
horizontal = 1;
place = (-141, 27);
place = (-141, 27);
type = Stem;
},
{
horizontal = 1;
place = (442, 27);
place = (442, 27);
type = Stem;
},
{
place = (-102, 34);
place = (-102, 34);
type = Stem;
},
{
place = (163, 31);
place = (163, 31);
type = Stem;
},
{
place = (423, 35);
place = (423, 35);
type = Stem;
}
);
layerId = m01;
shapes = (
{
closed = 1;
nodes = (
(438,-18,o),
(604,128,o),
(642,348,cs),
(681,569,o),
(569,715,o),
(365,715,cs),
(163,715,o),
(-2,568,o),
(-41,348,cs),
(-79,129,o),
(34,-18,o),
(236,-18,cs)
);
},
{
closed = 1;
nodes = (
(150,132,o),
(93,213,o),
(116,348,cs),
(140,484,o),
(227,565,o),
(339,565,cs),
(452,565,o),
(508,482,o),
(484,348,cs),
(461,215,o),
(375,132,o),
(262,132,cs)
);
},
{
closed = 1;
nodes = (
(133,-173,l),
(287,-173,l),
(307,-56,l),
(153,-56,l)
);
}
);
width = 725;
}
);
note = uni1ECC;
unicode = 7884;
},
{
glyphname = Ograve;
kernLeft = C;
kernRight = D;
lastChange = "2022-12-26 08:52:30 +0000";
layers = (
{
hints = (
{
horizontal = 1;
place = (-141, 27);
place = (-141, 27);
type = Stem;
},
{
horizontal = 1;
place = (442, 27);
place = (442, 27);
type = Stem;
},
{
horizontal = 1;
place = (635, 20);
place = (635, 20);
type = Stem;
},
{
place = (-102, 34);
place = (-102, 34);
type = Stem;
},
{
place = (423, 35);
place = (423, 35);
type = Stem;
}
);
layerId = m01;
shapes = (
{
closed = 1;
nodes = (
(317,758,l),
(428,758,l),
(349,901,l),
(189,901,l)
);
},
{
closed = 1;
nodes = (
(438,-18,o),
(604,128,o),
(642,348,cs),
(681,569,o),
(569,715,o),
(365,715,cs),
(163,715,o),
(-2,568,o),
(-41,348,cs),
(-79,129,o),
(34,-18,o),
(236,-18,cs)
);
},
{
closed = 1;
nodes = (
(150,132,o),
(93,213,o),
(116,348,cs),
(140,484,o),
(227,565,o),
(339,565,cs),
(452,565,o),
(508,482,o),
(484,348,cs),
(461,215,o),
(375,132,o),
(262,132,cs)
);
}
);
width = 725;
}
);
note = Ograve;
unicode = 210;
},
{
glyphname = uni1ECE;
kernLeft = C;
kernRight = D;
lastChange = "2022-12-26 08:52:30 +0000";
layers = (
{
hints = (
{
horizontal = 1;
place = (-141, 27);
place = (-141, 27);
type = Stem;
},
{
horizontal = 1;
place = (442, 27);
place = (442, 27);
type = Stem;
},
{
horizontal = 1;
place = (707, -31);
place = (707, -31);
type = Stem;
},
{
place = (-102, 34);
place = (-102, 34);
type = Stem;
},
{
place = (250, -18);
place = (250, -18);
type = Stem;
},
{
place = (423, 35);
place = (423, 35);
type = Stem;
},
{
horizontal = 1;
place = (591, -62);
place = (591, -62);
type = Stem;
},
{
horizontal = 1;
place = (442, 26);
place = (442, 26);
type = Stem;
}
);
layerId = m01;
shapes = (
{
closed = 1;
nodes = (
(356,715,o),
(348,715,o),
(339,714,cs),
(398,722,o),
(485,737,o),
(499,815,cs),
(511,884,o),
(448,922,o),
(342,922,cs),
(326,922,l),
(309,830,l),
(325,830,ls),
(362,830,o),
(396,830,o),
(392,804,cs),
(388,780,o),
(360,779,o),
(332,775,c),
(338,714,l),
(149,702,o),
(-4,558,o),
(-41,348,cs),
(-79,129,o),
(34,-18,o),
(236,-18,cs),
(438,-18,o),
(604,128,o),
(642,348,cs),
(681,569,o),
(569,715,o),
(365,715,cs)
);
},
{
closed = 1;
nodes = (
(150,132,o),
(93,213,o),
(116,348,cs),
(140,484,o),
(227,565,o),
(339,565,cs),
(452,565,o),
(508,482,o),
(484,348,cs),
(461,215,o),
(375,132,o),
(262,132,cs)
);
}
);
width = 725;
}
);
note = uni1ECE;
unicode = 7886;
},
{
glyphname = Ohorn;
kernLeft = C;
kernRight = D;
lastChange = "2022-12-26 08:52:30 +0000";
layers = (
{
hints = (
{
horizontal = 1;
place = (-141, 27);
place = (-141, 27);
type = Stem;
},
{
horizontal = 1;
place = (574, -20);
target = down;
type = TopGhost;
},
{
place = (-102, 34);
place = (-102, 34);
type = Stem;
},
{
place = (530, -19);
place = (530, -19);
type = Stem;
},
{
horizontal = 1;
place = (442, 27);
place = (442, 27);
type = Stem;
},
{
place = (423, 35);
place = (423, 35);
type = Stem;
}
);
layerId = m01;
shapes = (
{
closed = 1;
nodes = (
(653,697,l),
(649,672,ls),
(642,635,o),
(630,609,o),
(607,597,c),
(560,672,o),
(476,715,o),
(365,715,cs),
(163,715,o),
(-2,568,o),
(-41,348,cs),
(-79,129,o),
(34,-18,o),
(236,-18,cs),
(438,-18,o),
(604,128,o),
(642,348,cs),
(653,408,o),
(653,462,o),
(642,509,c),
(705,538,o),
(740,599,o),
(751,663,cs),
(757,697,l)
);
},
{
closed = 1;
nodes = (
(150,132,o),
(93,213,o),
(116,348,cs),
(140,484,o),
(227,565,o),
(339,565,cs),
(452,565,o),
(508,482,o),
(484,348,cs),
(461,215,o),
(375,132,o),
(262,132,cs)
);
}
);
width = 725;
}
);
note = Ohorn;
unicode = 416;
},
{
glyphname = uni1EDA;
kernLeft = C;
kernRight = D;
lastChange = "2022-12-26 08:52:30 +0000";
layers = (
{
hints = (
{
horizontal = 1;
place = (-141, 27);
place = (-141, 27);
type = Stem;
},
{
horizontal = 1;
place = (574, -20);
target = down;
type = TopGhost;
},
{
horizontal = 1;
place = (635, 20);
place = (635, 20);
type = Stem;
},
{
place = (-102, 34);
place = (-102, 34);
type = Stem;
},
{
place = (423, 35);
place = (423, 35);
type = Stem;
},
{
place = (530, -19);
place = (530, -19);
type = Stem;
},
{
horizontal = 1;
place = (442, 27);
place = (442, 27);
type = Stem;
}
);
layerId = m01;
shapes = (
{
closed = 1;
nodes = (
(618,901,l),
(456,901,l),
(318,758,l),
(427,758,l)
);
},
{
closed = 1;
nodes = (
(653,697,l),
(649,672,ls),
(642,635,o),
(630,609,o),
(607,597,c),
(560,672,o),
(476,715,o),
(365,715,cs),
(163,715,o),
(-2,568,o),
(-41,348,cs),
(-79,129,o),
(34,-18,o),
(236,-18,cs),
(438,-18,o),
(604,128,o),
(642,348,cs),
(653,408,o),
(653,462,o),
(642,509,c),
(705,538,o),
(740,599,o),
(751,663,cs),
(757,697,l)
);
},
{
closed = 1;
nodes = (
(150,132,o),
(93,213,o),
(116,348,cs),
(140,484,o),
(227,565,o),
(339,565,cs),
(452,565,o),
(508,482,o),
(484,348,cs),
(461,215,o),
(375,132,o),
(262,132,cs)
);
}
);
width = 725;
}
);
note = uni1EDA;
unicode = 7898;
},
{
glyphname = uni1EE2;
kernLeft = C;
kernRight = D;
lastChange = "2022-12-26 08:52:30 +0000";
layers = (
{
hints = (
{
horizontal = 1;
place = (-296, -6);
place = (-296, -6);
type = Stem;
},
{
horizontal = 1;
place = (-141, 27);
place = (-141, 27);
type = Stem;
},
{
horizontal = 1;
place = (574, -20);
target = down;
type = TopGhost;
},
{
place = (-102, 34);
place = (-102, 34);
type = Stem;
},
{
place = (163, 31);
place = (163, 31);
type = Stem;
},
{
place = (530, -19);
place = (530, -19);
type = Stem;
},
{
horizontal = 1;
place = (442, 27);
place = (442, 27);
type = Stem;
},
{
place = (423, 35);
place = (423, 35);
type = Stem;
}
);
layerId = m01;
shapes = (
{
closed = 1;
nodes = (
(653,697,l),
(649,672,ls),
(642,635,o),
(630,609,o),
(607,597,c),
(560,672,o),
(476,715,o),
(365,715,cs),
(163,715,o),
(-2,568,o),
(-41,348,cs),
(-79,129,o),
(34,-18,o),
(236,-18,cs),
(438,-18,o),
(604,128,o),
(642,348,cs),
(653,408,o),
(653,462,o),
(642,509,c),
(705,538,o),
(740,599,o),
(751,663,cs),
(757,697,l)
);
},
{
closed = 1;
nodes = (
(150,132,o),
(93,213,o),
(116,348,cs),
(140,484,o),
(227,565,o),
(339,565,cs),
(452,565,o),
(508,482,o),
(484,348,cs),
(461,215,o),
(375,132,o),
(262,132,cs)
);
},
{
closed = 1;
nodes = (
(133,-173,l),
(287,-173,l),
(307,-56,l),
(153,-56,l)
);
}
);
width = 725;
}
);
note = uni1EE2;
unicode = 7906;
},
{
glyphname = uni1EDC;
kernLeft = C;
kernRight = D;
lastChange = "2022-12-26 08:52:30 +0000";
layers = (
{
hints = (
{
horizontal = 1;
place = (-141, 27);
place = (-141, 27);
type = Stem;
},
{
horizontal = 1;
place = (574, -20);
target = down;
type = TopGhost;
},
{
horizontal = 1;
place = (635, 20);
place = (635, 20);
type = Stem;
},
{
place = (-102, 34);
place = (-102, 34);
type = Stem;
},
{
place = (423, 35);
place = (423, 35);
type = Stem;
},
{
place = (530, -19);
place = (530, -19);
type = Stem;
},
{
horizontal = 1;
place = (442, 27);
place = (442, 27);
type = Stem;
}
);
layerId = m01;
shapes = (
{
closed = 1;
nodes = (
(428,758,l),
(349,901,l),
(189,901,l),
(317,758,l)
);
},
{
closed = 1;
nodes = (
(653,697,l),
(649,672,ls),
(642,635,o),
(630,609,o),
(607,597,c),
(560,672,o),
(476,715,o),
(365,715,cs),
(163,715,o),
(-2,568,o),
(-41,348,cs),
(-79,129,o),
(34,-18,o),
(236,-18,cs),
(438,-18,o),
(604,128,o),
(642,348,cs),
(653,408,o),
(653,462,o),
(642,509,c),
(705,538,o),
(740,599,o),
(751,663,cs),
(757,697,l)
);
},
{
closed = 1;
nodes = (
(150,132,o),
(93,213,o),
(116,348,cs),
(140,484,o),
(227,565,o),
(339,565,cs),
(452,565,o),
(508,482,o),
(484,348,cs),
(461,215,o),
(375,132,o),
(262,132,cs)
);
}
);
width = 725;
}
);
note = uni1EDC;
unicode = 7900;
},
{
glyphname = uni1EDE;
kernLeft = C;
kernRight = D;
lastChange = "2022-12-26 08:52:30 +0000";
layers = (
{
hints = (
{
horizontal = 1;
place = (-141, 27);
place = (-141, 27);
type = Stem;
},
{
horizontal = 1;
place = (574, -20);
target = down;
type = TopGhost;
},
{
horizontal = 1;
place = (707, -31);
place = (707, -31);
type = Stem;
},
{
place = (-102, 34);
place = (-102, 34);
type = Stem;
},
{
place = (250, -18);
place = (250, -18);
type = Stem;
},
{
place = (530, -19);
place = (530, -19);
type = Stem;
},
{
horizontal = 1;
place = (442, 27);
place = (442, 27);
type = Stem;
},
{
place = (423, 35);
place = (423, 35);
type = Stem;
},
{
horizontal = 1;
place = (591, -62);
place = (591, -62);
type = Stem;
},
{
horizontal = 1;
place = (442, 26);
place = (442, 26);
type = Stem;
}
);
layerId = m01;
shapes = (
{
closed = 1;
nodes = (
(653,697,l),
(649,672,ls),
(642,635,o),
(630,609,o),
(607,597,c),
(560,672,o),
(476,715,o),
(365,715,cs),
(356,715,o),
(348,715,o),
(339,714,cs),
(398,722,o),
(485,737,o),
(499,815,cs),
(511,884,o),
(448,922,o),
(342,922,cs),
(326,922,l),
(309,830,l),
(325,830,ls),
(362,830,o),
(396,830,o),
(392,804,cs),
(388,780,o),
(360,779,o),
(332,775,c),
(338,714,l),
(149,702,o),
(-4,558,o),
(-41,348,cs),
(-79,129,o),
(34,-18,o),
(236,-18,cs),
(438,-18,o),
(604,128,o),
(642,348,cs),
(653,408,o),
(653,462,o),
(642,509,c),
(705,538,o),
(740,599,o),
(751,663,cs),
(757,697,l)
);
},
{
closed = 1;
nodes = (
(150,132,o),
(93,213,o),
(116,348,cs),
(140,484,o),
(227,565,o),
(339,565,cs),
(452,565,o),
(508,482,o),
(484,348,cs),
(461,215,o),
(375,132,o),
(262,132,cs)
);
}
);
width = 725;
}
);
note = uni1EDE;
unicode = 7902;
},
{
glyphname = uni1EE0;
kernLeft = C;
kernRight = D;
lastChange = "2022-12-26 08:52:30 +0000";
layers = (
{
hints = (
{
horizontal = 1;
place = (-141, 27);
place = (-141, 27);
type = Stem;
},
{
horizontal = 1;
place = (574, -20);
target = down;
type = TopGhost;
},
{
horizontal = 1;
place = (688, -31);
place = (688, -31);
type = Stem;
},
{
place = (-102, 34);
place = (-102, 34);
type = Stem;
},
{
place = (67, -37);
place = (67, -37);
type = Stem;
},
{
place = (423, 35);
place = (423, 35);
type = Stem;
},
{
horizontal = 1;
place = (629, 26);
place = (629, 26);
type = Stem;
},
{
place = (320, -33);
place = (320, -33);
type = Stem;
},
{
horizontal = 1;
place = (629, -32);
place = (629, -32);
type = Stem;
},
{
horizontal = 1;
place = (628, 29);
place = (628, 29);
type = Stem;
},
{
place = (530, -19);
place = (530, -19);
type = Stem;
},
{
horizontal = 1;
place = (442, 27);
place = (442, 27);
type = Stem;
}
);
layerId = m01;
shapes = (
{
closed = 1;
nodes = (
(344,811,o),
(356,752,o),
(431,752,cs),
(500,752,o),
(552,803,o),
(569,901,c),
(479,901,l),
(472,862,o),
(460,843,o),
(449,843,cs),
(425,843,o),
(405,903,o),
(340,903,cs),
(270,903,o),
(217,848,o),
(200,751,c),
(286,751,l),
(293,791,o),
(304,811,o),
(317,811,cs)
);
},
{
closed = 1;
nodes = (
(653,697,l),
(649,672,ls),
(642,635,o),
(630,609,o),
(607,597,c),
(560,672,o),
(476,715,o),
(365,715,cs),
(163,715,o),
(-2,568,o),
(-41,348,cs),
(-79,129,o),
(34,-18,o),
(236,-18,cs),
(438,-18,o),
(604,128,o),
(642,348,cs),
(653,408,o),
(653,462,o),
(642,509,c),
(705,538,o),
(740,599,o),
(751,663,cs),
(757,697,l)
);
},
{
closed = 1;
nodes = (
(150,132,o),
(93,213,o),
(116,348,cs),
(140,484,o),
(227,565,o),
(339,565,cs),
(452,565,o),
(508,482,o),
(484,348,cs),
(461,215,o),
(375,132,o),
(262,132,cs)
);
}
);
width = 725;
}
);
note = uni1EE0;
unicode = 7904;
},
{
glyphname = Ohungarumlaut;
kernLeft = C;
kernRight = D;
lastChange = "2022-12-26 08:52:30 +0000";
layers = (
{
hints = (
{
horizontal = 1;
place = (-141, 27);
place = (-141, 27);
type = Stem;
},
{
horizontal = 1;
place = (608, 47);
place = (608, 47);
type = Stem;
},
{
place = (-102, 34);
place = (-102, 34);
type = Stem;
},
{
place = (423, 35);
place = (423, 35);
type = Stem;
},
{
horizontal = 1;
place = (442, 27);
place = (442, 27);
type = Stem;
}
);
layerId = m01;
shapes = (
{
closed = 1;
nodes = (
(211,731,l),
(320,731,l),
(489,901,l),
(354,901,l)
);
},
{
closed = 1;
nodes = (
(416,731,l),
(525,731,l),
(719,901,l),
(559,901,l)
);
},
{
closed = 1;
nodes = (
(438,-18,o),
(604,128,o),
(642,348,cs),
(681,569,o),
(569,715,o),
(365,715,cs),
(163,715,o),
(-2,568,o),
(-41,348,cs),
(-79,129,o),
(34,-18,o),
(236,-18,cs)
);
},
{
closed = 1;
nodes = (
(150,132,o),
(93,213,o),
(116,348,cs),
(140,484,o),
(227,565,o),
(339,565,cs),
(452,565,o),
(508,482,o),
(484,348,cs),
(461,215,o),
(375,132,o),
(262,132,cs)
);
}
);
width = 725;
}
);
note = Ohungarumlaut;
unicode = 336;
},
{
glyphname = Omacron;
kernLeft = C;
kernRight = D;
lastChange = "2022-12-26 08:52:30 +0000";
layers = (
{
hints = (
{
horizontal = 1;
place = (-141, 27);
place = (-141, 27);
type = Stem;
},
{
horizontal = 1;
place = (442, 27);
place = (442, 27);
type = Stem;
},
{
horizontal = 1;
place = (627, -36);
place = (627, -36);
type = Stem;
},
{
place = (-102, 34);
place = (-102, 34);
type = Stem;
},
{
place = (100, 155);
place = (100, 155);
type = Stem;
},
{
place = (423, 35);
place = (423, 35);
type = Stem;
}
);
layerId = m01;
shapes = (
{
closed = 1;
nodes = (
(232,750,l),
(510,750,l),
(526,837,l),
(248,837,l)
);
},
{
closed = 1;
nodes = (
(438,-18,o),
(604,128,o),
(642,348,cs),
(681,569,o),
(569,715,o),
(365,715,cs),
(163,715,o),
(-2,568,o),
(-41,348,cs),
(-79,129,o),
(34,-18,o),
(236,-18,cs)
);
},
{
closed = 1;
nodes = (
(150,132,o),
(93,213,o),
(116,348,cs),
(140,484,o),
(227,565,o),
(339,565,cs),
(452,565,o),
(508,482,o),
(484,348,cs),
(461,215,o),
(375,132,o),
(262,132,cs)
);
}
);
width = 725;
}
);
note = Omacron;
unicode = 332;
},
{
glyphname = Oslash;
kernLeft = C;
kernRight = D;
lastChange = "2022-12-26 08:52:30 +0000";
layers = (
{
hints = (
{
horizontal = 1;
place = (-141, 27);
place = (-141, 27);
type = Stem;
},
{
horizontal = 1;
place = (484, -33);
place = (484, -33);
type = Stem;
},
{
place = (-102, 34);
place = (-102, 34);
type = Stem;
},
{
place = (423, 35);
place = (423, 35);
type = Stem;
},
{
horizontal = 1;
place = (-123, -33);
place = (-123, -33);
type = Stem;
},
{
horizontal = 1;
place = (442, 27);
place = (442, 27);
type = Stem;
},
{
horizontal = 1;
place = (574, -20);
target = down;
type = TopGhost;
}
);
layerId = m01;
shapes = (
{
closed = 1;
nodes = (
(687,697,l),
(585,697,l),
(549,660,l),
(502,695,o),
(440,715,o),
(365,715,cs),
(163,715,o),
(-2,568,o),
(-41,348,cs),
(-59,242,o),
(-43,154,o),
(2,90,c),
(-84,0,l),
(19,0,l),
(55,37,l),
(101,1,o),
(163,-18,o),
(236,-18,cs),
(438,-18,o),
(604,128,o),
(642,348,cs),
(661,454,o),
(645,543,o),
(600,607,c)
);
},
{
closed = 1;
nodes = (
(140,484,o),
(227,565,o),
(339,565,cs),
(377,565,o),
(408,556,o),
(433,538,c),
(124,217,l),
(110,251,o),
(107,296,o),
(116,348,cs)
);
},
{
closed = 1;
nodes = (
(225,132,o),
(194,141,o),
(170,158,c),
(477,478,l),
(490,444,o),
(494,400,o),
(484,348,cs),
(461,215,o),
(375,132,o),
(262,132,cs)
);
}
);
width = 725;
}
);
note = Oslash;
unicode = 216;
},
{
glyphname = Otilde;
kernLeft = C;
kernRight = D;
lastChange = "2022-12-26 08:52:30 +0000";
layers = (
{
hints = (
{
horizontal = 1;
place = (-141, 27);
place = (-141, 27);
type = Stem;
},
{
horizontal = 1;
place = (442, 27);
place = (442, 27);
type = Stem;
},
{
horizontal = 1;
place = (629, 26);
place = (629, 26);
type = Stem;
},
{
place = (-102, 34);
place = (-102, 34);
type = Stem;
},
{
place = (423, 35);
place = (423, 35);
type = Stem;
},
{
place = (320, -33);
place = (320, -33);
type = Stem;
},
{
horizontal = 1;
place = (629, -32);
place = (629, -32);
type = Stem;
},
{
horizontal = 1;
place = (628, 29);
place = (628, 29);
type = Stem;
},
{
place = (67, -37);
place = (67, -37);
type = Stem;
},
{
horizontal = 1;
place = (688, -31);
place = (688, -31);
type = Stem;
}
);
layerId = m01;
shapes = (
{
closed = 1;
nodes = (
(500,752,o),
(552,803,o),
(569,901,c),
(479,901,l),
(472,862,o),
(460,843,o),
(449,843,cs),
(425,843,o),
(405,903,o),
(340,903,cs),
(270,903,o),
(217,848,o),
(200,751,c),
(286,751,l),
(293,791,o),
(304,811,o),
(317,811,cs),
(344,811,o),
(356,752,o),
(431,752,cs)
);
},
{
closed = 1;
nodes = (
(438,-18,o),
(604,128,o),
(642,348,cs),
(681,569,o),
(569,715,o),
(365,715,cs),
(163,715,o),
(-2,568,o),
(-41,348,cs),
(-79,129,o),
(34,-18,o),
(236,-18,cs)
);
},
{
closed = 1;
nodes = (
(150,132,o),
(93,213,o),
(116,348,cs),
(140,484,o),
(227,565,o),
(339,565,cs),
(452,565,o),
(508,482,o),
(484,348,cs),
(461,215,o),
(375,132,o),
(262,132,cs)
);
}
);
width = 725;
}
);
note = Otilde;
unicode = 213;
},
{
glyphname = OE;
kernLeft = C;
lastChange = "2022-12-26 08:52:30 +0000";
layers = (
{
hints = (
{
horizontal = 1;
place = (-123, 21);
place = (-123, 21);
type = Stem;
},
{
horizontal = 1;
place = (165, 22);
place = (165, 22);
type = Stem;
},
{
horizontal = 1;
place = (430, 21);
place = (430, 21);
type = Stem;
},
{
place = (-102, 34);
place = (-102, 34);
type = Stem;
},
{
place = (423, 40);
place = (423, 40);
type = Stem;
},
{
horizontal = 1;
place = (-141, 27);
place = (-141, 27);
type = Stem;
},
{
horizontal = 1;
place = (442, 27);
place = (442, 27);
type = Stem;
},
{
horizontal = 1;
place = (442, 9);
place = (442, 9);
type = Stem;
}
);
layerId = m01;
shapes = (
{
closed = 1;
nodes = (
(995,553,l),
(1020,697,l),
(552,697,l),
(546,662,l),
(499,696,o),
(438,715,o),
(365,715,cs),
(163,715,o),
(-2,568,o),
(-41,348,cs),
(-79,129,o),
(34,-18,o),
(236,-18,cs),
(309,-18,o),
(376,1,o),
(435,35,c),
(429,0,l),
(897,0,l),
(922,144,l),
(611,144,l),
(637,288,l),
(933,288,l),
(958,433,l),
(662,433,l),
(684,553,l)
);
},
{
closed = 1;
nodes = (
(150,132,o),
(93,213,o),
(116,348,cs),
(140,484,o),
(227,565,o),
(339,565,cs),
(452,565,o),
(508,482,o),
(484,348,cs),
(461,215,o),
(375,132,o),
(262,132,cs)
);
}
);
width = 1073;
}
);
note = OE;
unicode = 338;
},
{
glyphname = P;
kernLeft = B;
kernRight = P;
lastChange = "2022-12-26 08:52:30 +0000";
layers = (
{
hints = (
{
horizontal = 1;
place = (-123, 21);
target = up;
type = BottomGhost;
},
{
horizontal = 1;
place = (157, 21);
place = (157, 21);
type = Stem;
},
{
horizontal = 1;
place = (430, 21);
place = (430, 21);
type = Stem;
},
{
place = (-52, 33);
place = (-52, 33);
type = Stem;
},
{
place = (278, 34);
place = (278, 34);
type = Stem;
}
);
layerId = m01;
shapes = (
{
closed = 1;
nodes = (
(27,0,l),
(122,100,l),
(153,280,l),
(242,280,ls),
(362,280,o),
(503,387,o),
(522,492,qs),
(558,697,o),
(316,697,qs),
(71,697,l),
(-52,0,l)
);
},
{
closed = 1;
nodes = (
(202,553,l),
(275,553,ls),
(327,553,o),
(372,530,o),
(365,490,qs),
(357,448,o),
(300,424,o),
(252,424,qs),
(179,424,l)
);
}
);
width = 563;
}
);
note = P;
unicode = 80;
},
{
glyphname = Thorn;
kernLeft = B;
kernRight = Thorn;
lastChange = "2022-12-26 08:52:30 +0000";
layers = (
{
hints = (
{
horizontal = 1;
place = (-123, 21);
target = up;
type = BottomGhost;
},
{
horizontal = 1;
place = (68, 7);
place = (68, 7);
type = Stem;
},
{
horizontal = 1;
place = (358, -1);
place = (358, -1);
type = Stem;
},
{
horizontal = 1;
place = (574, -20);
target = down;
type = TopGhost;
},
{
place = (-52, 20);
place = (-52, 20);
type = Stem;
},
{
place = (278, 20);
place = (278, 20);
type = Stem;
}
);
layerId = m01;
shapes = (
{
closed = 1;
nodes = (
(-52,0,l),
(91,0,l),
(125,191,l),
(208,191,ls),
(364,191,o),
(469,270,o),
(492,404,cs),
(515,530,o),
(448,603,o),
(315,603,cs),
(197,603,l),
(214,697,l),
(71,697,l)
);
},
{
closed = 1;
nodes = (
(148,321,l),
(176,481,l),
(259,481,ls),
(323,481,o),
(359,460,o),
(348,399,cs),
(338,340,o),
(295,321,o),
(231,321,cs)
);
}
);
width = 548;
}
);
note = Thorn;
unicode = 222;
},
{
glyphname = Q;
kernLeft = C;
kernRight = Q;
lastChange = "2022-12-26 08:52:30 +0000";
layers = (
{
hints = (
{
horizontal = 1;
place = (-141, 27);
place = (-141, 27);
type = Stem;
},
{
horizontal = 1;
place = (442, 27);
place = (442, 27);
type = Stem;
},
{
place = (-102, 34);
place = (-102, 34);
type = Stem;
},
{
place = (423, 35);
place = (423, 35);
type = Stem;
}
);
layerId = m01;
shapes = (
{
closed = 1;
nodes = (
(580,0,l),
(593,75,l),
(546,130,l),
(593,189,o),
(627,263,o),
(642,348,cs),
(681,569,o),
(569,715,o),
(365,715,cs),
(163,715,o),
(-2,568,o),
(-41,348,cs),
(-79,128,o),
(35,-18,o),
(236,-18,cs),
(309,-18,o),
(378,1,o),
(437,36,c),
(537,-50,l)
);
},
{
closed = 1;
nodes = (
(148,110,o),
(93,213,o),
(116,348,cs),
(140,484,o),
(231,587,o),
(343,587,cs),
(456,587,o),
(508,482,o),
(484,348,cs),
(478,309,o),
(465,274,o),
(448,245,c),
(386,318,l),
(278,221,l),
(354,134,l),
(317,114,o),
(288,110,o),
(260,110,cs)
);
}
);
width = 754;
}
);
note = Q;
unicode = 81;
},
{
glyphname = R;
kernLeft = B;
kernRight = R;
lastChange = "2022-12-26 08:52:30 +0000";
layers = (
{
hints = (
{
horizontal = 1;
place = (-123, 21);
target = up;
type = BottomGhost;
},
{
horizontal = 1;
place = (154, 21);
place = (154, 21);
type = Stem;
},
{
horizontal = 1;
place = (430, 21);
place = (430, 21);
type = Stem;
},
{
place = (-52, 33);
place = (-52, 33);
type = Stem;
},
{
place = (278, 34);
place = (278, 34);
type = Stem;
}
);
layerId = m01;
shapes = (
{
closed = 1;
nodes = (
(487,0,o),
(476,25,qs),
(352,296,l),
(415,319,o),
(508,416,o),
(522,491,qs),
(530,538,o),
(517,614,o),
(469,668,o),
(382,697,o),
(316,697,qs),
(71,697,l),
(-52,0,l),
(27,0,l),
(123,100,l),
(154,277,l),
(169,277,l),
(194,277,l),
(305,0,l),
(457,0,ls)
);
},
{
closed = 1;
nodes = (
(203,553,l),
(276,553,ls),
(294,553,o),
(329,551,o),
(355,539,o),
(369,513,o),
(364,489,qs),
(360,465,o),
(338,437,o),
(307,424,o),
(270,421,o),
(252,421,qs),
(179,421,l)
);
}
);
width = 614;
}
);
note = R;
unicode = 82;
},
{
glyphname = Racute;
kernLeft = B;
kernRight = R;
lastChange = "2022-12-26 08:52:30 +0000";
layers = (
{
hints = (
{
horizontal = 1;
place = (-123, 21);
target = up;
type = BottomGhost;
},
{
horizontal = 1;
place = (154, 21);
place = (154, 21);
type = Stem;
},
{
horizontal = 1;
place = (430, 21);
place = (430, 21);
type = Stem;
},
{
horizontal = 1;
place = (635, 20);
place = (635, 20);
type = Stem;
},
{
place = (-52, 33);
place = (-52, 33);
type = Stem;
},
{
place = (278, 34);
place = (278, 34);
type = Stem;
}
);
layerId = m01;
shapes = (
{
closed = 1;
nodes = (
(562,901,l),
(400,901,l),
(262,758,l),
(371,758,l)
);
},
{
closed = 1;
nodes = (
(501,0,l),
(366,296,l),
(450,327,o),
(504,392,o),
(522,491,cs),
(544,615,o),
(492,697,o),
(316,697,cs),
(71,697,l),
(-52,0,l),
(104,0,l),
(153,277,l),
(168,277,l),
(207,277,l),
(319,0,l)
);
},
{
closed = 1;
nodes = (
(178,421,l),
(202,553,l),
(275,553,ls),
(324,553,o),
(376,553,o),
(364,489,cs),
(353,424,o),
(301,421,o),
(251,421,cs)
);
}
);
width = 614;
}
);
note = Racute;
unicode = 340;
},
{
glyphname = Rcaron;
kernLeft = B;
kernRight = R;
lastChange = "2022-12-26 08:52:30 +0000";
layers = (
{
hints = (
{
horizontal = 1;
place = (-123, 21);
target = up;
type = BottomGhost;
},
{
horizontal = 1;
place = (154, 21);
place = (154, 21);
type = Stem;
},
{
horizontal = 1;
place = (430, 21);
place = (430, 21);
type = Stem;
},
{
place = (-52, 33);
place = (-52, 33);
type = Stem;
},
{
place = (278, 34);
place = (278, 34);
type = Stem;
}
);
layerId = m01;
shapes = (
{
closed = 1;
nodes = (
(502,901,l),
(388,901,l),
(333,851,l),
(297,901,l),
(182,901,l),
(312,730,l)
);
},
{
closed = 1;
nodes = (
(501,0,l),
(366,296,l),
(450,327,o),
(504,392,o),
(522,491,cs),
(544,615,o),
(492,697,o),
(316,697,cs),
(71,697,l),
(-52,0,l),
(104,0,l),
(153,277,l),
(168,277,l),
(207,277,l),
(319,0,l)
);
},
{
closed = 1;
nodes = (
(178,421,l),
(202,553,l),
(275,553,ls),
(324,553,o),
(376,553,o),
(364,489,cs),
(353,424,o),
(301,421,o),
(251,421,cs)
);
}
);
width = 614;
}
);
note = Rcaron;
unicode = 344;
},
{
glyphname = uni0156;
kernLeft = B;
kernRight = R;
lastChange = "2022-12-26 08:52:30 +0000";
layers = (
{
hints = (
{
horizontal = 1;
place = (-352, 55);
place = (-352, 55);
type = Stem;
},
{
horizontal = 1;
place = (-123, 21);
target = up;
type = BottomGhost;
},
{
horizontal = 1;
place = (154, 21);
place = (154, 21);
type = Stem;
},
{
horizontal = 1;
place = (430, 21);
place = (430, 21);
type = Stem;
},
{
place = (-52, 33);
place = (-52, 33);
type = Stem;
},
{
place = (278, 34);
place = (278, 34);
type = Stem;
}
);
layerId = m01;
shapes = (
{
closed = 1;
nodes = (
(366,296,l),
(450,327,o),
(504,392,o),
(522,491,cs),
(544,615,o),
(492,697,o),
(316,697,cs),
(71,697,l),
(-52,0,l),
(104,0,l),
(153,277,l),
(168,277,l),
(207,277,l),
(319,0,l),
(501,0,l)
);
},
{
closed = 1;
nodes = (
(178,421,l),
(202,553,l),
(275,553,ls),
(324,553,o),
(376,553,o),
(364,489,cs),
(353,424,o),
(301,421,o),
(251,421,cs)
);
},
{
closed = 1;
nodes = (
(10,-229,l),
(96,-229,l),
(252,-51,l),
(95,-51,l)
);
}
);
width = 614;
}
);
note = uni0156;
unicode = 342;
},
{
glyphname = S;
kernLeft = S;
kernRight = S;
lastChange = "2022-12-26 08:52:30 +0000";
layers = (
{
hints = (
{
horizontal = 1;
place = (-138, 16);
place = (-138, 16);
type = Stem;
},
{
horizontal = 1;
place = (453, 16);
place = (453, 16);
type = Stem;
},
{
place = (-70, 34);
place = (-70, 34);
type = Stem;
},
{
place = (256, 33);
place = (256, 33);
type = Stem;
}
);
layerId = m01;
shapes = (
{
closed = 1;
nodes = (
(49,237,qs),
(-84,205,l),
(-85,155,o),
(-50,74,o),
(13,16,o),
(103,-15,o),
(157,-15,qs),
(210,-15,o),
(308,18,o),
(387,79,o),
(441,164,o),
(450,216,qs),
(457,253,o),
(447,311,o),
(409,359,o),
(341,401,o),
(289,423,qs),
(254,438,o),
(209,462,o),
(185,485,o),
(176,507,o),
(179,520,qs),
(183,545,o),
(228,576,o),
(255,576,qs),
(285,576,o),
(327,537,o),
(336,499,q),
(480,580,l),
(458,648,o),
(357,715,o),
(284,715,qs),
(233,715,o),
(144,686,o),
(75,633,o),
(29,561,o),
(21,517,qs),
(14,477,o),
(25,414,o),
(64,362,o),
(133,318,o),
(185,295,qs),
(248,267,o),
(296,226,o),
(292,202,qs),
(285,162,o),
(223,124,o),
(185,124,qs),
(139,124,o),
(82,167,o),
(79,214,qs),
(77,244,o)
);
}
);
width = 546;
}
);
note = S;
unicode = 83;
},
{
glyphname = Sacute;
kernLeft = S;
kernRight = S;
lastChange = "2022-12-26 08:52:30 +0000";
layers = (
{
hints = (
{
horizontal = 1;
place = (-138, 16);
place = (-138, 16);
type = Stem;
},
{
horizontal = 1;
place = (453, 16);
place = (453, 16);
type = Stem;
},
{
horizontal = 1;
place = (635, 20);
place = (635, 20);
type = Stem;
},
{
place = (-70, 34);
place = (-70, 34);
type = Stem;
},
{
place = (256, 33);
place = (256, 33);
type = Stem;
}
);
layerId = m01;
shapes = (
{
closed = 1;
nodes = (
(229,758,l),
(338,758,l),
(529,901,l),
(367,901,l)
);
},
{
closed = 1;
nodes = (
(299,-15,o),
(426,78,o),
(450,216,cs),
(468,315,o),
(428,365,o),
(289,423,cs),
(196,462,o),
(173,486,o),
(179,520,cs),
(185,553,o),
(219,576,o),
(255,576,cs),
(295,576,o),
(324,550,o),
(336,499,c),
(480,580,l),
(451,670,o),
(381,715,o),
(284,715,cs),
(147,715,o),
(42,633,o),
(21,517,cs),
(2,410,o),
(47,355,o),
(185,295,cs),
(270,258,o),
(297,234,o),
(292,202,cs),
(282,149,o),
(236,124,o),
(185,124,cs),
(115,124,o),
(72,162,o),
(79,244,c),
(-84,205,l),
(-86,72,o),
(12,-15,o),
(157,-15,cs)
);
}
);
width = 546;
}
);
note = Sacute;
unicode = 346;
},
{
glyphname = Scaron;
kernLeft = S;
kernRight = S;
lastChange = "2022-12-26 08:52:30 +0000";
layers = (
{
hints = (
{
horizontal = 1;
place = (-138, 16);
place = (-138, 16);
type = Stem;
},
{
horizontal = 1;
place = (453, 16);
place = (453, 16);
type = Stem;
},
{
place = (-70, 34);
place = (-70, 34);
type = Stem;
},
{
place = (256, 33);
place = (256, 33);
type = Stem;
}
);
layerId = m01;
shapes = (
{
closed = 1;
nodes = (
(279,730,l),
(469,901,l),
(355,901,l),
(300,851,l),
(264,901,l),
(149,901,l)
);
},
{
closed = 1;
nodes = (
(299,-15,o),
(426,78,o),
(450,216,cs),
(468,315,o),
(428,365,o),
(289,423,cs),
(196,462,o),
(173,486,o),
(179,520,cs),
(185,553,o),
(219,576,o),
(255,576,cs),
(295,576,o),
(324,550,o),
(336,499,c),
(480,580,l),
(451,670,o),
(381,715,o),
(284,715,cs),
(147,715,o),
(42,633,o),
(21,517,cs),
(2,410,o),
(47,355,o),
(185,295,cs),
(270,258,o),
(297,234,o),
(292,202,cs),
(282,149,o),
(236,124,o),
(185,124,cs),
(115,124,o),
(72,162,o),
(79,244,c),
(-84,205,l),
(-86,72,o),
(12,-15,o),
(157,-15,cs)
);
}
);
width = 546;
}
);
note = Scaron;
unicode = 352;
},
{
glyphname = Scedilla;
kernLeft = S;
kernRight = S;
lastChange = "2022-12-26 08:52:30 +0000";
layers = (
{
hints = (
{
horizontal = 1;
place = (-383, -38);
place = (-383, -38);
type = Stem;
},
{
horizontal = 1;
place = (-133, 21);
target = up;
type = BottomGhost;
},
{
horizontal = 1;
place = (453, 16);
place = (453, 16);
type = Stem;
},
{
place = (-70, 34);
place = (-70, 34);
type = Stem;
},
{
place = (256, 33);
place = (256, 33);
type = Stem;
},
{
place = (150, -36);
place = (150, -36);
type = Stem;
}
);
layerId = m01;
shapes = (
{
closed = 1;
nodes = (
(468,315,o),
(428,365,o),
(289,423,cs),
(196,462,o),
(173,486,o),
(179,520,cs),
(185,553,o),
(219,576,o),
(255,576,cs),
(295,576,o),
(324,550,o),
(336,499,c),
(480,580,l),
(451,670,o),
(381,715,o),
(284,715,cs),
(147,715,o),
(42,633,o),
(21,517,cs),
(2,410,o),
(47,355,o),
(185,295,cs),
(270,258,o),
(297,234,o),
(292,202,cs),
(282,149,o),
(236,124,o),
(185,124,cs),
(115,124,o),
(72,162,o),
(79,244,c),
(-84,205,l),
(-86,91,o),
(-14,11,o),
(97,-10,c),
(25,-97,l),
(52,-97,o),
(75,-97,o),
(95,-103,cs),
(116,-109,o),
(129,-121,o),
(125,-144,cs),
(121,-165,o),
(105,-175,o),
(86,-175,cs),
(75,-175,o),
(63,-171,o),
(51,-164,c),
(-8,-237,l),
(22,-258,o),
(53,-260,o),
(67,-260,cs),
(141,-260,o),
(201,-206,o),
(213,-138,cs),
(218,-108,o),
(213,-80,o),
(192,-61,cs),
(182,-52,o),
(167,-44,o),
(149,-40,c),
(178,-14,l),
(311,-6,o),
(427,84,o),
(450,216,cs)
);
}
);
width = 546;
}
);
note = Scedilla;
unicode = 350;
},
{
glyphname = uni0218;
kernLeft = S;
kernRight = S;
lastChange = "2022-12-26 08:52:30 +0000";
layers = (
{
hints = (
{
horizontal = 1;
place = (-352, 55);
place = (-352, 55);
type = Stem;
},
{
horizontal = 1;
place = (-138, 16);
place = (-138, 16);
type = Stem;
},
{
horizontal = 1;
place = (453, 16);
place = (453, 16);
type = Stem;
},
{
place = (-70, 34);
place = (-70, 34);
type = Stem;
},
{
place = (256, 33);
place = (256, 33);
type = Stem;
}
);
layerId = m01;
shapes = (
{
closed = 1;
nodes = (
(299,-15,o),
(426,78,o),
(450,216,cs),
(468,315,o),
(428,365,o),
(289,423,cs),
(196,462,o),
(173,486,o),
(179,520,cs),
(185,553,o),
(219,576,o),
(255,576,cs),
(295,576,o),
(324,550,o),
(336,499,c),
(480,580,l),
(451,670,o),
(381,715,o),
(284,715,cs),
(147,715,o),
(42,633,o),
(21,517,cs),
(2,410,o),
(47,355,o),
(185,295,cs),
(270,258,o),
(297,234,o),
(292,202,cs),
(282,149,o),
(236,124,o),
(185,124,cs),
(115,124,o),
(72,162,o),
(79,244,c),
(-84,205,l),
(-86,72,o),
(12,-15,o),
(157,-15,cs)
);
},
{
closed = 1;
nodes = (
(-23,-229,l),
(63,-229,l),
(219,-51,l),
(62,-51,l)
);
}
);
width = 546;
}
);
note = uni0218;
unicode = 536;
},
{
glyphname = uni1E9E;
lastChange = "2022-12-26 08:52:30 +0000";
layers = (
{
hints = (
{
horizontal = 1;
place = (-142, 22);
place = (-142, 22);
type = Stem;
},
{
horizontal = 1;
place = (422, 29);
place = (422, 29);
type = Stem;
},
{
place = (-70, 34);
place = (-70, 34);
type = Stem;
},
{
place = (158, 40);
place = (158, 40);
type = Stem;
},
{
place = (369, 50);
place = (369, 50);
type = Stem;
},
{
horizontal = 1;
place = (-123, 21);
target = up;
type = BottomGhost;
}
);
layerId = m01;
shapes = (
{
closed = 1;
nodes = (
(450,-19,o),
(552,55,o),
(572,167,cs),
(604,352,o),
(379,329,o),
(385,365,cs),
(386,369,o),
(388,373,o),
(395,380,cs),
(583,570,l),
(605,697,l),
(341,697,ls),
(77,697,o),
(23,529,o),
(4,417,cs),
(-70,0,l),
(87,0,l),
(161,417,ls),
(178,516,o),
(226,545,o),
(314,545,cs),
(369,545,l),
(311,481,ls),
(271,437,o),
(230,405,o),
(218,341,cs),
(194,201,o),
(410,230,o),
(397,156,cs),
(393,136,o),
(377,126,o),
(359,126,cs),
(308,126,o),
(287,161,o),
(277,202,c),
(131,132,l),
(140,48,o),
(215,-19,o),
(329,-19,cs)
);
}
);
width = 675;
}
);
note = uni1E9E;
unicode = 7838;
},
{
glyphname = T;
kernLeft = T;
kernRight = T;
lastChange = "2022-12-26 08:52:30 +0000";
layers = (
{
hints = (
{
horizontal = 1;
place = (-123, 21);
target = up;
type = BottomGhost;
},
{
horizontal = 1;
place = (430, 21);
place = (430, 21);
type = Stem;
},
{
place = (76, 36);
place = (76, 36);
type = Stem;
}
);
layerId = m01;
shapes = (
{
closed = 1;
nodes = (
(155,0,l),
(253,100,l),
(333,553,l),
(536,553,l),
(561,697,l),
(-5,697,l),
(-30,553,l),
(174,553,l),
(76,0,l)
);
}
);
width = 556;
}
);
note = T;
unicode = 84;
},
{
glyphname = Tbar;
kernLeft = T;
kernRight = T;
lastChange = "2022-12-26 08:52:30 +0000";
layers = (
{
hints = (
{
horizontal = 1;
place = (-123, 21);
target = up;
type = BottomGhost;
},
{
horizontal = 1;
place = (176, -23);
place = (176, -23);
type = Stem;
},
{
horizontal = 1;
place = (430, 21);
place = (430, 21);
type = Stem;
},
{
place = (76, 36);
place = (76, 36);
type = Stem;
}
);
layerId = m01;
shapes = (
{
closed = 1;
nodes = (
(536,553,l),
(561,697,l),
(-5,697,l),
(-30,553,l),
(174,553,l),
(146,399,l),
(47,399,l),
(30,299,l),
(129,299,l),
(76,0,l),
(235,0,l),
(288,299,l),
(385,299,l),
(402,399,l),
(305,399,l),
(333,553,l)
);
}
);
width = 556;
}
);
note = Tbar;
unicode = 358;
},
{
glyphname = Tcaron;
kernLeft = T;
kernRight = T;
lastChange = "2022-12-26 08:52:30 +0000";
layers = (
{
hints = (
{
horizontal = 1;
place = (-123, 21);
target = up;
type = BottomGhost;
},
{
horizontal = 1;
place = (430, 21);
place = (430, 21);
type = Stem;
},
{
place = (76, 36);
place = (76, 36);
type = Stem;
}
);
layerId = m01;
shapes = (
{
closed = 1;
nodes = (
(284,730,l),
(474,901,l),
(360,901,l),
(305,851,l),
(269,901,l),
(154,901,l)
);
},
{
closed = 1;
nodes = (
(76,0,l),
(235,0,l),
(333,553,l),
(536,553,l),
(561,697,l),
(-5,697,l),
(-30,553,l),
(174,553,l)
);
}
);
width = 556;
}
);
note = Tcaron;
unicode = 356;
},
{
glyphname = uni0162;
kernLeft = T;
kernRight = T;
lastChange = "2022-12-26 08:52:30 +0000";
layers = (
{
hints = (
{
horizontal = 1;
place = (-383, -38);
place = (-383, -38);
type = Stem;
},
{
horizontal = 1;
place = (-123, 21);
target = up;
type = BottomGhost;
},
{
horizontal = 1;
place = (430, 21);
place = (430, 21);
type = Stem;
},
{
place = (76, 36);
place = (76, 36);
type = Stem;
},
{
place = (155, -36);
place = (155, -36);
type = Stem;
}
);
layerId = m01;
shapes = (
{
closed = 1;
nodes = (
(235,0,l),
(333,553,l),
(536,553,l),
(561,697,l),
(-5,697,l),
(-30,553,l),
(174,553,l),
(76,0,l),
(110,0,l),
(30,-97,l),
(57,-97,o),
(80,-97,o),
(100,-103,cs),
(121,-109,o),
(134,-121,o),
(130,-144,cs),
(126,-165,o),
(110,-175,o),
(91,-175,cs),
(80,-175,o),
(68,-171,o),
(56,-164,c),
(-3,-237,l),
(27,-258,o),
(58,-260,o),
(72,-260,cs),
(146,-260,o),
(206,-206,o),
(218,-138,cs),
(223,-108,o),
(218,-80,o),
(197,-61,cs),
(187,-52,o),
(172,-44,o),
(154,-40,c),
(198,0,l)
);
}
);
width = 556;
}
);
note = uni0162;
unicode = 354;
},
{
glyphname = uni021A;
kernLeft = T;
kernRight = T;
lastChange = "2022-12-26 08:52:30 +0000";
layers = (
{
hints = (
{
horizontal = 1;
place = (-352, 55);
place = (-352, 55);
type = Stem;
},
{
horizontal = 1;
place = (-123, 21);
target = up;
type = BottomGhost;
},
{
horizontal = 1;
place = (430, 21);
place = (430, 21);
type = Stem;
},
{
place = (76, 36);
place = (76, 36);
type = Stem;
}
);
layerId = m01;
shapes = (
{
closed = 1;
nodes = (
(76,0,l),
(235,0,l),
(333,553,l),
(536,553,l),
(561,697,l),
(-5,697,l),
(-30,553,l),
(174,553,l)
);
},
{
closed = 1;
nodes = (
(-18,-229,l),
(68,-229,l),
(224,-51,l),
(67,-51,l)
);
}
);
width = 556;
}
);
note = uni021A;
unicode = 538;
},
{
glyphname = U;
kernLeft = U;
kernRight = J;
lastChange = "2022-12-26 08:52:30 +0000";
layers = (
{
hints = (
{
horizontal = 1;
place = (-141, 21);
place = (-141, 21);
type = Stem;
},
{
horizontal = 1;
place = (574, -20);
target = down;
type = TopGhost;
},
{
place = (-67, 34);
place = (-67, 34);
type = Stem;
},
{
place = (328, 34);
place = (328, 34);
type = Stem;
}
);
layerId = m01;
shapes = (
{
closed = 1;
nodes = (
(213,697,o),
(183,697,qs),
(56,697,l),
(-22,252,ls),
(-47,115,o),
(68,-18,o),
(206,-18,qs),
(343,-18,o),
(506,117,o),
(530,257,qs),
(608,697,l),
(451,697,l),
(375,268,ls),
(369,233,o),
(351,180,o),
(318,144,o),
(269,126,o),
(231,126,qs),
(193,126,o),
(149,144,o),
(131,180,o),
(131,234,o),
(138,270,qs),
(208,667,ls)
);
}
);
width = 664;
}
);
note = U;
unicode = 85;
},
{
glyphname = Uacute;
kernLeft = U;
kernRight = J;
lastChange = "2022-12-26 08:52:30 +0000";
layers = (
{
hints = (
{
horizontal = 1;
place = (-141, 21);
place = (-141, 21);
type = Stem;
},
{
horizontal = 1;
place = (574, -20);
target = down;
type = TopGhost;
},
{
horizontal = 1;
place = (635, 20);
place = (635, 20);
type = Stem;
},
{
place = (-67, 34);
place = (-67, 34);
type = Stem;
},
{
place = (328, 34);
place = (328, 34);
type = Stem;
}
);
layerId = m01;
shapes = (
{
closed = 1;
nodes = (
(289,758,l),
(398,758,l),
(589,901,l),
(427,901,l)
);
},
{
closed = 1;
nodes = (
(388,-18,o),
(498,72,o),
(530,257,cs),
(608,697,l),
(451,697,l),
(375,268,ls),
(359,174,o),
(331,126,o),
(231,126,cs),
(130,126,o),
(121,173,o),
(138,270,cs),
(213,697,l),
(56,697,l),
(-22,252,ls),
(-55,70,o),
(23,-18,o),
(206,-18,cs)
);
}
);
width = 664;
}
);
note = Uacute;
unicode = 218;
},
{
glyphname = uni01D3;
kernLeft = U;
kernRight = J;
lastChange = "2022-12-26 08:52:30 +0000";
layers = (
{
hints = (
{
horizontal = 1;
place = (-141, 21);
place = (-141, 21);
type = Stem;
},
{
horizontal = 1;
place = (574, -20);
target = down;
type = TopGhost;
},
{
place = (-67, 34);
place = (-67, 34);
type = Stem;
},
{
place = (328, 34);
place = (328, 34);
type = Stem;
}
);
layerId = m01;
shapes = (
{
closed = 1;
nodes = (
(339,730,l),
(529,901,l),
(415,901,l),
(360,851,l),
(324,901,l),
(209,901,l)
);
},
{
closed = 1;
nodes = (
(388,-18,o),
(498,72,o),
(530,257,cs),
(608,697,l),
(451,697,l),
(375,268,ls),
(359,174,o),
(331,126,o),
(231,126,cs),
(130,126,o),
(121,173,o),
(138,270,cs),
(213,697,l),
(56,697,l),
(-22,252,ls),
(-55,70,o),
(23,-18,o),
(206,-18,cs)
);
}
);
width = 664;
}
);
note = uni01D3;
unicode = 467;
},
{
glyphname = Ucircumflex;
kernLeft = U;
kernRight = J;
lastChange = "2022-12-26 08:52:30 +0000";
layers = (
{
hints = (
{
horizontal = 1;
place = (-141, 21);
place = (-141, 21);
type = Stem;
},
{
horizontal = 1;
place = (574, -20);
target = down;
type = TopGhost;
},
{
place = (-67, 34);
place = (-67, 34);
type = Stem;
},
{
place = (328, 34);
place = (328, 34);
type = Stem;
}
);
layerId = m01;
shapes = (
{
closed = 1;
nodes = (
(181,741,l),
(295,741,l),
(351,797,l),
(387,741,l),
(501,741,l),
(373,924,l)
);
},
{
closed = 1;
nodes = (
(388,-18,o),
(498,72,o),
(530,257,cs),
(608,697,l),
(451,697,l),
(375,268,ls),
(359,174,o),
(331,126,o),
(231,126,cs),
(130,126,o),
(121,173,o),
(138,270,cs),
(213,697,l),
(56,697,l),
(-22,252,ls),
(-55,70,o),
(23,-18,o),
(206,-18,cs)
);
}
);
width = 664;
}
);
note = Ucircumflex;
unicode = 219;
},
{
glyphname = Udieresis;
kernLeft = U;
kernRight = J;
lastChange = "2022-12-26 08:52:30 +0000";
layers = (
{
hints = (
{
horizontal = 1;
place = (-141, 21);
place = (-141, 21);
type = Stem;
},
{
horizontal = 1;
place = (574, -20);
target = down;
type = TopGhost;
},
{
horizontal = 1;
place = (642, 13);
place = (642, 13);
type = Stem;
},
{
place = (51, -84);
place = (51, -84);
type = Stem;
},
{
place = (328, 34);
place = (328, 34);
type = Stem;
},
{
place = (51, -9);
place = (51, -9);
type = Stem;
},
{
place = (255, -9);
place = (255, -9);
type = Stem;
},
{
place = (-67, 34);
place = (-67, 34);
type = Stem;
},
{
place = (328, -82);
place = (328, -82);
type = Stem;
}
);
layerId = m01;
shapes = (
{
closed = 1;
nodes = (
(186,765,l),
(300,765,l),
(324,901,l),
(210,901,l)
);
},
{
closed = 1;
nodes = (
(390,765,l),
(504,765,l),
(528,901,l),
(414,901,l)
);
},
{
closed = 1;
nodes = (
(388,-18,o),
(498,72,o),
(530,257,cs),
(608,697,l),
(451,697,l),
(375,268,ls),
(359,174,o),
(331,126,o),
(231,126,cs),
(130,126,o),
(121,173,o),
(138,270,cs),
(213,697,l),
(56,697,l),
(-22,252,ls),
(-55,70,o),
(23,-18,o),
(206,-18,cs)
);
}
);
width = 664;
}
);
note = Udieresis;
unicode = 220;
},
{
glyphname = uni01D7;
kernLeft = U;
kernRight = J;
lastChange = "2022-12-26 08:52:30 +0000";
layers = (
{
hints = (
{
horizontal = 1;
place = (-141, 21);
place = (-141, 21);
type = Stem;
},
{
horizontal = 1;
place = (574, -20);
target = down;
type = TopGhost;
},
{
horizontal = 1;
place = (642, 13);
place = (642, 13);
type = Stem;
},
{
horizontal = 1;
place = (839, 20);
place = (839, 20);
type = Stem;
},
{
place = (-67, 34);
place = (-67, 34);
type = Stem;
},
{
place = (328, 34);
place = (328, 34);
type = Stem;
},
{
place = (51, -84);
place = (51, -84);
type = Stem;
},
{
place = (51, -9);
place = (51, -9);
type = Stem;
},
{
place = (255, -9);
place = (255, -9);
type = Stem;
},
{
place = (328, -82);
place = (328, -82);
type = Stem;
}
);
layerId = m01;
shapes = (
{
closed = 1;
nodes = (
(325,962,l),
(434,962,l),
(625,1105,l),
(463,1105,l)
);
},
{
closed = 1;
nodes = (
(186,765,l),
(300,765,l),
(324,901,l),
(210,901,l)
);
},
{
closed = 1;
nodes = (
(390,765,l),
(504,765,l),
(528,901,l),
(414,901,l)
);
},
{
closed = 1;
nodes = (
(388,-18,o),
(498,72,o),
(530,257,cs),
(608,697,l),
(451,697,l),
(375,268,ls),
(359,174,o),
(331,126,o),
(231,126,cs),
(130,126,o),
(121,173,o),
(138,270,cs),
(213,697,l),
(56,697,l),
(-22,252,ls),
(-55,70,o),
(23,-18,o),
(206,-18,cs)
);
}
);
width = 664;
}
);
note = uni01D7;
unicode = 471;
},
{
glyphname = uni01D9;
kernLeft = U;
kernRight = J;
lastChange = "2022-12-26 08:52:30 +0000";
layers = (
{
hints = (
{
horizontal = 1;
place = (-141, 21);
place = (-141, 21);
type = Stem;
},
{
horizontal = 1;
place = (574, -20);
target = down;
type = TopGhost;
},
{
horizontal = 1;
place = (642, 13);
place = (642, 13);
type = Stem;
},
{
place = (-67, 34);
place = (-67, 34);
type = Stem;
},
{
place = (328, 34);
place = (328, 34);
type = Stem;
},
{
place = (51, -84);
place = (51, -84);
type = Stem;
},
{
place = (51, -9);
place = (51, -9);
type = Stem;
},
{
place = (255, -9);
place = (255, -9);
type = Stem;
},
{
place = (328, -82);
place = (328, -82);
type = Stem;
}
);
layerId = m01;
shapes = (
{
closed = 1;
nodes = (
(375,934,l),
(565,1105,l),
(451,1105,l),
(396,1055,l),
(360,1105,l),
(245,1105,l)
);
},
{
closed = 1;
nodes = (
(186,765,l),
(300,765,l),
(324,901,l),
(210,901,l)
);
},
{
closed = 1;
nodes = (
(390,765,l),
(504,765,l),
(528,901,l),
(414,901,l)
);
},
{
closed = 1;
nodes = (
(388,-18,o),
(498,72,o),
(530,257,cs),
(608,697,l),
(451,697,l),
(375,268,ls),
(359,174,o),
(331,126,o),
(231,126,cs),
(130,126,o),
(121,173,o),
(138,270,cs),
(213,697,l),
(56,697,l),
(-22,252,ls),
(-55,70,o),
(23,-18,o),
(206,-18,cs)
);
}
);
width = 664;
}
);
note = uni01D9;
unicode = 473;
},
{
glyphname = uni01DB;
kernLeft = U;
kernRight = J;
lastChange = "2022-12-26 08:52:30 +0000";
layers = (
{
hints = (
{
horizontal = 1;
place = (-141, 21);
place = (-141, 21);
type = Stem;
},
{
horizontal = 1;
place = (574, -20);
target = down;
type = TopGhost;
},
{
horizontal = 1;
place = (642, 13);
place = (642, 13);
type = Stem;
},
{
horizontal = 1;
place = (839, 20);
place = (839, 20);
type = Stem;
},
{
place = (-67, 34);
place = (-67, 34);
type = Stem;
},
{
place = (328, 34);
place = (328, 34);
type = Stem;
},
{
place = (51, -84);
place = (51, -84);
type = Stem;
},
{
place = (51, -9);
place = (51, -9);
type = Stem;
},
{
place = (255, -9);
place = (255, -9);
type = Stem;
},
{
place = (328, -82);
place = (328, -82);
type = Stem;
}
);
layerId = m01;
shapes = (
{
closed = 1;
nodes = (
(324,962,l),
(435,962,l),
(356,1105,l),
(196,1105,l)
);
},
{
closed = 1;
nodes = (
(186,765,l),
(300,765,l),
(324,901,l),
(210,901,l)
);
},
{
closed = 1;
nodes = (
(390,765,l),
(504,765,l),
(528,901,l),
(414,901,l)
);
},
{
closed = 1;
nodes = (
(388,-18,o),
(498,72,o),
(530,257,cs),
(608,697,l),
(451,697,l),
(375,268,ls),
(359,174,o),
(331,126,o),
(231,126,cs),
(130,126,o),
(121,173,o),
(138,270,cs),
(213,697,l),
(56,697,l),
(-22,252,ls),
(-55,70,o),
(23,-18,o),
(206,-18,cs)
);
}
);
width = 664;
}
);
note = uni01DB;
unicode = 475;
},
{
glyphname = uni01D5;
kernLeft = U;
kernRight = J;
lastChange = "2022-12-26 08:52:30 +0000";
layers = (
{
hints = (
{
horizontal = 1;
place = (-141, 21);
place = (-141, 21);
type = Stem;
},
{
horizontal = 1;
place = (574, -20);
target = down;
type = TopGhost;
},
{
horizontal = 1;
place = (642, 13);
place = (642, 13);
type = Stem;
},
{
horizontal = 1;
place = (831, -36);
place = (831, -36);
type = Stem;
},
{
place = (71, -29);
place = (71, -29);
type = Stem;
},
{
place = (255, -29);
place = (255, -29);
type = Stem;
},
{
place = (51, -84);
place = (51, -84);
type = Stem;
},
{
place = (328, 34);
place = (328, 34);
type = Stem;
},
{
place = (51, -9);
place = (51, -9);
type = Stem;
},
{
place = (255, -9);
place = (255, -9);
type = Stem;
},
{
place = (-67, 34);
place = (-67, 34);
type = Stem;
},
{
place = (328, -82);
place = (328, -82);
type = Stem;
}
);
layerId = m01;
shapes = (
{
closed = 1;
nodes = (
(239,954,l),
(517,954,l),
(533,1041,l),
(255,1041,l)
);
},
{
closed = 1;
nodes = (
(186,765,l),
(300,765,l),
(324,901,l),
(210,901,l)
);
},
{
closed = 1;
nodes = (
(390,765,l),
(504,765,l),
(528,901,l),
(414,901,l)
);
},
{
closed = 1;
nodes = (
(388,-18,o),
(498,72,o),
(530,257,cs),
(608,697,l),
(451,697,l),
(375,268,ls),
(359,174,o),
(331,126,o),
(231,126,cs),
(130,126,o),
(121,173,o),
(138,270,cs),
(213,697,l),
(56,697,l),
(-22,252,ls),
(-55,70,o),
(23,-18,o),
(206,-18,cs)
);
}
);
width = 664;
}
);
note = uni01D5;
unicode = 469;
},
{
glyphname = uni1EE4;
kernLeft = U;
kernRight = J;
lastChange = "2022-12-26 08:52:30 +0000";
layers = (
{
hints = (
{
horizontal = 1;
place = (-296, -6);
place = (-296, -6);
type = Stem;
},
{
horizontal = 1;
place = (-141, 21);
place = (-141, 21);
type = Stem;
},
{
horizontal = 1;
place = (574, -20);
target = down;
type = TopGhost;
},
{
place = (-67, 34);
place = (-67, 34);
type = Stem;
},
{
place = (133, 31);
place = (133, 31);
type = Stem;
},
{
place = (328, 34);
place = (328, 34);
type = Stem;
}
);
layerId = m01;
shapes = (
{
closed = 1;
nodes = (
(388,-18,o),
(498,72,o),
(530,257,cs),
(608,697,l),
(451,697,l),
(375,268,ls),
(359,174,o),
(331,126,o),
(231,126,cs),
(130,126,o),
(121,173,o),
(138,270,cs),
(213,697,l),
(56,697,l),
(-22,252,ls),
(-55,70,o),
(23,-18,o),
(206,-18,cs)
);
},
{
closed = 1;
nodes = (
(103,-173,l),
(257,-173,l),
(277,-56,l),
(123,-56,l)
);
}
);
width = 664;
}
);
note = uni1EE4;
unicode = 7908;
},
{
glyphname = Ugrave;
kernLeft = U;
kernRight = J;
lastChange = "2022-12-26 08:52:30 +0000";
layers = (
{
hints = (
{
horizontal = 1;
place = (-141, 21);
place = (-141, 21);
type = Stem;
},
{
horizontal = 1;
place = (574, -20);
target = down;
type = TopGhost;
},
{
horizontal = 1;
place = (635, 20);
place = (635, 20);
type = Stem;
},
{
place = (-67, 34);
place = (-67, 34);
type = Stem;
},
{
place = (328, 34);
place = (328, 34);
type = Stem;
}
);
layerId = m01;
shapes = (
{
closed = 1;
nodes = (
(288,758,l),
(399,758,l),
(320,901,l),
(160,901,l)
);
},
{
closed = 1;
nodes = (
(388,-18,o),
(498,72,o),
(530,257,cs),
(608,697,l),
(451,697,l),
(375,268,ls),
(359,174,o),
(331,126,o),
(231,126,cs),
(130,126,o),
(121,173,o),
(138,270,cs),
(213,697,l),
(56,697,l),
(-22,252,ls),
(-55,70,o),
(23,-18,o),
(206,-18,cs)
);
}
);
width = 664;
}
);
note = Ugrave;
unicode = 217;
},
{
glyphname = uni1EE6;
kernLeft = U;
kernRight = J;
lastChange = "2022-12-26 08:52:30 +0000";
layers = (
{
hints = (
{
horizontal = 1;
place = (-141, 21);
place = (-141, 21);
type = Stem;
},
{
horizontal = 1;
place = (574, -20);
target = down;
type = TopGhost;
},
{
horizontal = 1;
place = (591, -62);
place = (591, -62);
type = Stem;
},
{
horizontal = 1;
place = (707, -31);
place = (707, -31);
type = Stem;
},
{
place = (-67, 34);
place = (-67, 34);
type = Stem;
},
{
place = (221, -18);
place = (221, -18);
type = Stem;
},
{
place = (328, 34);
place = (328, 34);
type = Stem;
}
);
layerId = m01;
shapes = (
{
closed = 1;
nodes = (
(309,714,l),
(368,722,o),
(456,736,o),
(470,815,cs),
(482,884,o),
(419,922,o),
(313,922,cs),
(297,922,l),
(280,830,l),
(296,830,ls),
(333,830,o),
(367,830,o),
(363,804,cs),
(359,780,o),
(331,779,o),
(303,775,c)
);
},
{
closed = 1;
nodes = (
(388,-18,o),
(498,72,o),
(530,257,cs),
(608,697,l),
(451,697,l),
(375,268,ls),
(359,174,o),
(331,126,o),
(231,126,cs),
(130,126,o),
(121,173,o),
(138,270,cs),
(213,697,l),
(56,697,l),
(-22,252,ls),
(-55,70,o),
(23,-18,o),
(206,-18,cs)
);
}
);
width = 664;
}
);
note = uni1EE6;
unicode = 7910;
},
{
glyphname = Uhorn;
kernLeft = U;
kernRight = J;
lastChange = "2022-12-26 08:52:30 +0000";
layers = (
{
hints = (
{
horizontal = 1;
place = (-141, 21);
place = (-141, 21);
type = Stem;
},
{
horizontal = 1;
place = (574, -20);
target = down;
type = TopGhost;
},
{
place = (-67, 34);
place = (-67, 34);
type = Stem;
},
{
place = (328, 34);
place = (328, 34);
type = Stem;
},
{
place = (538, -19);
place = (538, -19);
type = Stem;
}
);
layerId = m01;
shapes = (
{
closed = 1;
nodes = (
(661,697,l),
(657,672,ls),
(648,624,o),
(631,594,o),
(589,589,c),
(608,697,l),
(451,697,l),
(375,268,ls),
(359,174,o),
(331,126,o),
(231,126,cs),
(130,126,o),
(121,173,o),
(138,270,cs),
(213,697,l),
(56,697,l),
(-22,252,ls),
(-55,70,o),
(23,-18,o),
(206,-18,cs),
(388,-18,o),
(498,72,o),
(530,257,cs),
(572,491,l),
(687,496,o),
(744,576,o),
(759,663,cs),
(765,697,l)
);
}
);
width = 664;
}
);
note = Uhorn;
unicode = 431;
},
{
glyphname = uni1EE8;
kernLeft = U;
kernRight = J;
lastChange = "2022-12-26 08:52:30 +0000";
layers = (
{
hints = (
{
horizontal = 1;
place = (-141, 21);
place = (-141, 21);
type = Stem;
},
{
horizontal = 1;
place = (574, -20);
target = down;
type = TopGhost;
},
{
horizontal = 1;
place = (635, 20);
place = (635, 20);
type = Stem;
},
{
place = (-67, 34);
place = (-67, 34);
type = Stem;
},
{
place = (328, 34);
place = (328, 34);
type = Stem;
},
{
place = (538, -19);
place = (538, -19);
type = Stem;
}
);
layerId = m01;
shapes = (
{
closed = 1;
nodes = (
(589,901,l),
(427,901,l),
(289,758,l),
(398,758,l)
);
},
{
closed = 1;
nodes = (
(661,697,l),
(657,672,ls),
(648,624,o),
(631,594,o),
(589,589,c),
(608,697,l),
(451,697,l),
(375,268,ls),
(359,174,o),
(331,126,o),
(231,126,cs),
(130,126,o),
(121,173,o),
(138,270,cs),
(213,697,l),
(56,697,l),
(-22,252,ls),
(-55,70,o),
(23,-18,o),
(206,-18,cs),
(388,-18,o),
(498,72,o),
(530,257,cs),
(572,491,l),
(687,496,o),
(744,576,o),
(759,663,cs),
(765,697,l)
);
}
);
width = 664;
}
);
note = uni1EE8;
unicode = 7912;
},
{
glyphname = uni1EF0;
kernLeft = U;
kernRight = J;
lastChange = "2022-12-26 08:52:30 +0000";
layers = (
{
hints = (
{
horizontal = 1;
place = (-296, -6);
place = (-296, -6);
type = Stem;
},
{
horizontal = 1;
place = (-141, 21);
place = (-141, 21);
type = Stem;
},
{
horizontal = 1;
place = (574, -20);
target = down;
type = TopGhost;
},
{
place = (-67, 34);
place = (-67, 34);
type = Stem;
},
{
place = (133, 31);
place = (133, 31);
type = Stem;
},
{
place = (328, 34);
place = (328, 34);
type = Stem;
},
{
place = (538, -19);
place = (538, -19);
type = Stem;
}
);
layerId = m01;
shapes = (
{
closed = 1;
nodes = (
(661,697,l),
(657,672,ls),
(648,624,o),
(631,594,o),
(589,589,c),
(608,697,l),
(451,697,l),
(375,268,ls),
(359,174,o),
(331,126,o),
(231,126,cs),
(130,126,o),
(121,173,o),
(138,270,cs),
(213,697,l),
(56,697,l),
(-22,252,ls),
(-55,70,o),
(23,-18,o),
(206,-18,cs),
(388,-18,o),
(498,72,o),
(530,257,cs),
(572,491,l),
(687,496,o),
(744,576,o),
(759,663,cs),
(765,697,l)
);
},
{
closed = 1;
nodes = (
(103,-173,l),
(257,-173,l),
(277,-56,l),
(123,-56,l)
);
}
);
width = 664;
}
);
note = uni1EF0;
unicode = 7920;
},
{
glyphname = uni1EEA;
kernLeft = U;
kernRight = J;
lastChange = "2022-12-26 08:52:30 +0000";
layers = (
{
hints = (
{
horizontal = 1;
place = (-141, 21);
place = (-141, 21);
type = Stem;
},
{
horizontal = 1;
place = (574, -20);
target = down;
type = TopGhost;
},
{
horizontal = 1;
place = (635, 20);
place = (635, 20);
type = Stem;
},
{
place = (-67, 34);
place = (-67, 34);
type = Stem;
},
{
place = (328, 34);
place = (328, 34);
type = Stem;
},
{
place = (538, -19);
place = (538, -19);
type = Stem;
}
);
layerId = m01;
shapes = (
{
closed = 1;
nodes = (
(399,758,l),
(320,901,l),
(160,901,l),
(288,758,l)
);
},
{
closed = 1;
nodes = (
(661,697,l),
(657,672,ls),
(648,624,o),
(631,594,o),
(589,589,c),
(608,697,l),
(451,697,l),
(375,268,ls),
(359,174,o),
(331,126,o),
(231,126,cs),
(130,126,o),
(121,173,o),
(138,270,cs),
(213,697,l),
(56,697,l),
(-22,252,ls),
(-55,70,o),
(23,-18,o),
(206,-18,cs),
(388,-18,o),
(498,72,o),
(530,257,cs),
(572,491,l),
(687,496,o),
(744,576,o),
(759,663,cs),
(765,697,l)
);
}
);
width = 664;
}
);
note = uni1EEA;
unicode = 7914;
},
{
glyphname = uni1EEC;
kernLeft = U;
kernRight = J;
lastChange = "2022-12-26 08:52:30 +0000";
layers = (
{
hints = (
{
horizontal = 1;
place = (-141, 21);
place = (-141, 21);
type = Stem;
},
{
horizontal = 1;
place = (574, -20);
target = down;
type = TopGhost;
},
{
horizontal = 1;
place = (591, -62);
place = (591, -62);
type = Stem;
},
{
horizontal = 1;
place = (707, -31);
place = (707, -31);
type = Stem;
},
{
place = (-67, 34);
place = (-67, 34);
type = Stem;
},
{
place = (221, -18);
place = (221, -18);
type = Stem;
},
{
place = (538, -19);
place = (538, -19);
type = Stem;
},
{
place = (328, 34);
place = (328, 34);
type = Stem;
}
);
layerId = m01;
shapes = (
{
closed = 1;
nodes = (
(359,780,o),
(331,779,o),
(303,775,c),
(309,714,l),
(368,722,o),
(456,736,o),
(470,815,cs),
(482,884,o),
(419,922,o),
(313,922,cs),
(297,922,l),
(280,830,l),
(296,830,ls),
(333,830,o),
(367,830,o),
(363,804,cs)
);
},
{
closed = 1;
nodes = (
(661,697,l),
(657,672,ls),
(648,624,o),
(631,594,o),
(589,589,c),
(608,697,l),
(451,697,l),
(375,268,ls),
(359,174,o),
(331,126,o),
(231,126,cs),
(130,126,o),
(121,173,o),
(138,270,cs),
(213,697,l),
(56,697,l),
(-22,252,ls),
(-55,70,o),
(23,-18,o),
(206,-18,cs),
(388,-18,o),
(498,72,o),
(530,257,cs),
(572,491,l),
(687,496,o),
(744,576,o),
(759,663,cs),
(765,697,l)
);
}
);
width = 664;
}
);
note = uni1EEC;
unicode = 7916;
},
{
glyphname = uni1EEE;
kernLeft = U;
kernRight = J;
lastChange = "2022-12-26 08:52:30 +0000";
layers = (
{
hints = (
{
horizontal = 1;
place = (-141, 21);
place = (-141, 21);
type = Stem;
},
{
horizontal = 1;
place = (574, -20);
target = down;
type = TopGhost;
},
{
horizontal = 1;
place = (688, -31);
place = (688, -31);
type = Stem;
},
{
place = (-67, 34);
place = (-67, 34);
type = Stem;
},
{
place = (328, 34);
place = (328, 34);
type = Stem;
},
{
place = (538, -19);
place = (538, -19);
type = Stem;
},
{
horizontal = 1;
place = (629, 26);
place = (629, 26);
type = Stem;
},
{
place = (291, -33);
place = (291, -33);
type = Stem;
},
{
horizontal = 1;
place = (629, -32);
place = (629, -32);
type = Stem;
},
{
horizontal = 1;
place = (628, 29);
place = (628, 29);
type = Stem;
},
{
place = (38, -71);
place = (38, -71);
type = Stem;
}
);
layerId = m01;
shapes = (
{
closed = 1;
nodes = (
(315,811,o),
(327,752,o),
(402,752,cs),
(471,752,o),
(523,803,o),
(540,901,c),
(450,901,l),
(443,862,o),
(431,843,o),
(420,843,cs),
(396,843,o),
(376,903,o),
(311,903,cs),
(241,903,o),
(188,848,o),
(171,751,c),
(257,751,l),
(264,791,o),
(275,811,o),
(288,811,cs)
);
},
{
closed = 1;
nodes = (
(661,697,l),
(657,672,ls),
(648,624,o),
(631,594,o),
(589,589,c),
(608,697,l),
(451,697,l),
(375,268,ls),
(359,174,o),
(331,126,o),
(231,126,cs),
(130,126,o),
(121,173,o),
(138,270,cs),
(213,697,l),
(56,697,l),
(-22,252,ls),
(-55,70,o),
(23,-18,o),
(206,-18,cs),
(388,-18,o),
(498,72,o),
(530,257,cs),
(572,491,l),
(687,496,o),
(744,576,o),
(759,663,cs),
(765,697,l)
);
}
);
width = 664;
}
);
note = uni1EEE;
unicode = 7918;
},
{
glyphname = Uhungarumlaut;
kernLeft = U;
kernRight = J;
lastChange = "2022-12-26 08:52:30 +0000";
layers = (
{
hints = (
{
horizontal = 1;
place = (-141, 21);
place = (-141, 21);
type = Stem;
},
{
horizontal = 1;
place = (574, -20);
target = down;
type = TopGhost;
},
{
horizontal = 1;
place = (608, 47);
place = (608, 47);
type = Stem;
},
{
place = (-67, 34);
place = (-67, 34);
type = Stem;
},
{
place = (328, 34);
place = (328, 34);
type = Stem;
}
);
layerId = m01;
shapes = (
{
closed = 1;
nodes = (
(182,731,l),
(291,731,l),
(460,901,l),
(325,901,l)
);
},
{
closed = 1;
nodes = (
(387,731,l),
(496,731,l),
(690,901,l),
(530,901,l)
);
},
{
closed = 1;
nodes = (
(388,-18,o),
(498,72,o),
(530,257,cs),
(608,697,l),
(451,697,l),
(375,268,ls),
(359,174,o),
(331,126,o),
(231,126,cs),
(130,126,o),
(121,173,o),
(138,270,cs),
(213,697,l),
(56,697,l),
(-22,252,ls),
(-55,70,o),
(23,-18,o),
(206,-18,cs)
);
}
);
width = 664;
}
);
note = Uhungarumlaut;
unicode = 368;
},
{
glyphname = Umacron;
kernLeft = U;
kernRight = J;
lastChange = "2022-12-26 08:52:30 +0000";
layers = (
{
hints = (
{
horizontal = 1;
place = (-141, 21);
place = (-141, 21);
type = Stem;
},
{
horizontal = 1;
place = (574, -20);
target = down;
type = TopGhost;
},
{
horizontal = 1;
place = (627, -36);
place = (627, -36);
type = Stem;
},
{
place = (71, -104);
place = (71, -104);
type = Stem;
},
{
place = (328, -102);
place = (328, -102);
type = Stem;
},
{
place = (-67, 34);
place = (-67, 34);
type = Stem;
},
{
place = (328, 34);
place = (328, 34);
type = Stem;
}
);
layerId = m01;
shapes = (
{
closed = 1;
nodes = (
(203,750,l),
(481,750,l),
(497,837,l),
(219,837,l)
);
},
{
closed = 1;
nodes = (
(388,-18,o),
(498,72,o),
(530,257,cs),
(608,697,l),
(451,697,l),
(375,268,ls),
(359,174,o),
(331,126,o),
(231,126,cs),
(130,126,o),
(121,173,o),
(138,270,cs),
(213,697,l),
(56,697,l),
(-22,252,ls),
(-55,70,o),
(23,-18,o),
(206,-18,cs)
);
}
);
width = 664;
}
);
note = Umacron;
unicode = 362;
},
{
glyphname = Uogonek;
kernLeft = U;
kernRight = J;
lastChange = "2022-12-26 08:52:30 +0000";
layers = (
{
hints = (
{
horizontal = 1;
place = (-350, -31);
place = (-350, -31);
type = Stem;
},
{
horizontal = 1;
place = (-139, 21);
target = up;
type = BottomGhost;
},
{
horizontal = 1;
place = (574, -20);
target = down;
type = TopGhost;
},
{
place = (-67, 34);
place = (-67, 34);
type = Stem;
},
{
place = (328, 34);
place = (328, 34);
type = Stem;
},
{
place = (111, -34);
place = (111, -34);
type = Stem;
}
);
layerId = m01;
shapes = (
{
closed = 1;
nodes = (
(451,697,l),
(375,268,ls),
(359,174,o),
(331,126,o),
(231,126,cs),
(130,126,o),
(121,173,o),
(138,270,cs),
(213,697,l),
(56,697,l),
(-22,252,ls),
(-52,86,o),
(10,-2,o),
(159,-16,c),
(132,-35,o),
(99,-67,o),
(91,-116,cs),
(79,-182,o),
(124,-227,o),
(196,-227,cs),
(256,-227,o),
(296,-195,o),
(325,-158,c),
(256,-107,l),
(244,-124,o),
(229,-135,o),
(208,-135,cs),
(191,-135,o),
(178,-128,o),
(182,-100,cs),
(189,-62,o),
(237,-31,o),
(272,-14,c),
(414,6,o),
(502,95,o),
(530,257,cs),
(608,697,l)
);
}
);
width = 664;
}
);
note = Uogonek;
unicode = 370;
},
{
glyphname = Uring;
kernLeft = U;
kernRight = J;
lastChange = "2022-12-26 08:52:30 +0000";
layers = (
{
hints = (
{
horizontal = 1;
place = (-141, 21);
place = (-141, 21);
type = Stem;
},
{
horizontal = 1;
place = (551, -100);
place = (551, -100);
type = Stem;
},
{
horizontal = 1;
place = (719, -43);
place = (719, -43);
type = Stem;
},
{
place = (86, -42);
place = (86, -42);
type = Stem;
},
{
place = (254, -43);
place = (254, -43);
type = Stem;
},
{
horizontal = 1;
place = (551, -43);
place = (551, -43);
type = Stem;
},
{
horizontal = 1;
place = (574, -20);
target = down;
type = TopGhost;
},
{
place = (-67, 34);
place = (-67, 34);
type = Stem;
},
{
place = (328, 34);
place = (328, 34);
type = Stem;
}
);
layerId = m01;
shapes = (
{
closed = 1;
nodes = (
(397,674,o),
(463,729,o),
(475,798,cs),
(487,868,o),
(439,922,o),
(373,922,cs),
(304,922,o),
(239,866,o),
(227,798,cs),
(215,733,o),
(259,674,o),
(329,674,cs)
);
},
{
closed = 1;
nodes = (
(318,754,o),
(303,773,o),
(308,800,cs),
(312,824,o),
(331,842,o),
(359,842,cs),
(388,842,o),
(400,825,o),
(395,800,cs),
(390,773,o),
(370,754,o),
(343,754,cs)
);
},
{
closed = 1;
nodes = (
(388,-18,o),
(498,72,o),
(530,257,cs),
(608,697,l),
(451,697,l),
(375,268,ls),
(359,174,o),
(331,126,o),
(231,126,cs),
(130,126,o),
(121,173,o),
(138,270,cs),
(213,697,l),
(56,697,l),
(-22,252,ls),
(-55,70,o),
(23,-18,o),
(206,-18,cs)
);
}
);
width = 664;
}
);
note = Uring;
unicode = 366;
},
{
glyphname = Utilde;
kernLeft = U;
kernRight = J;
lastChange = "2022-12-26 08:52:30 +0000";
layers = (
{
hints = (
{
horizontal = 1;
place = (-141, 21);
place = (-141, 21);
type = Stem;
},
{
horizontal = 1;
place = (574, -20);
target = down;
type = TopGhost;
},
{
horizontal = 1;
place = (629, 26);
place = (629, 26);
type = Stem;
},
{
place = (-67, 34);
place = (-67, 34);
type = Stem;
},
{
place = (328, 34);
place = (328, 34);
type = Stem;
},
{
place = (291, -33);
place = (291, -33);
type = Stem;
},
{
horizontal = 1;
place = (629, -32);
place = (629, -32);
type = Stem;
},
{
horizontal = 1;
place = (628, 29);
place = (628, 29);
type = Stem;
},
{
place = (38, -71);
place = (38, -71);
type = Stem;
},
{
horizontal = 1;
place = (688, -31);
place = (688, -31);
type = Stem;
}
);
layerId = m01;
shapes = (
{
closed = 1;
nodes = (
(471,752,o),
(523,803,o),
(540,901,c),
(450,901,l),
(443,862,o),
(431,843,o),
(420,843,cs),
(396,843,o),
(376,903,o),
(311,903,cs),
(241,903,o),
(188,848,o),
(171,751,c),
(257,751,l),
(264,791,o),
(275,811,o),
(288,811,cs),
(315,811,o),
(327,752,o),
(402,752,cs)
);
},
{
closed = 1;
nodes = (
(388,-18,o),
(498,72,o),
(530,257,cs),
(608,697,l),
(451,697,l),
(375,268,ls),
(359,174,o),
(331,126,o),
(231,126,cs),
(130,126,o),
(121,173,o),
(138,270,cs),
(213,697,l),
(56,697,l),
(-22,252,ls),
(-55,70,o),
(23,-18,o),
(206,-18,cs)
);
}
);
width = 664;
}
);
note = Utilde;
unicode = 360;
},
{
glyphname = V;
kernLeft = V;
kernRight = V;
lastChange = "2022-12-26 08:52:30 +0000";
layers = (
{
hints = (
{
horizontal = 1;
place = (-123, 21);
target = up;
type = BottomGhost;
},
{
horizontal = 1;
place = (574, -20);
target = down;
type = TopGhost;
},
{
place = (-137, 553);
place = (-137, 553);
type = Stem;
}
);
layerId = m01;
shapes = (
{
closed = 1;
nodes = (
(487,697,o),
(472,669,qs),
(248,261,l),
(159,697,l),
(-14,697,l),
(144,0,l),
(259,0,l),
(662,697,l),
(518,697,ls)
);
}
);
width = 648;
}
);
note = V;
unicode = 86;
},
{
glyphname = W;
kernLeft = W;
kernRight = W;
lastChange = "2022-12-26 08:52:30 +0000";
layers = (
{
hints = (
{
horizontal = 1;
place = (-123, 21);
target = up;
type = BottomGhost;
},
{
horizontal = 1;
place = (574, -20);
target = down;
type = TopGhost;
},
{
place = (-130, 878);
place = (-130, 878);
type = Stem;
}
);
layerId = m01;
shapes = (
{
closed = 1;
nodes = (
(830,697,o),
(816,668,qs),
(616,242,l),
(552,655,l),
(449,655,ls),
(419,655,o),
(404,626,qs),
(211,242,l),
(157,697,l),
(-7,697,l),
(83,0,l),
(234,0,l),
(442,406,l),
(505,0,l),
(657,0,l),
(994,697,l),
(859,697,ls)
);
}
);
width = 986;
}
);
note = W;
unicode = 87;
},
{
glyphname = Wacute;
kernLeft = W;
kernRight = W;
lastChange = "2022-12-26 08:52:30 +0000";
layers = (
{
hints = (
{
horizontal = 1;
place = (-123, 21);
target = up;
type = BottomGhost;
},
{
horizontal = 1;
place = (574, -20);
target = down;
type = TopGhost;
},
{
horizontal = 1;
place = (635, 20);
place = (635, 20);
type = Stem;
},
{
place = (-130, 878);
place = (-130, 878);
type = Stem;
}
);
layerId = m01;
shapes = (
{
closed = 1;
nodes = (
(449,758,l),
(558,758,l),
(749,901,l),
(587,901,l)
);
},
{
closed = 1;
nodes = (
(83,0,l),
(234,0,l),
(442,406,l),
(505,0,l),
(657,0,l),
(994,697,l),
(829,697,l),
(616,242,l),
(552,655,l),
(419,655,l),
(211,242,l),
(157,697,l),
(-7,697,l)
);
}
);
width = 986;
}
);
note = Wacute;
unicode = 7810;
},
{
glyphname = Wcircumflex;
kernLeft = W;
kernRight = W;
lastChange = "2022-12-26 08:52:30 +0000";
layers = (
{
hints = (
{
horizontal = 1;
place = (-123, 21);
target = up;
type = BottomGhost;
},
{
horizontal = 1;
place = (574, -20);
target = down;
type = TopGhost;
},
{
place = (-130, 878);
place = (-130, 878);
type = Stem;
}
);
layerId = m01;
shapes = (
{
closed = 1;
nodes = (
(341,741,l),
(455,741,l),
(511,797,l),
(547,741,l),
(661,741,l),
(533,924,l)
);
},
{
closed = 1;
nodes = (
(83,0,l),
(234,0,l),
(442,406,l),
(505,0,l),
(657,0,l),
(994,697,l),
(829,697,l),
(616,242,l),
(552,655,l),
(419,655,l),
(211,242,l),
(157,697,l),
(-7,697,l)
);
}
);
width = 986;
}
);
note = Wcircumflex;
unicode = 372;
},
{
glyphname = Wdieresis;
kernLeft = W;
kernRight = W;
lastChange = "2022-12-26 08:52:30 +0000";
layers = (
{
hints = (
{
horizontal = 1;
place = (-123, 21);
target = up;
type = BottomGhost;
},
{
horizontal = 1;
place = (574, -20);
target = down;
type = TopGhost;
},
{
horizontal = 1;
place = (642, 13);
place = (642, 13);
type = Stem;
},
{
place = (211, -9);
place = (211, -9);
type = Stem;
},
{
place = (415, -9);
place = (415, -9);
type = Stem;
}
);
layerId = m01;
shapes = (
{
closed = 1;
nodes = (
(346,765,l),
(460,765,l),
(484,901,l),
(370,901,l)
);
},
{
closed = 1;
nodes = (
(550,765,l),
(664,765,l),
(688,901,l),
(574,901,l)
);
},
{
closed = 1;
nodes = (
(83,0,l),
(234,0,l),
(442,406,l),
(505,0,l),
(657,0,l),
(994,697,l),
(829,697,l),
(616,242,l),
(552,655,l),
(419,655,l),
(211,242,l),
(157,697,l),
(-7,697,l)
);
}
);
width = 986;
}
);
note = Wdieresis;
unicode = 7812;
},
{
glyphname = Wgrave;
kernLeft = W;
kernRight = W;
lastChange = "2022-12-26 08:52:30 +0000";
layers = (
{
hints = (
{
horizontal = 1;
place = (-123, 21);
target = up;
type = BottomGhost;
},
{
horizontal = 1;
place = (574, -20);
target = down;
type = TopGhost;
},
{
horizontal = 1;
place = (635, 20);
place = (635, 20);
type = Stem;
},
{
place = (-130, 878);
place = (-130, 878);
type = Stem;
}
);
layerId = m01;
shapes = (
{
closed = 1;
nodes = (
(448,758,l),
(559,758,l),
(480,901,l),
(320,901,l)
);
},
{
closed = 1;
nodes = (
(83,0,l),
(234,0,l),
(442,406,l),
(505,0,l),
(657,0,l),
(994,697,l),
(829,697,l),
(616,242,l),
(552,655,l),
(419,655,l),
(211,242,l),
(157,697,l),
(-7,697,l)
);
}
);
width = 986;
}
);
note = Wgrave;
unicode = 7808;
},
{
glyphname = X;
kernLeft = X;
kernRight = X;
lastChange = "2022-12-26 08:52:30 +0000";
layers = (
{
hints = (
{
horizontal = 1;
place = (-123, 21);
target = up;
type = BottomGhost;
},
{
horizontal = 1;
place = (574, -20);
target = down;
type = TopGhost;
},
{
place = (-129, 550);
place = (-129, 550);
type = Stem;
}
);
layerId = m01;
shapes = (
{
closed = 1;
nodes = (
(356,0,o),
(386,0,qs),
(544,0,l),
(377,346,l),
(667,697,l),
(480,697,l),
(288,455,l),
(193,671,ls),
(181,697,o),
(152,697,qs),
(-6,697,l),
(160,346,l),
(-128,0,l),
(60,0,l),
(248,233,l),
(345,25,ls)
);
}
);
width = 674;
}
);
note = X;
unicode = 88;
},
{
glyphname = Y;
kernLeft = Y;
kernRight = Y;
lastChange = "2022-12-26 08:52:30 +0000";
layers = (
{
hints = (
{
horizontal = 1;
place = (-123, 21);
target = up;
type = BottomGhost;
},
{
horizontal = 1;
place = (574, -20);
target = down;
type = TopGhost;
},
{
place = (120, 34);
place = (120, 34);
type = Stem;
}
);
layerId = m01;
shapes = (
{
closed = 1;
nodes = (
(120,0,l),
(277,0,l),
(326,275,l),
(661,697,l),
(476,697,l),
(270,426,l),
(164,697,l),
(-21,697,l),
(169,275,l)
);
}
);
width = 641;
}
);
note = Y;
unicode = 89;
},
{
glyphname = Yacute;
kernLeft = Y;
kernRight = Y;
lastChange = "2022-12-26 08:52:30 +0000";
layers = (
{
hints = (
{
horizontal = 1;
place = (-123, 21);
target = up;
type = BottomGhost;
},
{
horizontal = 1;
place = (574, -20);
target = down;
type = TopGhost;
},
{
horizontal = 1;
place = (635, 20);
place = (635, 20);
type = Stem;
},
{
place = (120, 34);
place = (120, 34);
type = Stem;
}
);
layerId = m01;
shapes = (
{
closed = 1;
nodes = (
(277,758,l),
(386,758,l),
(577,901,l),
(415,901,l)
);
},
{
closed = 1;
nodes = (
(120,0,l),
(277,0,l),
(326,275,l),
(661,697,l),
(476,697,l),
(270,426,l),
(164,697,l),
(-21,697,l),
(169,275,l)
);
}
);
width = 641;
}
);
note = Yacute;
unicode = 221;
},
{
glyphname = Ycircumflex;
kernLeft = Y;
kernRight = Y;
lastChange = "2022-12-26 08:52:30 +0000";
layers = (
{
hints = (
{
horizontal = 1;
place = (-123, 21);
target = up;
type = BottomGhost;
},
{
horizontal = 1;
place = (574, -20);
target = down;
type = TopGhost;
},
{
place = (120, 34);
place = (120, 34);
type = Stem;
}
);
layerId = m01;
shapes = (
{
closed = 1;
nodes = (
(169,741,l),
(283,741,l),
(339,797,l),
(375,741,l),
(489,741,l),
(361,924,l)
);
},
{
closed = 1;
nodes = (
(120,0,l),
(277,0,l),
(326,275,l),
(661,697,l),
(476,697,l),
(270,426,l),
(164,697,l),
(-21,697,l),
(169,275,l)
);
}
);
width = 641;
}
);
note = Ycircumflex;
unicode = 374;
},
{
glyphname = Ydieresis;
kernLeft = Y;
kernRight = Y;
lastChange = "2022-12-26 08:52:30 +0000";
layers = (
{
hints = (
{
horizontal = 1;
place = (-123, 21);
target = up;
type = BottomGhost;
},
{
horizontal = 1;
place = (574, -20);
target = down;
type = TopGhost;
},
{
horizontal = 1;
place = (642, 13);
place = (642, 13);
type = Stem;
},
{
place = (39, -9);
place = (39, -9);
type = Stem;
},
{
place = (243, -9);
place = (243, -9);
type = Stem;
},
{
place = (120, 34);
place = (120, 34);
type = Stem;
}
);
layerId = m01;
shapes = (
{
closed = 1;
nodes = (
(174,765,l),
(288,765,l),
(312,901,l),
(198,901,l)
);
},
{
closed = 1;
nodes = (
(378,765,l),
(492,765,l),
(516,901,l),
(402,901,l)
);
},
{
closed = 1;
nodes = (
(120,0,l),
(277,0,l),
(326,275,l),
(661,697,l),
(476,697,l),
(270,426,l),
(164,697,l),
(-21,697,l),
(169,275,l)
);
}
);
width = 641;
}
);
note = Ydieresis;
unicode = 376;
},
{
glyphname = uni1EF4;
kernLeft = Y;
kernRight = Y;
lastChange = "2022-12-26 08:52:30 +0000";
layers = (
{
hints = (
{
horizontal = 1;
place = (-296, -6);
place = (-296, -6);
type = Stem;
},
{
horizontal = 1;
place = (-123, 21);
target = up;
type = BottomGhost;
},
{
horizontal = 1;
place = (574, -20);
target = down;
type = TopGhost;
},
{
place = (120, 34);
place = (120, 34);
type = Stem;
},
{
place = (121, 31);
place = (121, 31);
type = Stem;
}
);
layerId = m01;
shapes = (
{
closed = 1;
nodes = (
(120,0,l),
(277,0,l),
(326,275,l),
(661,697,l),
(476,697,l),
(270,426,l),
(164,697,l),
(-21,697,l),
(169,275,l)
);
},
{
closed = 1;
nodes = (
(91,-173,l),
(245,-173,l),
(265,-56,l),
(111,-56,l)
);
}
);
width = 641;
}
);
note = uni1EF4;
unicode = 7924;
},
{
glyphname = Ygrave;
kernLeft = Y;
kernRight = Y;
lastChange = "2022-12-26 08:52:30 +0000";
layers = (
{
hints = (
{
horizontal = 1;
place = (-123, 21);
target = up;
type = BottomGhost;
},
{
horizontal = 1;
place = (574, -20);
target = down;
type = TopGhost;
},
{
horizontal = 1;
place = (635, 20);
place = (635, 20);
type = Stem;
},
{
place = (120, 34);
place = (120, 34);
type = Stem;
}
);
layerId = m01;
shapes = (
{
closed = 1;
nodes = (
(276,758,l),
(387,758,l),
(308,901,l),
(148,901,l)
);
},
{
closed = 1;
nodes = (
(120,0,l),
(277,0,l),
(326,275,l),
(661,697,l),
(476,697,l),
(270,426,l),
(164,697,l),
(-21,697,l),
(169,275,l)
);
}
);
width = 641;
}
);
note = Ygrave;
unicode = 7922;
},
{
glyphname = uni1EF6;
kernLeft = Y;
kernRight = Y;
lastChange = "2022-12-26 08:52:30 +0000";
layers = (
{
hints = (
{
horizontal = 1;
place = (-123, 21);
target = up;
type = BottomGhost;
},
{
horizontal = 1;
place = (574, -20);
target = down;
type = TopGhost;
},
{
horizontal = 1;
place = (591, -62);
place = (591, -62);
type = Stem;
},
{
horizontal = 1;
place = (707, -31);
place = (707, -31);
type = Stem;
},
{
place = (120, 34);
place = (120, 34);
type = Stem;
},
{
place = (209, -18);
place = (209, -18);
type = Stem;
}
);
layerId = m01;
shapes = (
{
closed = 1;
nodes = (
(297,714,l),
(356,722,o),
(444,736,o),
(458,815,cs),
(470,884,o),
(407,922,o),
(301,922,cs),
(285,922,l),
(268,830,l),
(284,830,ls),
(321,830,o),
(355,830,o),
(351,804,cs),
(347,780,o),
(319,779,o),
(291,775,c)
);
},
{
closed = 1;
nodes = (
(120,0,l),
(277,0,l),
(326,275,l),
(661,697,l),
(476,697,l),
(270,426,l),
(164,697,l),
(-21,697,l),
(169,275,l)
);
}
);
width = 641;
}
);
note = uni1EF6;
unicode = 7926;
},
{
glyphname = uni1EF8;
kernLeft = Y;
kernRight = Y;
lastChange = "2022-12-26 08:52:30 +0000";
layers = (
{
hints = (
{
horizontal = 1;
place = (-123, 21);
target = up;
type = BottomGhost;
},
{
horizontal = 1;
place = (574, -20);
target = down;
type = TopGhost;
},
{
horizontal = 1;
place = (629, 26);
place = (629, 26);
type = Stem;
},
{
place = (120, 34);
place = (120, 34);
type = Stem;
},
{
place = (279, -33);
place = (279, -33);
type = Stem;
},
{
horizontal = 1;
place = (629, -32);
place = (629, -32);
type = Stem;
},
{
horizontal = 1;
place = (628, 29);
place = (628, 29);
type = Stem;
},
{
place = (26, -37);
place = (26, -37);
type = Stem;
},
{
horizontal = 1;
place = (688, -31);
place = (688, -31);
type = Stem;
}
);
layerId = m01;
shapes = (
{
closed = 1;
nodes = (
(459,752,o),
(511,803,o),
(528,901,c),
(438,901,l),
(431,862,o),
(419,843,o),
(408,843,cs),
(384,843,o),
(364,903,o),
(299,903,cs),
(229,903,o),
(176,848,o),
(159,751,c),
(245,751,l),
(252,791,o),
(263,811,o),
(276,811,cs),
(303,811,o),
(315,752,o),
(390,752,cs)
);
},
{
closed = 1;
nodes = (
(120,0,l),
(277,0,l),
(326,275,l),
(661,697,l),
(476,697,l),
(270,426,l),
(164,697,l),
(-21,697,l),
(169,275,l)
);
}
);
width = 641;
}
);
note = uni1EF8;
unicode = 7928;
},
{
glyphname = Z;
kernLeft = Z;
kernRight = Z;
lastChange = "2022-12-26 08:52:30 +0000";
layers = (
{
hints = (
{
horizontal = 1;
place = (-123, 21);
place = (-123, 21);
type = Stem;
},
{
horizontal = 1;
place = (430, 21);
place = (430, 21);
type = Stem;
},
{
place = (-108, 447);
place = (-108, 447);
type = Stem;
}
);
layerId = m01;
shapes = (
{
closed = 1;
nodes = (
(487,144,o),
(457,144,qs),
(133,144,l),
(564,585,l),
(584,697,l),
(38,697,l),
(13,553,l),
(348,553,l),
(-89,107,l),
(-108,0,l),
(462,0,l),
(482,114,ls)
);
}
);
width = 608;
}
);
note = Z;
unicode = 90;
},
{
glyphname = Zacute;
kernLeft = Z;
kernRight = Z;
lastChange = "2022-12-26 08:52:30 +0000";
layers = (
{
hints = (
{
horizontal = 1;
place = (-123, 21);
place = (-123, 21);
type = Stem;
},
{
horizontal = 1;
place = (430, 21);
place = (430, 21);
type = Stem;
},
{
horizontal = 1;
place = (635, 20);
place = (635, 20);
type = Stem;
},
{
place = (-108, 447);
place = (-108, 447);
type = Stem;
}
);
layerId = m01;
shapes = (
{
closed = 1;
nodes = (
(560,901,l),
(398,901,l),
(260,758,l),
(369,758,l)
);
},
{
closed = 1;
nodes = (
(133,144,l),
(564,585,l),
(584,697,l),
(38,697,l),
(13,553,l),
(348,553,l),
(-89,107,l),
(-108,0,l),
(462,0,l),
(487,144,l)
);
}
);
width = 608;
}
);
note = Zacute;
unicode = 377;
},
{
glyphname = Zcaron;
kernLeft = Z;
kernRight = Z;
lastChange = "2022-12-26 08:52:30 +0000";
layers = (
{
hints = (
{
horizontal = 1;
place = (-123, 21);
place = (-123, 21);
type = Stem;
},
{
horizontal = 1;
place = (430, 21);
place = (430, 21);
type = Stem;
},
{
place = (-108, 447);
place = (-108, 447);
type = Stem;
}
);
layerId = m01;
shapes = (
{
closed = 1;
nodes = (
(500,901,l),
(386,901,l),
(331,851,l),
(295,901,l),
(180,901,l),
(310,730,l)
);
},
{
closed = 1;
nodes = (
(133,144,l),
(564,585,l),
(584,697,l),
(38,697,l),
(13,553,l),
(348,553,l),
(-89,107,l),
(-108,0,l),
(462,0,l),
(487,144,l)
);
}
);
width = 608;
}
);
note = Zcaron;
unicode = 381;
},
{
glyphname = Zdotaccent;
kernLeft = Z;
kernRight = Z;
lastChange = "2022-12-26 08:52:30 +0000";
layers = (
{
hints = (
{
horizontal = 1;
place = (-123, 21);
place = (-123, 21);
type = Stem;
},
{
horizontal = 1;
place = (430, 21);
place = (430, 21);
type = Stem;
},
{
horizontal = 1;
place = (642, 13);
place = (642, 13);
type = Stem;
},
{
place = (104, 31);
place = (104, 31);
type = Stem;
}
);
layerId = m01;
shapes = (
{
closed = 1;
nodes = (
(417,901,l),
(263,901,l),
(239,765,l),
(393,765,l)
);
},
{
closed = 1;
nodes = (
(133,144,l),
(564,585,l),
(584,697,l),
(38,697,l),
(13,553,l),
(348,553,l),
(-89,107,l),
(-108,0,l),
(462,0,l),
(487,144,l)
);
}
);
width = 608;
}
);
note = Zdotaccent;
unicode = 379;
},
{
glyphname = uni1EB6.ss03;
kernLeft = A;
kernRight = A;
lastChange = "2022-12-26 08:52:30 +0000";
layers = (
{
hints = (
{
horizontal = 1;
place = (-123, 21);
target = up;
type = BottomGhost;
},
{
horizontal = 1;
place = (-5, 21);
place = (-5, 21);
type = Stem;
},
{
horizontal = 1;
place = (574, -20);
target = down;
type = TopGhost;
},
{
horizontal = 1;
place = (644, 11);
place = (644, 11);
type = Stem;
},
{
place = (51, -17);
place = (51, -17);
type = Stem;
},
{
place = (263, -17);
place = (263, -17);
type = Stem;
},
{
horizontal = 1;
place = (644, -36);
place = (644, -36);
type = Stem;
},
{
horizontal = 1;
place = (-332, 48);
place = (-332, 48);
type = Stem;
},
{
place = (125, 47);
place = (125, 47);
type = Stem;
}
);
layerId = m01;
shapes = (
{
closed = 1;
nodes = (
(451,767,o),
(512,809,o),
(528,901,c),
(422,901,l),
(417,870,o),
(389,854,o),
(361,854,cs),
(335,854,o),
(310,868,o),
(316,901,c),
(210,901,l),
(195,815,o),
(233,767,o),
(345,767,cs)
);
},
{
closed = 1;
nodes = (
(556,0,l),
(390,697,l),
(275,697,l),
(-138,0,l),
(33,0,l),
(99,118,l),
(361,118,l),
(385,0,l)
);
},
{
closed = 1;
nodes = (
(179,262,l),
(292,463,l),
(332,262,l)
);
},
{
closed = 1;
nodes = (
(155,-38,o),
(112,-75,o),
(103,-123,cs),
(95,-171,o),
(126,-209,o),
(173,-209,cs),
(221,-209,o),
(265,-171,o),
(273,-123,cs),
(282,-75,o),
(251,-38,o),
(203,-38,cs)
);
}
);
width = 664;
}
);
note = uni1EB6.ss03;
},
{
glyphname = uni1EAC.ss03;
kernLeft = A;
kernRight = A;
lastChange = "2022-12-26 08:52:30 +0000";
layers = (
{
hints = (
{
horizontal = 1;
place = (-332, 48);
place = (-332, 48);
type = Stem;
},
{
horizontal = 1;
place = (-123, 21);
target = up;
type = BottomGhost;
},
{
horizontal = 1;
place = (-5, 21);
place = (-5, 21);
type = Stem;
},
{
horizontal = 1;
place = (574, -20);
target = down;
type = TopGhost;
},
{
place = (125, 47);
place = (125, 47);
type = Stem;
}
);
layerId = m01;
shapes = (
{
closed = 1;
nodes = (
(351,797,l),
(387,741,l),
(501,741,l),
(373,924,l),
(181,741,l),
(295,741,l)
);
},
{
closed = 1;
nodes = (
(556,0,l),
(390,697,l),
(275,697,l),
(-138,0,l),
(33,0,l),
(99,118,l),
(361,118,l),
(385,0,l)
);
},
{
closed = 1;
nodes = (
(179,262,l),
(292,463,l),
(332,262,l)
);
},
{
closed = 1;
nodes = (
(155,-38,o),
(112,-75,o),
(103,-123,cs),
(95,-171,o),
(126,-209,o),
(173,-209,cs),
(221,-209,o),
(265,-171,o),
(273,-123,cs),
(282,-75,o),
(251,-38,o),
(203,-38,cs)
);
}
);
width = 664;
}
);
note = uni1EAC.ss03;
},
{
glyphname = Adieresis.ss03;
kernLeft = A;
kernRight = A;
lastChange = "2022-12-26 08:52:30 +0000";
layers = (
{
hints = (
{
horizontal = 1;
place = (-123, 21);
target = up;
type = BottomGhost;
},
{
horizontal = 1;
place = (-5, 21);
place = (-5, 21);
type = Stem;
},
{
horizontal = 1;
place = (574, -20);
target = down;
type = TopGhost;
},
{
horizontal = 1;
place = (618, 48);
place = (618, 48);
type = Stem;
},
{
place = (22, 47);
place = (22, 47);
type = Stem;
},
{
place = (228, 47);
place = (228, 47);
type = Stem;
}
);
layerId = m01;
shapes = (
{
closed = 1;
nodes = (
(286,741,o),
(329,779,o),
(338,827,cs),
(346,875,o),
(316,912,o),
(268,912,cs),
(220,912,o),
(176,875,o),
(168,827,cs),
(159,779,o),
(191,741,o),
(238,741,cs)
);
},
{
closed = 1;
nodes = (
(492,741,o),
(535,779,o),
(544,827,cs),
(552,875,o),
(522,912,o),
(474,912,cs),
(426,912,o),
(382,875,o),
(374,827,cs),
(365,779,o),
(397,741,o),
(444,741,cs)
);
},
{
closed = 1;
nodes = (
(385,0,l),
(556,0,l),
(390,697,l),
(275,697,l),
(-138,0,l),
(33,0,l),
(99,118,l),
(361,118,l)
);
},
{
closed = 1;
nodes = (
(179,262,l),
(292,463,l),
(332,262,l)
);
}
);
width = 664;
}
);
note = Adieresis.ss03;
},
{
glyphname = uni1EA0.ss03;
kernLeft = A;
kernRight = A;
lastChange = "2022-12-26 08:52:30 +0000";
layers = (
{
hints = (
{
horizontal = 1;
place = (-332, 48);
place = (-332, 48);
type = Stem;
},
{
horizontal = 1;
place = (-123, 21);
target = up;
type = BottomGhost;
},
{
horizontal = 1;
place = (-5, 21);
place = (-5, 21);
type = Stem;
},
{
horizontal = 1;
place = (574, -20);
target = down;
type = TopGhost;
},
{
place = (125, 47);
place = (125, 47);
type = Stem;
}
);
layerId = m01;
shapes = (
{
closed = 1;
nodes = (
(556,0,l),
(390,697,l),
(275,697,l),
(-138,0,l),
(33,0,l),
(99,118,l),
(361,118,l),
(385,0,l)
);
},
{
closed = 1;
nodes = (
(179,262,l),
(292,463,l),
(332,262,l)
);
},
{
closed = 1;
nodes = (
(155,-38,o),
(112,-75,o),
(103,-123,cs),
(95,-171,o),
(126,-209,o),
(173,-209,cs),
(221,-209,o),
(265,-171,o),
(273,-123,cs),
(282,-75,o),
(251,-38,o),
(203,-38,cs)
);
}
);
width = 664;
}
);
note = uni1EA0.ss03;
},
{
glyphname = Cdotaccent.ss03;
kernLeft = C;
kernRight = C;
lastChange = "2022-12-26 08:52:30 +0000";
layers = (
{
hints = (
{
horizontal = 1;
place = (-141, 27);
place = (-141, 27);
type = Stem;
},
{
horizontal = 1;
place = (444, 27);
place = (444, 27);
type = Stem;
},
{
horizontal = 1;
place = (618, 48);
place = (618, 48);
type = Stem;
},
{
place = (-102, 34);
place = (-102, 34);
type = Stem;
},
{
place = (167, 47);
place = (167, 47);
type = Stem;
}
);
layerId = m01;
shapes = (
{
closed = 1;
nodes = (
(431,741,o),
(474,779,o),
(483,827,cs),
(491,875,o),
(461,912,o),
(413,912,cs),
(365,912,o),
(321,875,o),
(313,827,cs),
(304,779,o),
(336,741,o),
(383,741,cs)
);
},
{
closed = 1;
nodes = (
(401,-18,o),
(532,59,o),
(605,198,c),
(468,254,l),
(430,173,o),
(359,132,o),
(272,132,cs),
(151,132,o),
(92,211,o),
(117,350,cs),
(141,489,o),
(226,567,o),
(346,567,cs),
(431,567,o),
(489,527,o),
(502,448,c),
(657,505,l),
(629,637,o),
(529,717,o),
(373,717,cs),
(164,717,o),
(-1,571,o),
(-41,348,cs),
(-80,127,o),
(35,-18,o),
(246,-18,cs)
);
}
);
width = 697;
}
);
note = Cdotaccent.ss03;
},
{
glyphname = uni1EC6.ss03;
lastChange = "2022-12-26 08:52:30 +0000";
layers = (
{
hints = (
{
horizontal = 1;
place = (-123, 21);
place = (-123, 21);
type = Stem;
},
{
horizontal = 1;
place = (165, 22);
place = (165, 22);
type = Stem;
},
{
horizontal = 1;
place = (430, 21);
place = (430, 21);
type = Stem;
},
{
place = (-52, 34);
place = (-52, 34);
type = Stem;
},
{
horizontal = 1;
place = (-332, 48);
place = (-332, 48);
type = Stem;
},
{
place = (97, 47);
place = (97, 47);
type = Stem;
}
);
layerId = m01;
shapes = (
{
closed = 1;
nodes = (
(153,741,l),
(267,741,l),
(323,797,l),
(359,741,l),
(473,741,l),
(345,924,l)
);
},
{
closed = 1;
nodes = (
(-52,0,l),
(416,0,l),
(441,144,l),
(130,144,l),
(156,288,l),
(452,288,l),
(477,433,l),
(181,433,l),
(203,553,l),
(514,553,l),
(539,697,l),
(71,697,l)
);
},
{
closed = 1;
nodes = (
(193,-209,o),
(237,-171,o),
(245,-123,cs),
(254,-75,o),
(223,-38,o),
(175,-38,cs),
(127,-38,o),
(84,-75,o),
(75,-123,cs),
(67,-171,o),
(98,-209,o),
(145,-209,cs)
);
}
);
width = 592;
}
);
note = uni1EC6.ss03;
},
{
glyphname = Edieresis.ss03;
lastChange = "2022-12-26 08:52:30 +0000";
layers = (
{
hints = (
{
horizontal = 1;
place = (-123, 21);
place = (-123, 21);
type = Stem;
},
{
horizontal = 1;
place = (165, 22);
place = (165, 22);
type = Stem;
},
{
horizontal = 1;
place = (430, 21);
place = (430, 21);
type = Stem;
},
{
horizontal = 1;
place = (618, 48);
place = (618, 48);
type = Stem;
},
{
place = (-6, 47);
place = (-6, 47);
type = Stem;
},
{
place = (200, 47);
place = (200, 47);
type = Stem;
},
{
place = (-52, 34);
place = (-52, 34);
type = Stem;
}
);
layerId = m01;
shapes = (
{
closed = 1;
nodes = (
(258,741,o),
(301,779,o),
(310,827,cs),
(318,875,o),
(288,912,o),
(240,912,cs),
(192,912,o),
(148,875,o),
(140,827,cs),
(131,779,o),
(163,741,o),
(210,741,cs)
);
},
{
closed = 1;
nodes = (
(464,741,o),
(507,779,o),
(516,827,cs),
(524,875,o),
(494,912,o),
(446,912,cs),
(398,912,o),
(354,875,o),
(346,827,cs),
(337,779,o),
(369,741,o),
(416,741,cs)
);
},
{
closed = 1;
nodes = (
(-52,0,l),
(416,0,l),
(441,144,l),
(130,144,l),
(156,288,l),
(452,288,l),
(477,433,l),
(181,433,l),
(203,553,l),
(514,553,l),
(539,697,l),
(71,697,l)
);
}
);
width = 592;
}
);
note = Edieresis.ss03;
},
{
glyphname = Edotaccent.ss03;
lastChange = "2022-12-26 08:52:30 +0000";
layers = (
{
hints = (
{
horizontal = 1;
place = (-123, 21);
place = (-123, 21);
type = Stem;
},
{
horizontal = 1;
place = (165, 22);
place = (165, 22);
type = Stem;
},
{
horizontal = 1;
place = (430, 21);
place = (430, 21);
type = Stem;
},
{
horizontal = 1;
place = (618, 48);
place = (618, 48);
type = Stem;
},
{
place = (97, 47);
place = (97, 47);
type = Stem;
},
{
place = (-52, 34);
place = (-52, 34);
type = Stem;
}
);
layerId = m01;
shapes = (
{
closed = 1;
nodes = (
(361,741,o),
(404,779,o),
(413,827,cs),
(421,875,o),
(391,912,o),
(343,912,cs),
(295,912,o),
(251,875,o),
(243,827,cs),
(234,779,o),
(266,741,o),
(313,741,cs)
);
},
{
closed = 1;
nodes = (
(-52,0,l),
(416,0,l),
(441,144,l),
(130,144,l),
(156,288,l),
(452,288,l),
(477,433,l),
(181,433,l),
(203,553,l),
(514,553,l),
(539,697,l),
(71,697,l)
);
}
);
width = 592;
}
);
note = Edotaccent.ss03;
},
{
glyphname = uni1EB8.ss03;
lastChange = "2022-12-26 08:52:30 +0000";
layers = (
{
hints = (
{
horizontal = 1;
place = (-123, 21);
place = (-123, 21);
type = Stem;
},
{
horizontal = 1;
place = (165, 22);
place = (165, 22);
type = Stem;
},
{
horizontal = 1;
place = (430, 21);
place = (430, 21);
type = Stem;
},
{
place = (-52, 34);
place = (-52, 34);
type = Stem;
},
{
horizontal = 1;
place = (-332, 48);
place = (-332, 48);
type = Stem;
},
{
place = (97, 47);
place = (97, 47);
type = Stem;
}
);
layerId = m01;
shapes = (
{
closed = 1;
nodes = (
(-52,0,l),
(416,0,l),
(441,144,l),
(130,144,l),
(156,288,l),
(452,288,l),
(477,433,l),
(181,433,l),
(203,553,l),
(514,553,l),
(539,697,l),
(71,697,l)
);
},
{
closed = 1;
nodes = (
(193,-209,o),
(237,-171,o),
(245,-123,cs),
(254,-75,o),
(223,-38,o),
(175,-38,cs),
(127,-38,o),
(84,-75,o),
(75,-123,cs),
(67,-171,o),
(98,-209,o),
(145,-209,cs)
);
}
);
width = 592;
}
);
note = uni1EB8.ss03;
},
{
glyphname = Gdotaccent.ss03;
kernRight = G;
lastChange = "2022-12-26 08:52:30 +0000";
layers = (
{
hints = (
{
horizontal = 1;
place = (-141, 27);
place = (-141, 27);
type = Stem;
},
{
horizontal = 1;
place = (124, 17);
place = (124, 17);
type = Stem;
},
{
horizontal = 1;
place = (444, 27);
place = (444, 27);
type = Stem;
},
{
horizontal = 1;
place = (618, 48);
place = (618, 48);
type = Stem;
},
{
place = (-103, 34);
place = (-103, 34);
type = Stem;
},
{
place = (163, 47);
place = (163, 47);
type = Stem;
},
{
place = (410, 35);
place = (410, 35);
type = Stem;
},
{
horizontal = 1;
place = (-123, 21);
target = up;
type = BottomGhost;
}
);
layerId = m01;
shapes = (
{
closed = 1;
nodes = (
(427,741,o),
(470,779,o),
(479,827,cs),
(487,875,o),
(457,912,o),
(409,912,cs),
(361,912,o),
(317,875,o),
(309,827,cs),
(300,779,o),
(332,741,o),
(379,741,cs)
);
},
{
closed = 1;
nodes = (
(329,387,l),
(305,247,l),
(454,247,l),
(452,237,ls),
(442,182,o),
(382,132,o),
(278,132,cs),
(161,132,o),
(89,196,o),
(115,347,cs),
(141,491,o),
(231,567,o),
(345,567,cs),
(425,567,o),
(487,528,o),
(501,448,c),
(656,505,l),
(627,644,o),
(513,717,o),
(374,717,cs),
(169,717,o),
(-4,559,o),
(-43,342,cs),
(-79,134,o),
(27,-18,o),
(239,-18,cs),
(325,-18,o),
(400,7,o),
(454,67,c),
(460,0,l),
(568,0,l),
(636,387,l)
);
}
);
width = 738;
}
);
note = Gdotaccent.ss03;
},
{
glyphname = Idieresis.ss03;
lastChange = "2022-12-26 08:52:30 +0000";
layers = (
{
hints = (
{
horizontal = 1;
place = (-123, 21);
target = up;
type = BottomGhost;
},
{
horizontal = 1;
place = (574, -20);
target = down;
type = TopGhost;
},
{
horizontal = 1;
place = (618, 48);
place = (618, 48);
type = Stem;
},
{
place = (-52, -62);
place = (-52, -62);
type = Stem;
},
{
place = (-161, 47);
place = (-161, 47);
type = Stem;
},
{
place = (45, -63);
place = (45, -63);
type = Stem;
},
{
place = (45, 47);
place = (45, 47);
type = Stem;
},
{
place = (-52, 34);
place = (-52, 34);
type = Stem;
}
);
layerId = m01;
shapes = (
{
closed = 1;
nodes = (
(103,741,o),
(146,779,o),
(155,827,cs),
(163,875,o),
(133,912,o),
(85,912,cs),
(37,912,o),
(-7,875,o),
(-15,827,cs),
(-24,779,o),
(8,741,o),
(55,741,cs)
);
},
{
closed = 1;
nodes = (
(309,741,o),
(352,779,o),
(361,827,cs),
(369,875,o),
(339,912,o),
(291,912,cs),
(243,912,o),
(199,875,o),
(191,827,cs),
(182,779,o),
(214,741,o),
(261,741,cs)
);
},
{
closed = 1;
nodes = (
(-52,0,l),
(105,0,l),
(228,697,l),
(71,697,l)
);
}
);
width = 299;
}
);
note = Idieresis.ss03;
},
{
glyphname = uni1ECA.ss03;
lastChange = "2022-12-26 08:52:30 +0000";
layers = (
{
hints = (
{
horizontal = 1;
place = (-332, 48);
place = (-332, 48);
type = Stem;
},
{
horizontal = 1;
place = (-123, 21);
target = up;
type = BottomGhost;
},
{
horizontal = 1;
place = (574, -20);
target = down;
type = TopGhost;
},
{
place = (-52, 34);
place = (-52, 34);
type = Stem;
}
);
layerId = m01;
shapes = (
{
closed = 1;
nodes = (
(-52,0,l),
(105,0,l),
(228,697,l),
(71,697,l)
);
},
{
closed = 1;
nodes = (
(38,-209,o),
(82,-171,o),
(90,-123,cs),
(99,-75,o),
(68,-38,o),
(20,-38,cs),
(-28,-38,o),
(-71,-75,o),
(-80,-123,cs),
(-88,-171,o),
(-57,-209,o),
(-10,-209,cs)
);
}
);
width = 299;
}
);
note = uni1ECA.ss03;
},
{
glyphname = uni1ED8.ss03;
lastChange = "2022-12-26 08:52:30 +0000";
layers = (
{
hints = (
{
horizontal = 1;
place = (-141, 27);
place = (-141, 27);
type = Stem;
},
{
horizontal = 1;
place = (442, 27);
place = (442, 27);
type = Stem;
},
{
place = (-102, 34);
place = (-102, 34);
type = Stem;
},
{
place = (423, 35);
place = (423, 35);
type = Stem;
},
{
horizontal = 1;
place = (-332, 48);
place = (-332, 48);
type = Stem;
},
{
place = (155, 47);
place = (155, 47);
type = Stem;
}
);
layerId = m01;
shapes = (
{
closed = 1;
nodes = (
(210,741,l),
(324,741,l),
(380,797,l),
(416,741,l),
(530,741,l),
(402,924,l)
);
},
{
closed = 1;
nodes = (
(438,-18,o),
(604,128,o),
(642,348,cs),
(681,569,o),
(569,715,o),
(365,715,cs),
(163,715,o),
(-2,568,o),
(-41,348,cs),
(-79,129,o),
(34,-18,o),
(236,-18,cs)
);
},
{
closed = 1;
nodes = (
(150,132,o),
(93,213,o),
(116,348,cs),
(140,484,o),
(227,565,o),
(339,565,cs),
(452,565,o),
(508,482,o),
(484,348,cs),
(461,215,o),
(375,132,o),
(262,132,cs)
);
},
{
closed = 1;
nodes = (
(251,-209,o),
(295,-171,o),
(303,-123,cs),
(312,-75,o),
(281,-38,o),
(233,-38,cs),
(185,-38,o),
(142,-75,o),
(133,-123,cs),
(125,-171,o),
(156,-209,o),
(203,-209,cs)
);
}
);
width = 725;
}
);
note = uni1ED8.ss03;
},
{
glyphname = Odieresis.ss03;
lastChange = "2022-12-26 08:52:30 +0000";
layers = (
{
hints = (
{
horizontal = 1;
place = (-141, 27);
place = (-141, 27);
type = Stem;
},
{
horizontal = 1;
place = (442, 27);
place = (442, 27);
type = Stem;
},
{
horizontal = 1;
place = (618, 48);
place = (618, 48);
type = Stem;
},
{
place = (51, 47);
place = (51, 47);
type = Stem;
},
{
place = (257, 47);
place = (257, 47);
type = Stem;
},
{
place = (-102, 34);
place = (-102, 34);
type = Stem;
},
{
place = (423, 35);
place = (423, 35);
type = Stem;
}
);
layerId = m01;
shapes = (
{
closed = 1;
nodes = (
(315,741,o),
(358,779,o),
(367,827,cs),
(375,875,o),
(345,912,o),
(297,912,cs),
(249,912,o),
(205,875,o),
(197,827,cs),
(188,779,o),
(220,741,o),
(267,741,cs)
);
},
{
closed = 1;
nodes = (
(521,741,o),
(564,779,o),
(573,827,cs),
(581,875,o),
(551,912,o),
(503,912,cs),
(455,912,o),
(411,875,o),
(403,827,cs),
(394,779,o),
(426,741,o),
(473,741,cs)
);
},
{
closed = 1;
nodes = (
(438,-18,o),
(604,128,o),
(642,348,cs),
(681,569,o),
(569,715,o),
(365,715,cs),
(163,715,o),
(-2,568,o),
(-41,348,cs),
(-79,129,o),
(34,-18,o),
(236,-18,cs)
);
},
{
closed = 1;
nodes = (
(150,132,o),
(93,213,o),
(116,348,cs),
(140,484,o),
(227,565,o),
(339,565,cs),
(452,565,o),
(508,482,o),
(484,348,cs),
(461,215,o),
(375,132,o),
(262,132,cs)
);
}
);
width = 725;
}
);
note = Odieresis.ss03;
},
{
glyphname = uni1ECC.ss03;
lastChange = "2022-12-26 08:52:30 +0000";
layers = (
{
hints = (
{
horizontal = 1;
place = (-141, 27);
place = (-141, 27);
type = Stem;
},
{
horizontal = 1;
place = (442, 27);
place = (442, 27);
type = Stem;
},
{
place = (-102, 34);
place = (-102, 34);
type = Stem;
},
{
place = (423, 35);
place = (423, 35);
type = Stem;
},
{
horizontal = 1;
place = (-332, 48);
place = (-332, 48);
type = Stem;
},
{
place = (155, 47);
place = (155, 47);
type = Stem;
}
);
layerId = m01;
shapes = (
{
closed = 1;
nodes = (
(438,-18,o),
(604,128,o),
(642,348,cs),
(681,569,o),
(569,715,o),
(365,715,cs),
(163,715,o),
(-2,568,o),
(-41,348,cs),
(-79,129,o),
(34,-18,o),
(236,-18,cs)
);
},
{
closed = 1;
nodes = (
(150,132,o),
(93,213,o),
(116,348,cs),
(140,484,o),
(227,565,o),
(339,565,cs),
(452,565,o),
(508,482,o),
(484,348,cs),
(461,215,o),
(375,132,o),
(262,132,cs)
);
},
{
closed = 1;
nodes = (
(251,-209,o),
(295,-171,o),
(303,-123,cs),
(312,-75,o),
(281,-38,o),
(233,-38,cs),
(185,-38,o),
(142,-75,o),
(133,-123,cs),
(125,-171,o),
(156,-209,o),
(203,-209,cs)
);
}
);
width = 725;
}
);
note = uni1ECC.ss03;
},
{
glyphname = uni1EE2.ss03;
lastChange = "2022-12-26 08:52:30 +0000";
layers = (
{
hints = (
{
horizontal = 1;
place = (-141, 27);
place = (-141, 27);
type = Stem;
},
{
horizontal = 1;
place = (574, -20);
target = down;
type = TopGhost;
},
{
place = (-102, 34);
place = (-102, 34);
type = Stem;
},
{
place = (155, 47);
place = (155, 47);
type = Stem;
},
{
place = (530, -19);
place = (530, -19);
type = Stem;
},
{
horizontal = 1;
place = (442, 27);
place = (442, 27);
type = Stem;
},
{
place = (423, 35);
place = (423, 35);
type = Stem;
},
{
horizontal = 1;
place = (-332, 48);
place = (-332, 48);
type = Stem;
}
);
layerId = m01;
shapes = (
{
closed = 1;
nodes = (
(653,697,l),
(649,672,ls),
(642,635,o),
(630,609,o),
(607,597,c),
(560,672,o),
(476,715,o),
(365,715,cs),
(163,715,o),
(-2,568,o),
(-41,348,cs),
(-79,129,o),
(34,-18,o),
(236,-18,cs),
(438,-18,o),
(604,128,o),
(642,348,cs),
(653,408,o),
(653,462,o),
(642,509,c),
(705,538,o),
(740,599,o),
(751,663,cs),
(757,697,l)
);
},
{
closed = 1;
nodes = (
(150,132,o),
(93,213,o),
(116,348,cs),
(140,484,o),
(227,565,o),
(339,565,cs),
(452,565,o),
(508,482,o),
(484,348,cs),
(461,215,o),
(375,132,o),
(262,132,cs)
);
},
{
closed = 1;
nodes = (
(185,-38,o),
(142,-75,o),
(133,-123,cs),
(125,-171,o),
(156,-209,o),
(203,-209,cs),
(251,-209,o),
(295,-171,o),
(303,-123,cs),
(312,-75,o),
(281,-38,o),
(233,-38,cs)
);
}
);
width = 725;
}
);
note = uni1EE2.ss03;
},
{
glyphname = Udieresis.ss03;
kernLeft = U;
lastChange = "2022-12-26 08:52:30 +0000";
layers = (
{
hints = (
{
horizontal = 1;
place = (-141, 21);
place = (-141, 21);
type = Stem;
},
{
horizontal = 1;
place = (574, -20);
target = down;
type = TopGhost;
},
{
horizontal = 1;
place = (618, 48);
place = (618, 48);
type = Stem;
},
{
place = (22, -55);
place = (22, -55);
type = Stem;
},
{
place = (328, 34);
place = (328, 34);
type = Stem;
},
{
place = (22, 47);
place = (22, 47);
type = Stem;
},
{
place = (-67, 34);
place = (-67, 34);
type = Stem;
},
{
place = (328, -53);
place = (328, -53);
type = Stem;
},
{
place = (228, 47);
place = (228, 47);
type = Stem;
}
);
layerId = m01;
shapes = (
{
closed = 1;
nodes = (
(286,741,o),
(329,779,o),
(338,827,cs),
(346,875,o),
(316,912,o),
(268,912,cs),
(220,912,o),
(176,875,o),
(168,827,cs),
(159,779,o),
(191,741,o),
(238,741,cs)
);
},
{
closed = 1;
nodes = (
(492,741,o),
(535,779,o),
(544,827,cs),
(552,875,o),
(522,912,o),
(474,912,cs),
(426,912,o),
(382,875,o),
(374,827,cs),
(365,779,o),
(397,741,o),
(444,741,cs)
);
},
{
closed = 1;
nodes = (
(388,-18,o),
(498,72,o),
(530,257,cs),
(608,697,l),
(451,697,l),
(375,268,ls),
(359,174,o),
(331,126,o),
(231,126,cs),
(130,126,o),
(121,173,o),
(138,270,cs),
(213,697,l),
(56,697,l),
(-22,252,ls),
(-55,70,o),
(23,-18,o),
(206,-18,cs)
);
}
);
width = 664;
}
);
note = Udieresis.ss03;
},
{
glyphname = uni01D7.ss03;
kernLeft = U;
lastChange = "2022-12-26 08:52:30 +0000";
layers = (
{
hints = (
{
horizontal = 1;
place = (-141, 21);
place = (-141, 21);
type = Stem;
},
{
horizontal = 1;
place = (574, -20);
target = down;
type = TopGhost;
},
{
horizontal = 1;
place = (618, 48);
place = (618, 48);
type = Stem;
},
{
horizontal = 1;
place = (850, 20);
place = (850, 20);
type = Stem;
},
{
place = (-67, 34);
place = (-67, 34);
type = Stem;
},
{
place = (328, 34);
place = (328, 34);
type = Stem;
},
{
place = (22, -55);
place = (22, -55);
type = Stem;
},
{
place = (22, 47);
place = (22, 47);
type = Stem;
},
{
place = (328, -53);
place = (328, -53);
type = Stem;
},
{
place = (228, 47);
place = (228, 47);
type = Stem;
}
);
layerId = m01;
shapes = (
{
closed = 1;
nodes = (
(327,973,l),
(436,973,l),
(627,1116,l),
(465,1116,l)
);
},
{
closed = 1;
nodes = (
(286,741,o),
(329,779,o),
(338,827,cs),
(346,875,o),
(316,912,o),
(268,912,cs),
(220,912,o),
(176,875,o),
(168,827,cs),
(159,779,o),
(191,741,o),
(238,741,cs)
);
},
{
closed = 1;
nodes = (
(492,741,o),
(535,779,o),
(544,827,cs),
(552,875,o),
(522,912,o),
(474,912,cs),
(426,912,o),
(382,875,o),
(374,827,cs),
(365,779,o),
(397,741,o),
(444,741,cs)
);
},
{
closed = 1;
nodes = (
(388,-18,o),
(498,72,o),
(530,257,cs),
(608,697,l),
(451,697,l),
(375,268,ls),
(359,174,o),
(331,126,o),
(231,126,cs),
(130,126,o),
(121,173,o),
(138,270,cs),
(213,697,l),
(56,697,l),
(-22,252,ls),
(-55,70,o),
(23,-18,o),
(206,-18,cs)
);
}
);
width = 664;
}
);
note = uni01D7.ss03;
},
{
glyphname = uni01D9.ss03;
kernLeft = U;
lastChange = "2022-12-26 08:52:30 +0000";
layers = (
{
hints = (
{
horizontal = 1;
place = (-141, 21);
place = (-141, 21);
type = Stem;
},
{
horizontal = 1;
place = (574, -20);
target = down;
type = TopGhost;
},
{
horizontal = 1;
place = (618, 48);
place = (618, 48);
type = Stem;
},
{
place = (-67, 34);
place = (-67, 34);
type = Stem;
},
{
place = (328, 34);
place = (328, 34);
type = Stem;
},
{
place = (22, -55);
place = (22, -55);
type = Stem;
},
{
place = (22, 47);
place = (22, 47);
type = Stem;
},
{
place = (328, -53);
place = (328, -53);
type = Stem;
},
{
place = (228, 47);
place = (228, 47);
type = Stem;
}
);
layerId = m01;
shapes = (
{
closed = 1;
nodes = (
(377,945,l),
(567,1116,l),
(453,1116,l),
(398,1066,l),
(362,1116,l),
(247,1116,l)
);
},
{
closed = 1;
nodes = (
(286,741,o),
(329,779,o),
(338,827,cs),
(346,875,o),
(316,912,o),
(268,912,cs),
(220,912,o),
(176,875,o),
(168,827,cs),
(159,779,o),
(191,741,o),
(238,741,cs)
);
},
{
closed = 1;
nodes = (
(492,741,o),
(535,779,o),
(544,827,cs),
(552,875,o),
(522,912,o),
(474,912,cs),
(426,912,o),
(382,875,o),
(374,827,cs),
(365,779,o),
(397,741,o),
(444,741,cs)
);
},
{
closed = 1;
nodes = (
(388,-18,o),
(498,72,o),
(530,257,cs),
(608,697,l),
(451,697,l),
(375,268,ls),
(359,174,o),
(331,126,o),
(231,126,cs),
(130,126,o),
(121,173,o),
(138,270,cs),
(213,697,l),
(56,697,l),
(-22,252,ls),
(-55,70,o),
(23,-18,o),
(206,-18,cs)
);
}
);
width = 664;
}
);
note = uni01D9.ss03;
},
{
glyphname = uni01DB.ss03;
kernLeft = U;
lastChange = "2022-12-26 08:52:30 +0000";
layers = (
{
hints = (
{
horizontal = 1;
place = (-141, 21);
place = (-141, 21);
type = Stem;
},
{
horizontal = 1;
place = (574, -20);
target = down;
type = TopGhost;
},
{
horizontal = 1;
place = (618, 48);
place = (618, 48);
type = Stem;
},
{
horizontal = 1;
place = (850, 20);
place = (850, 20);
type = Stem;
},
{
place = (-67, 34);
place = (-67, 34);
type = Stem;
},
{
place = (328, 34);
place = (328, 34);
type = Stem;
},
{
place = (22, -55);
place = (22, -55);
type = Stem;
},
{
place = (22, 47);
place = (22, 47);
type = Stem;
},
{
place = (328, -53);
place = (328, -53);
type = Stem;
},
{
place = (228, 47);
place = (228, 47);
type = Stem;
}
);
layerId = m01;
shapes = (
{
closed = 1;
nodes = (
(326,973,l),
(437,973,l),
(358,1116,l),
(198,1116,l)
);
},
{
closed = 1;
nodes = (
(286,741,o),
(329,779,o),
(338,827,cs),
(346,875,o),
(316,912,o),
(268,912,cs),
(220,912,o),
(176,875,o),
(168,827,cs),
(159,779,o),
(191,741,o),
(238,741,cs)
);
},
{
closed = 1;
nodes = (
(492,741,o),
(535,779,o),
(544,827,cs),
(552,875,o),
(522,912,o),
(474,912,cs),
(426,912,o),
(382,875,o),
(374,827,cs),
(365,779,o),
(397,741,o),
(444,741,cs)
);
},
{
closed = 1;
nodes = (
(388,-18,o),
(498,72,o),
(530,257,cs),
(608,697,l),
(451,697,l),
(375,268,ls),
(359,174,o),
(331,126,o),
(231,126,cs),
(130,126,o),
(121,173,o),
(138,270,cs),
(213,697,l),
(56,697,l),
(-22,252,ls),
(-55,70,o),
(23,-18,o),
(206,-18,cs)
);
}
);
width = 664;
}
);
note = uni01DB.ss03;
},
{
glyphname = uni01D5.ss03;
kernLeft = U;
lastChange = "2022-12-26 08:52:30 +0000";
layers = (
{
hints = (
{
horizontal = 1;
place = (-141, 21);
place = (-141, 21);
type = Stem;
},
{
horizontal = 1;
place = (574, -20);
target = down;
type = TopGhost;
},
{
horizontal = 1;
place = (618, 48);
place = (618, 48);
type = Stem;
},
{
horizontal = 1;
place = (842, -36);
place = (842, -36);
type = Stem;
},
{
place = (71, 155);
place = (71, 155);
type = Stem;
},
{
place = (22, -55);
place = (22, -55);
type = Stem;
},
{
place = (328, 34);
place = (328, 34);
type = Stem;
},
{
place = (22, 47);
place = (22, 47);
type = Stem;
},
{
place = (-67, 34);
place = (-67, 34);
type = Stem;
},
{
place = (328, -53);
place = (328, -53);
type = Stem;
},
{
place = (228, 47);
place = (228, 47);
type = Stem;
}
);
layerId = m01;
shapes = (
{
closed = 1;
nodes = (
(241,965,l),
(519,965,l),
(535,1052,l),
(257,1052,l)
);
},
{
closed = 1;
nodes = (
(286,741,o),
(329,779,o),
(338,827,cs),
(346,875,o),
(316,912,o),
(268,912,cs),
(220,912,o),
(176,875,o),
(168,827,cs),
(159,779,o),
(191,741,o),
(238,741,cs)
);
},
{
closed = 1;
nodes = (
(492,741,o),
(535,779,o),
(544,827,cs),
(552,875,o),
(522,912,o),
(474,912,cs),
(426,912,o),
(382,875,o),
(374,827,cs),
(365,779,o),
(397,741,o),
(444,741,cs)
);
},
{
closed = 1;
nodes = (
(388,-18,o),
(498,72,o),
(530,257,cs),
(608,697,l),
(451,697,l),
(375,268,ls),
(359,174,o),
(331,126,o),
(231,126,cs),
(130,126,o),
(121,173,o),
(138,270,cs),
(213,697,l),
(56,697,l),
(-22,252,ls),
(-55,70,o),
(23,-18,o),
(206,-18,cs)
);
}
);
width = 664;
}
);
note = uni01D5.ss03;
},
{
glyphname = uni1EE4.ss03;
kernLeft = U;
lastChange = "2022-12-26 08:52:30 +0000";
layers = (
{
hints = (
{
horizontal = 1;
place = (-141, 21);
place = (-141, 21);
type = Stem;
},
{
horizontal = 1;
place = (574, -20);
target = down;
type = TopGhost;
},
{
place = (-67, 34);
place = (-67, 34);
type = Stem;
},
{
place = (328, 34);
place = (328, 34);
type = Stem;
},
{
horizontal = 1;
place = (-332, 48);
place = (-332, 48);
type = Stem;
},
{
place = (125, 47);
place = (125, 47);
type = Stem;
}
);
layerId = m01;
shapes = (
{
closed = 1;
nodes = (
(388,-18,o),
(498,72,o),
(530,257,cs),
(608,697,l),
(451,697,l),
(375,268,ls),
(359,174,o),
(331,126,o),
(231,126,cs),
(130,126,o),
(121,173,o),
(138,270,cs),
(213,697,l),
(56,697,l),
(-22,252,ls),
(-55,70,o),
(23,-18,o),
(206,-18,cs)
);
},
{
closed = 1;
nodes = (
(221,-209,o),
(265,-171,o),
(273,-123,cs),
(282,-75,o),
(251,-38,o),
(203,-38,cs),
(155,-38,o),
(112,-75,o),
(103,-123,cs),
(95,-171,o),
(126,-209,o),
(173,-209,cs)
);
}
);
width = 664;
}
);
note = uni1EE4.ss03;
},
{
glyphname = uni1EF0.ss03;
kernLeft = U;
lastChange = "2022-12-26 08:52:30 +0000";
layers = (
{
hints = (
{
horizontal = 1;
place = (-141, 21);
place = (-141, 21);
type = Stem;
},
{
horizontal = 1;
place = (574, -20);
target = down;
type = TopGhost;
},
{
place = (-67, 34);
place = (-67, 34);
type = Stem;
},
{
place = (125, 47);
place = (125, 47);
type = Stem;
},
{
place = (328, 34);
place = (328, 34);
type = Stem;
},
{
place = (538, -19);
place = (538, -19);
type = Stem;
},
{
horizontal = 1;
place = (-332, 48);
place = (-332, 48);
type = Stem;
}
);
layerId = m01;
shapes = (
{
closed = 1;
nodes = (
(661,697,l),
(657,672,ls),
(648,624,o),
(631,594,o),
(589,589,c),
(608,697,l),
(451,697,l),
(375,268,ls),
(359,174,o),
(331,126,o),
(231,126,cs),
(130,126,o),
(121,173,o),
(138,270,cs),
(213,697,l),
(56,697,l),
(-22,252,ls),
(-55,70,o),
(23,-18,o),
(206,-18,cs),
(388,-18,o),
(498,72,o),
(530,257,cs),
(572,491,l),
(687,496,o),
(744,576,o),
(759,663,cs),
(765,697,l)
);
},
{
closed = 1;
nodes = (
(155,-38,o),
(112,-75,o),
(103,-123,cs),
(95,-171,o),
(126,-209,o),
(173,-209,cs),
(221,-209,o),
(265,-171,o),
(273,-123,cs),
(282,-75,o),
(251,-38,o),
(203,-38,cs)
);
}
);
width = 664;
}
);
note = uni1EF0.ss03;
},
{
glyphname = Wdieresis.ss03;
kernLeft = W;
kernRight = W;
lastChange = "2022-12-26 08:52:30 +0000";
layers = (
{
hints = (
{
horizontal = 1;
place = (-123, 21);
target = up;
type = BottomGhost;
},
{
horizontal = 1;
place = (574, -20);
target = down;
type = TopGhost;
},
{
horizontal = 1;
place = (618, 48);
place = (618, 48);
type = Stem;
},
{
place = (182, 47);
place = (182, 47);
type = Stem;
},
{
place = (388, 47);
place = (388, 47);
type = Stem;
}
);
layerId = m01;
shapes = (
{
closed = 1;
nodes = (
(446,741,o),
(489,779,o),
(498,827,cs),
(506,875,o),
(476,912,o),
(428,912,cs),
(380,912,o),
(336,875,o),
(328,827,cs),
(319,779,o),
(351,741,o),
(398,741,cs)
);
},
{
closed = 1;
nodes = (
(652,741,o),
(695,779,o),
(704,827,cs),
(712,875,o),
(682,912,o),
(634,912,cs),
(586,912,o),
(542,875,o),
(534,827,cs),
(525,779,o),
(557,741,o),
(604,741,cs)
);
},
{
closed = 1;
nodes = (
(83,0,l),
(234,0,l),
(442,406,l),
(505,0,l),
(657,0,l),
(994,697,l),
(829,697,l),
(616,242,l),
(552,655,l),
(419,655,l),
(211,242,l),
(157,697,l),
(-7,697,l)
);
}
);
width = 986;
}
);
note = Wdieresis.ss03;
},
{
glyphname = Ydieresis.ss03;
kernLeft = Y;
kernRight = Y;
lastChange = "2022-12-26 08:52:30 +0000";
layers = (
{
hints = (
{
horizontal = 1;
place = (-123, 21);
target = up;
type = BottomGhost;
},
{
horizontal = 1;
place = (574, -20);
target = down;
type = TopGhost;
},
{
horizontal = 1;
place = (618, 48);
place = (618, 48);
type = Stem;
},
{
place = (10, 47);
place = (10, 47);
type = Stem;
},
{
place = (216, 47);
place = (216, 47);
type = Stem;
},
{
place = (120, 34);
place = (120, 34);
type = Stem;
}
);
layerId = m01;
shapes = (
{
closed = 1;
nodes = (
(274,741,o),
(317,779,o),
(326,827,cs),
(334,875,o),
(304,912,o),
(256,912,cs),
(208,912,o),
(164,875,o),
(156,827,cs),
(147,779,o),
(179,741,o),
(226,741,cs)
);
},
{
closed = 1;
nodes = (
(480,741,o),
(523,779,o),
(532,827,cs),
(540,875,o),
(510,912,o),
(462,912,cs),
(414,912,o),
(370,875,o),
(362,827,cs),
(353,779,o),
(385,741,o),
(432,741,cs)
);
},
{
closed = 1;
nodes = (
(120,0,l),
(277,0,l),
(326,275,l),
(661,697,l),
(476,697,l),
(270,426,l),
(164,697,l),
(-21,697,l),
(169,275,l)
);
}
);
width = 641;
}
);
note = Ydieresis.ss03;
},
{
glyphname = uni1EF4.ss03;
kernLeft = Y;
kernRight = Y;
lastChange = "2022-12-26 08:52:30 +0000";
layers = (
{
hints = (
{
horizontal = 1;
place = (-332, 48);
place = (-332, 48);
type = Stem;
},
{
horizontal = 1;
place = (-123, 21);
target = up;
type = BottomGhost;
},
{
horizontal = 1;
place = (574, -20);
target = down;
type = TopGhost;
},
{
place = (120, 34);
place = (120, 34);
type = Stem;
},
{
place = (113, 47);
place = (113, 47);
type = Stem;
}
);
layerId = m01;
shapes = (
{
closed = 1;
nodes = (
(120,0,l),
(277,0,l),
(326,275,l),
(661,697,l),
(476,697,l),
(270,426,l),
(164,697,l),
(-21,697,l),
(169,275,l)
);
},
{
closed = 1;
nodes = (
(209,-209,o),
(253,-171,o),
(261,-123,cs),
(270,-75,o),
(239,-38,o),
(191,-38,cs),
(143,-38,o),
(100,-75,o),
(91,-123,cs),
(83,-171,o),
(114,-209,o),
(161,-209,cs)
);
}
);
width = 641;
}
);
note = uni1EF4.ss03;
},
{
glyphname = Zdotaccent.ss03;
kernLeft = Z;
kernRight = Z;
lastChange = "2022-12-26 08:52:30 +0000";
layers = (
{
hints = (
{
horizontal = 1;
place = (-123, 21);
place = (-123, 21);
type = Stem;
},
{
horizontal = 1;
place = (430, 21);
place = (430, 21);
type = Stem;
},
{
horizontal = 1;
place = (618, 48);
place = (618, 48);
type = Stem;
},
{
place = (96, 47);
place = (96, 47);
type = Stem;
}
);
layerId = m01;
shapes = (
{
closed = 1;
nodes = (
(360,741,o),
(403,779,o),
(412,827,cs),
(420,875,o),
(390,912,o),
(342,912,cs),
(294,912,o),
(250,875,o),
(242,827,cs),
(233,779,o),
(265,741,o),
(312,741,cs)
);
},
{
closed = 1;
nodes = (
(133,144,l),
(564,585,l),
(584,697,l),
(38,697,l),
(13,553,l),
(348,553,l),
(-89,107,l),
(-108,0,l),
(462,0,l),
(487,144,l)
);
}
);
width = 608;
}
);
note = Zdotaccent.ss03;
},
